<svg width="28" height="30" viewBox="0 0 28 30" fill="none" xmlns="http://www.w3.org/2000/svg">
<path d="M6.8343e-07 14.7115C9.25498e-07 17.6212 0.821084 20.4655 2.35942 22.8848C3.89776 25.3041 6.08426 27.1898 8.64243 28.3032C11.2006 29.4167 14.0155 29.7081 16.7313 29.1404C19.447 28.5728 21.9416 27.1716 23.8995 25.1142C25.8574 23.0567 27.1908 20.4354 27.731 17.5816C28.2712 14.7279 27.9939 11.7699 26.9343 9.08168C25.8747 6.3935 24.0803 4.09587 21.778 2.47934C19.4757 0.862819 16.7689 4.84645e-06 14 5.10082e-06C10.287 5.44192e-06 6.72601 1.54996 4.1005 4.30891C1.47499 7.06786 3.58826e-07 10.8098 6.8343e-07 14.7115ZM25.8104 14.7115C25.8104 17.169 25.1168 19.5712 23.8173 21.6143C22.5178 23.6574 20.6709 25.2496 18.5101 26.1895C16.3494 27.1294 13.9719 27.3747 11.6784 26.8944C9.38492 26.4141 7.27854 25.2298 5.6257 23.4914C3.97287 21.7529 2.84786 19.5383 2.39299 17.1278C1.93811 14.7173 2.17382 12.2192 3.07028 9.94953C3.96675 7.67983 5.48369 5.74053 7.42922 4.37695C9.37474 3.01337 11.6614 2.28679 14 2.28912C17.1344 2.29224 20.1395 3.60203 22.3559 5.93101C24.5722 8.25999 25.8186 11.4179 25.8216 14.7115L25.8104 14.7115Z" fill="#A92539"/>
<path d="M15.4952 8.20926L10.08 13.9056C9.8789 14.1184 9.76605 14.4061 9.76605 14.7059C9.76605 15.0058 9.8789 15.2935 10.08 15.5062L15.4952 21.1849C15.7037 21.3643 15.9682 21.4558 16.2373 21.4417C16.5064 21.4276 16.761 21.309 16.9515 21.1087C17.142 20.9085 17.2549 20.6411 17.2683 20.3583C17.2817 20.0755 17.1947 19.7975 17.024 19.5784L12.376 14.6942L17.024 9.79812C17.2267 9.58508 17.3406 9.29615 17.3406 8.99487C17.3406 8.69359 17.2267 8.40464 17.024 8.19161C16.8213 7.97857 16.5463 7.85889 16.2596 7.85889C15.9729 7.85889 15.6979 7.97857 15.4952 8.19161L15.4952 8.20926Z" fill="#A92539"/>
</svg>
