<svg width="28" height="30" viewBox="0 0 28 30" fill="none" xmlns="http://www.w3.org/2000/svg">
<path d="M28 14.7116C28 11.8019 27.1789 8.95755 25.6406 6.53825C24.1022 4.11895 21.9157 2.23334 19.3576 1.11986C16.7994 0.0063751 13.9845 -0.284964 11.2687 0.282685C8.55301 0.850333 6.05844 2.25147 4.10051 4.30892C2.14257 6.36636 0.809205 8.98771 0.269012 11.8415C-0.271181 14.6952 0.00606676 17.6532 1.06569 20.3414C2.12532 23.0296 3.91973 25.3272 6.22202 26.9438C8.52431 28.5603 11.2311 29.4231 14 29.4231C17.713 29.4231 21.274 27.8731 23.8995 25.1142C26.525 22.3552 28 18.6133 28 14.7116ZM2.18961 14.7116C2.18961 12.2541 2.88321 9.85191 4.18268 7.8088C5.48215 5.76569 7.3291 4.17348 9.48987 3.2336C11.6506 2.29372 14.0281 2.04841 16.3216 2.52868C18.6151 3.00896 20.7215 4.19325 22.3743 5.93174C24.0271 7.67022 25.1521 9.88479 25.607 12.2953C26.0619 14.7058 25.8262 17.2039 24.9297 19.4736C24.0333 21.7433 22.5163 23.6826 20.5708 25.0462C18.6253 26.4097 16.3386 27.1363 14 27.134C10.8656 27.1309 7.86049 25.8211 5.64415 23.4921C3.42781 21.1631 2.18137 18.0052 2.1784 14.7116H2.18961Z" fill="#A92539"/>
<path d="M12.5048 21.2141L17.92 15.5178C18.1211 15.3051 18.2339 15.0174 18.2339 14.7175C18.2339 14.4177 18.1211 14.13 17.92 13.9172L12.5048 8.23863C12.2963 8.05931 12.0318 7.9678 11.7627 7.98188C11.4936 7.99597 11.239 8.11463 11.0485 8.31484C10.858 8.51505 10.7451 8.78251 10.7317 9.0653C10.7183 9.34808 10.8053 9.62601 10.976 9.84512L15.624 14.7293L10.976 19.6253C10.7733 19.8383 10.6594 20.1272 10.6594 20.4285C10.6594 20.7298 10.7733 21.0187 10.976 21.2317C11.1787 21.4448 11.4537 21.5645 11.7404 21.5645C12.0271 21.5645 12.3021 21.4448 12.5048 21.2317V21.2141Z" fill="#A92539"/>
</svg>
