<svg width="31" height="31" viewBox="0 0 31 31" fill="none" xmlns="http://www.w3.org/2000/svg">
<path d="M30.3546 29.409H0.64541C0.474237 29.409 0.310074 29.4763 0.189036 29.5961C0.0679986 29.7159 0 29.8784 0 30.0479C0 30.2173 0.0679986 30.3798 0.189036 30.4997C0.310074 30.6195 0.474237 30.6868 0.64541 30.6868H30.3546C30.5258 30.6868 30.6899 30.6195 30.811 30.4997C30.932 30.3798 31 30.2173 31 30.0479C31 29.8784 30.932 29.7159 30.811 29.5961C30.6899 29.4763 30.5258 29.409 30.3546 29.409Z" fill="#A92539"/>
<path d="M5.81114 21.7372H1.93614C1.85052 21.7372 1.76576 21.7541 1.68678 21.7868C1.60781 21.8196 1.5362 21.8675 1.47613 21.9279C1.41607 21.9883 1.36874 22.0599 1.33691 22.1386C1.30508 22.2173 1.28938 22.3015 1.29073 22.3862V30.0579C1.2934 30.2256 1.36257 30.3855 1.48332 30.5032C1.60407 30.6208 1.76671 30.6868 1.93614 30.6868H5.81114C5.98255 30.6868 6.14697 30.6195 6.26842 30.4998C6.38986 30.38 6.45842 30.2175 6.45909 30.0479V22.3862C6.4601 22.3013 6.44409 22.2171 6.41198 22.1384C6.37987 22.0597 6.3323 21.9881 6.27203 21.9278C6.21176 21.8674 6.13999 21.8195 6.06088 21.7868C5.98176 21.7541 5.89688 21.7372 5.81114 21.7372ZM5.16573 29.409H2.58409V23.015H5.16573V29.409Z" fill="#A92539"/>
<path d="M13.5612 15.3435H9.68618C9.60143 15.3435 9.5175 15.36 9.43919 15.3921C9.36089 15.4242 9.28974 15.4713 9.22981 15.5306C9.16988 15.59 9.12233 15.6604 9.0899 15.7379C9.05747 15.8154 9.04077 15.8985 9.04077 15.9824V30.0481C9.04077 30.2175 9.10877 30.38 9.22981 30.4998C9.35085 30.6196 9.51501 30.6869 9.68618 30.6869H13.5612C13.7326 30.6869 13.897 30.6197 14.0185 30.5C14.1399 30.3802 14.2085 30.2177 14.2091 30.0481V15.9824C14.2085 15.8127 14.1399 15.6502 14.0185 15.5305C13.897 15.4107 13.7326 15.3435 13.5612 15.3435ZM12.9158 29.4092H10.3341V16.6213H12.9158V29.4092Z" fill="#A92539"/>
<path d="M21.3113 17.9016H17.4363C17.2651 17.9016 17.101 17.9689 16.9799 18.0887C16.8589 18.2085 16.7909 18.371 16.7909 18.5404V30.048C16.7909 30.2175 16.8589 30.38 16.9799 30.4998C17.101 30.6196 17.2651 30.6869 17.4363 30.6869H21.3113C21.4827 30.6869 21.6471 30.6197 21.7686 30.4999C21.89 30.3802 21.9586 30.2177 21.9593 30.048V18.5404C21.9586 18.3708 21.89 18.2083 21.7686 18.0885C21.6471 17.9688 21.4827 17.9015 21.3113 17.9016ZM20.6659 29.4091H18.0843V19.1793H20.6659V29.4091Z" fill="#A92539"/>
<path d="M29.0612 10.2298H25.1862C25.1014 10.2298 25.0175 10.2463 24.9392 10.2784C24.8609 10.3105 24.7897 10.3576 24.7298 10.4169C24.6699 10.4763 24.6223 10.5467 24.5899 10.6242C24.5575 10.7017 24.5408 10.7848 24.5408 10.8687V30.048C24.5408 30.2174 24.6088 30.3799 24.7298 30.4998C24.8508 30.6196 25.015 30.6869 25.1862 30.6869H29.0612C29.2326 30.6869 29.397 30.6197 29.5185 30.4999C29.6399 30.3802 29.7085 30.2177 29.7091 30.048V10.8687C29.7085 10.699 29.6399 10.5365 29.5185 10.4168C29.397 10.297 29.2326 10.2298 29.0612 10.2298ZM28.4158 29.4091H25.8341V11.5076H28.4158V29.4091Z" fill="#A92539"/>
<path d="M3.87508 11.5076C3.36397 11.5076 2.86435 11.6577 2.43938 11.9387C2.01442 12.2198 1.6832 12.6193 1.4876 13.0868C1.29201 13.5542 1.24084 14.0685 1.34055 14.5648C1.44026 15.061 1.68638 15.5168 2.04778 15.8745C2.40919 16.2323 2.86964 16.4759 3.37093 16.5746C3.87221 16.6733 4.3918 16.6227 4.864 16.4291C5.3362 16.2354 5.73979 15.9076 6.02374 15.4869C6.3077 15.0662 6.45926 14.5716 6.45926 14.0657C6.45858 13.3875 6.18611 12.7372 5.70163 12.2576C5.21714 11.778 4.56024 11.5083 3.87508 11.5076ZM3.87508 15.3435C3.61906 15.344 3.36865 15.2693 3.15557 15.1288C2.94249 14.9883 2.77632 14.7883 2.67811 14.5543C2.57991 14.3203 2.55408 14.0626 2.60391 13.814C2.65373 13.5654 2.77696 13.3371 2.95799 13.1579C3.13903 12.9787 3.36971 12.8567 3.62084 12.8074C3.87196 12.7581 4.13222 12.7836 4.36866 12.8808C4.60509 12.978 4.80706 13.1425 4.94898 13.3535C5.09091 13.5644 5.1664 13.8123 5.1659 14.0657C5.1659 14.4046 5.0299 14.7296 4.78782 14.9692C4.54575 15.2089 4.21742 15.3435 3.87508 15.3435Z" fill="#A92539"/>
<path d="M11.625 5.11356C11.1139 5.11356 10.6142 5.26358 10.1893 5.54467C9.76429 5.82575 9.43307 6.22527 9.23748 6.6927C9.04189 7.16013 8.99072 7.67447 9.09043 8.17069C9.19014 8.66691 9.43626 9.12271 9.79766 9.48047C10.1591 9.83822 10.6195 10.0819 11.1208 10.1806C11.6221 10.2793 12.1417 10.2286 12.6139 10.035C13.0861 9.84137 13.4897 9.5135 13.7736 9.09282C14.0576 8.67215 14.2091 8.17757 14.2091 7.67163C14.2085 6.99339 13.936 6.34312 13.4515 5.86353C12.967 5.38395 12.3101 5.11422 11.625 5.11356ZM11.625 8.94942C11.3697 8.94942 11.1201 8.87448 10.9078 8.73407C10.6955 8.59367 10.5301 8.3941 10.4324 8.16062C10.3347 7.92713 10.3091 7.67022 10.3589 7.42235C10.4087 7.17449 10.5317 6.94681 10.7122 6.76811C10.8927 6.5894 11.1227 6.46771 11.3731 6.4184C11.6235 6.3691 11.8831 6.39441 12.1189 6.49112C12.3548 6.58783 12.5564 6.75161 12.6982 6.96174C12.8401 7.17187 12.9158 7.41891 12.9158 7.67163C12.9158 8.01052 12.7798 8.33553 12.5377 8.57516C12.2956 8.81479 11.9673 8.94942 11.625 8.94942Z" fill="#A92539"/>
<path d="M19.3751 7.67175C18.864 7.67175 18.3643 7.82178 17.9394 8.10287C17.5144 8.38395 17.1832 8.78347 16.9876 9.2509C16.792 9.71832 16.7408 10.2327 16.8405 10.7289C16.9403 11.2251 17.1864 11.6809 17.5478 12.0387C17.9092 12.3964 18.3696 12.64 18.8709 12.7388C19.3722 12.8375 19.8918 12.7868 20.364 12.5932C20.8362 12.3996 21.2398 12.0717 21.5237 11.651C21.8077 11.2303 21.9593 10.7358 21.9593 10.2298C21.9586 9.55159 21.6861 8.90132 21.2016 8.42173C20.7171 7.94214 20.0602 7.67242 19.3751 7.67175ZM19.3751 11.5076C19.1191 11.5081 18.8686 11.4334 18.6556 11.2929C18.4425 11.1524 18.2763 10.9525 18.1781 10.7184C18.0799 10.4844 18.0541 10.2267 18.1039 9.97816C18.1537 9.72957 18.277 9.50121 18.458 9.32201C18.639 9.14281 18.8697 9.02082 19.1208 8.9715C19.372 8.92218 19.6322 8.94774 19.8687 9.04496C20.1051 9.14217 20.3071 9.30666 20.449 9.51759C20.5909 9.72852 20.6664 9.9764 20.6659 10.2298C20.6659 10.5687 20.5299 10.8937 20.2878 11.1334C20.0457 11.373 19.7174 11.5076 19.3751 11.5076Z" fill="#A92539"/>
<path d="M27.125 0C26.6138 0 26.1142 0.150028 25.6893 0.431113C25.2643 0.712198 24.9331 1.11172 24.7375 1.57914C24.5419 2.04657 24.4907 2.56091 24.5904 3.05713C24.6901 3.55335 24.9363 4.00916 25.2977 4.36691C25.6591 4.72466 26.1195 4.9683 26.6208 5.067C27.1221 5.1657 27.6417 5.11505 28.1139 4.92143C28.5861 4.72782 28.9897 4.39994 29.2736 3.97927C29.5576 3.5586 29.7091 3.06402 29.7091 2.55808C29.7085 1.87984 29.436 1.22957 28.9515 0.74998C28.467 0.270391 27.8101 0.000665921 27.125 0ZM27.125 3.83586C26.8689 3.83636 26.6185 3.76163 26.4054 3.62114C26.1924 3.48065 26.0262 3.28072 25.928 3.04667C25.8298 2.81263 25.804 2.55499 25.8538 2.30641C25.9036 2.05782 26.0268 1.82946 26.2079 1.65026C26.3889 1.47105 26.6196 1.34907 26.8707 1.29975C27.1218 1.25043 27.3821 1.27599 27.6185 1.37321C27.855 1.47042 28.0569 1.63491 28.1989 1.84584C28.3408 2.05677 28.4163 2.30464 28.4158 2.55808C28.4158 2.72588 28.3824 2.89203 28.3175 3.04706C28.2526 3.20209 28.1576 3.34295 28.0377 3.4616C27.9178 3.58026 27.7755 3.67438 27.6189 3.73859C27.4623 3.80281 27.2945 3.83586 27.125 3.83586Z" fill="#A92539"/>
<path d="M26.2128 3.46104C26.1532 3.40118 26.0822 3.35365 26.0039 3.32121C25.9256 3.28877 25.8415 3.27206 25.7566 3.27206C25.6718 3.27206 25.5877 3.28877 25.5094 3.32121C25.4311 3.35365 25.3601 3.40118 25.3005 3.46104L20.2872 8.42124C20.1662 8.54132 20.0984 8.70405 20.0986 8.87363C20.0989 9.04321 20.1672 9.20575 20.2885 9.3255C20.4098 9.44524 20.5742 9.51238 20.7455 9.51214C20.9168 9.51191 21.081 9.44432 21.2019 9.32424L26.2128 4.36403C26.3336 4.24424 26.4015 4.08185 26.4015 3.91253C26.4015 3.74322 26.3336 3.58083 26.2128 3.46104Z" fill="#A92539"/>
<path d="M17.8124 8.7533L13.6655 7.58117C13.5839 7.55804 13.4986 7.55106 13.4142 7.5606C13.3299 7.57014 13.2483 7.59604 13.1741 7.63679C13.0999 7.67755 13.0346 7.73238 12.9817 7.79814C12.9289 7.86391 12.8897 7.93933 12.8664 8.02009C12.843 8.10085 12.836 8.18538 12.8456 8.26884C12.8553 8.3523 12.8814 8.43307 12.9226 8.50653C12.9638 8.57998 13.0191 8.64469 13.0856 8.69696C13.152 8.74923 13.2282 8.78803 13.3098 8.81116L17.4592 9.98329C17.5169 10.0003 17.5769 10.0087 17.6371 10.0084C17.7956 10.0122 17.9499 9.95803 18.0706 9.85634C18.1914 9.75465 18.2701 9.61253 18.2918 9.45708C18.3134 9.30162 18.2766 9.14371 18.1882 9.01345C18.0997 8.88319 17.966 8.78969 17.8124 8.75079V8.7533Z" fill="#A92539"/>
<path d="M10.6162 8.46902C10.5637 8.40334 10.4987 8.34857 10.4248 8.30782C10.3509 8.26708 10.2696 8.24118 10.1855 8.2316C10.1015 8.22202 10.0164 8.22895 9.93504 8.25199C9.85372 8.27504 9.77779 8.31375 9.71161 8.3659L4.84054 12.2093C4.7738 12.2617 4.71813 12.3265 4.67672 12.4002C4.6353 12.4738 4.60894 12.5548 4.59915 12.6385C4.58936 12.7223 4.59632 12.8071 4.61965 12.8882C4.64297 12.9692 4.6822 13.045 4.73509 13.111C4.78798 13.1771 4.85349 13.2322 4.92789 13.2732C5.0023 13.3142 5.08413 13.3403 5.16872 13.35C5.25331 13.3597 5.339 13.3528 5.42089 13.3297C5.50279 13.3066 5.57929 13.2678 5.64603 13.2154L10.5146 9.37202C10.5818 9.31983 10.6379 9.25489 10.6795 9.18099C10.7211 9.10709 10.7474 9.02572 10.7569 8.94164C10.7663 8.85756 10.7588 8.77246 10.7346 8.69131C10.7105 8.61016 10.6702 8.53459 10.6162 8.46902Z" fill="#A92539"/>
</svg>
