<svg width="34" height="34" viewBox="0 0 34 34" fill="none" xmlns="http://www.w3.org/2000/svg">
<path d="M22.7078 21.805C21.9022 21.805 21.2468 21.2378 21.2468 20.5406C21.2468 19.8433 21.9022 19.2761 22.7078 19.2761C23.5133 19.2761 24.1687 19.8433 24.1687 20.5406C24.1687 20.9073 24.4661 21.2047 24.8328 21.2047C25.1995 21.2047 25.4968 20.9073 25.4968 20.5406C25.4968 19.3237 24.5901 18.3005 23.3718 18.0228V17.6774C23.3718 17.3107 23.0745 17.0134 22.7078 17.0134C22.3411 17.0134 22.0437 17.3107 22.0437 17.6774V18.0228C20.8254 18.3005 19.9187 19.3237 19.9187 20.5406C19.9187 21.9701 21.1699 23.1332 22.7078 23.1332C23.5133 23.1332 24.1687 23.7004 24.1687 24.3977C24.1687 25.0949 23.5133 25.6622 22.7078 25.6622C21.9022 25.6622 21.2468 25.0949 21.2468 24.3977C21.2468 24.031 20.9495 23.7336 20.5828 23.7336C20.2161 23.7336 19.9187 24.031 19.9187 24.3977C19.9187 25.6146 20.8254 26.6378 22.0437 26.9155V27.2023C22.0437 27.569 22.3411 27.8664 22.7078 27.8664C23.0745 27.8664 23.3718 27.569 23.3718 27.2023V26.9155C24.5901 26.6378 25.4968 25.6146 25.4968 24.3977C25.4968 22.9681 24.2457 21.805 22.7078 21.805Z" fill="#A92539"/>
<path d="M29.9811 17.8551C29.1137 16.5034 27.8915 15.4218 26.4469 14.7273C26.1162 14.5683 25.7194 14.7075 25.5606 15.0381C25.4017 15.3687 25.5408 15.7654 25.8714 15.9243C28.3889 17.1345 30.0155 19.7203 30.0155 22.5119C30.0155 23.7064 29.7211 24.891 29.1641 25.9378C28.9919 26.2615 29.1147 26.6637 29.4385 26.836C29.5378 26.8888 29.6446 26.9139 29.7498 26.9139C29.9874 26.9139 30.2172 26.786 30.3366 26.5616C30.9954 25.3236 31.3437 23.9231 31.3437 22.5119C31.3437 20.8544 30.8725 19.2441 29.9811 17.8551Z" fill="#A92539"/>
<path d="M23.7517 13.879L23.707 13.879C23.3403 13.879 23.043 14.1763 23.043 14.543C23.043 14.9098 23.3403 15.2071 23.707 15.2071L23.7455 15.2072C23.7465 15.2072 23.7475 15.2072 23.7487 15.2072C24.114 15.2072 24.4109 14.9119 24.4127 14.5462C24.4143 14.1795 24.1184 13.8808 23.7517 13.879Z" fill="#A92539"/>
<path d="M19.5504 29.0993C17.033 27.8891 15.4064 25.3033 15.4064 22.5118C15.4064 21.3173 15.7008 20.1326 16.2578 19.0858C16.43 18.7621 16.3072 18.3599 15.9834 18.1877C15.6598 18.0154 15.2575 18.1382 15.0853 18.462C14.4265 19.7001 14.0782 21.1005 14.0782 22.5118C14.0782 24.1693 14.5494 25.7795 15.4408 27.1685C16.3082 28.5202 17.5304 29.6018 18.975 30.2964C19.0678 30.341 19.1658 30.362 19.2623 30.362C19.5096 30.362 19.7469 30.2233 19.8613 29.9856C20.0201 29.655 19.881 29.2582 19.5504 29.0993Z" fill="#A92539"/>
<path d="M21.7149 29.8164L21.6765 29.8162C21.308 29.8156 21.0111 30.1103 21.0094 30.4772C21.0077 30.8439 21.3037 31.1426 21.6704 31.1444L21.7149 31.1445C22.0816 31.1445 22.379 30.8471 22.379 30.4804C22.379 30.1137 22.0816 29.8164 21.7149 29.8164Z" fill="#A92539"/>
<path d="M25.7263 11.6322C25.6455 11.4397 25.5465 11.2582 25.4313 11.0898H27.1601C28.8444 11.0898 30.2148 9.71947 30.2148 8.03514C30.2148 6.35082 28.8444 4.98046 27.1601 4.98046H21.8423C22.1804 4.48892 22.3789 3.89425 22.3789 3.2539C22.3789 1.56958 21.0085 0.199219 19.3242 0.199219H3.05468C1.37036 0.199219 0 1.56958 0 3.2539C0 4.93823 1.37036 6.30858 3.05468 6.30858H8.37248C8.03441 6.80012 7.83592 7.39479 7.83592 8.03514C7.83592 8.6755 8.03434 9.27016 8.37248 9.7617H6.64061C4.95629 9.7617 3.58593 11.1321 3.58593 12.8164C3.58593 13.7837 4.03842 14.6469 4.74239 15.207C4.03842 15.7671 3.58593 16.6303 3.58593 17.5976C3.58593 18.565 4.03842 19.4282 4.74239 19.9882C4.03842 20.5483 3.58593 21.4115 3.58593 22.3789C3.58593 23.3462 4.03842 24.2094 4.74239 24.7695C4.03842 25.3296 3.58593 26.1928 3.58593 27.1601C3.58593 28.8444 4.95629 30.2148 6.64061 30.2148H14.4666C16.5282 32.4199 19.4611 33.8008 22.711 33.8008C28.9357 33.8008 34 28.7365 34 22.5117C34 17.3309 30.4918 12.9547 25.7263 11.6322ZM27.1601 6.30858C28.1122 6.30858 28.8867 7.08314 28.8867 8.03514C28.8867 8.98714 28.1122 9.7617 27.1601 9.7617H22.9101H10.8906C9.93854 9.7617 9.16405 8.98714 9.16405 8.03514C9.16405 7.08314 9.93854 6.30858 10.8906 6.30858H27.1601ZM3.05468 4.98046C2.10262 4.98046 1.32812 4.2059 1.32812 3.2539C1.32812 2.3019 2.10262 1.52734 3.05468 1.52734H19.3242C20.2762 1.52734 21.0507 2.3019 21.0507 3.2539C21.0507 4.2059 20.2762 4.98046 19.3242 4.98046H3.05468ZM6.64061 11.0898H22.9101C23.1776 11.0898 23.4337 11.152 23.6635 11.2633C23.3494 11.2369 23.0318 11.2227 22.711 11.2227C19.5935 11.2227 16.7673 12.493 14.7224 14.5429H6.64061C5.68861 14.5429 4.91405 13.7684 4.91405 12.8164C4.91405 11.8644 5.68861 11.0898 6.64061 11.0898ZM6.64061 15.8711H13.5877C12.8338 16.9039 12.251 18.0688 11.8809 19.3242H6.64061C5.68855 19.3242 4.91405 18.5497 4.91405 17.5976C4.91405 16.6456 5.68855 15.8711 6.64061 15.8711ZM6.64061 20.6523H11.5759C11.4752 21.2575 11.4219 21.8784 11.4219 22.5117C11.4219 23.0527 11.461 23.5846 11.5349 24.1054H6.64061C5.68855 24.1054 4.91405 23.3309 4.91405 22.3789C4.91405 21.4268 5.68855 20.6523 6.64061 20.6523ZM6.64061 28.8867C5.68855 28.8867 4.91405 28.1122 4.91405 27.1601C4.91405 26.208 5.68855 25.4335 6.64061 25.4335H11.8061C12.1412 26.6828 12.6855 27.8471 13.3994 28.8867H6.64061ZM22.711 32.4727C17.2185 32.4727 12.75 28.0042 12.75 22.5117C12.75 17.0193 17.2185 12.5508 22.711 12.5508C28.2034 12.5508 32.6719 17.0193 32.6719 22.5117C32.6719 28.0042 28.2034 32.4727 22.711 32.4727Z" fill="#A92539"/>
</svg>
