<svg width="43" height="46" viewBox="0 0 43 46" fill="none" xmlns="http://www.w3.org/2000/svg">
<path d="M30.8782 18.0567H12.0659C11.9927 18.0567 11.9226 18.0257 11.8709 17.9704C11.8192 17.9152 11.7901 17.8403 11.7901 17.7622C11.7895 17.7191 11.7978 17.6764 11.8145 17.6371L13.4737 13.7958C13.4957 13.7459 13.5301 13.7035 13.5731 13.6732C13.6161 13.6428 13.6662 13.6257 13.7177 13.6238H29.2117C29.2633 13.6257 29.3133 13.6428 29.3564 13.6732C29.3994 13.7035 29.4338 13.7459 29.4557 13.7958L31.1149 17.6371C31.1351 17.6815 31.1445 17.7306 31.1421 17.7798C31.1397 17.8291 31.1257 17.8769 31.1013 17.9188C31.077 17.9607 31.0431 17.9954 31.0028 18.0195C30.9625 18.0436 30.9171 18.0564 30.8709 18.0567H30.8782ZM12.4977 17.4599H30.4464L29.036 14.2154H13.9081L12.4977 17.4599Z" fill="#A92539"/>
<path d="M30.8783 18.1223H12.0658C11.9765 18.1223 11.8909 18.0844 11.8278 18.0169C11.7646 17.9495 11.7291 17.858 11.7291 17.7626C11.7289 17.7106 11.7389 17.6591 11.7584 17.6115L13.4201 13.7702C13.4453 13.7059 13.4877 13.6508 13.5419 13.6119C13.5961 13.573 13.6597 13.5519 13.7251 13.5513H29.2191C29.2835 13.5513 29.3466 13.5712 29.4008 13.6087C29.4549 13.6461 29.4977 13.6995 29.5241 13.7624L31.1857 17.6037C31.2041 17.6466 31.2145 17.693 31.2161 17.7402C31.2177 17.7874 31.2107 17.8345 31.1953 17.8788C31.1798 17.9231 31.1564 17.9637 31.1263 17.9983C31.0962 18.033 31.06 18.0609 31.0198 18.0806C30.9763 18.1062 30.9278 18.1205 30.8783 18.1223ZM13.7251 13.692C13.6838 13.6925 13.6436 13.7055 13.609 13.7295C13.5744 13.7534 13.547 13.7875 13.5298 13.8275L11.8707 17.6688C11.8567 17.6987 11.85 17.7319 11.8511 17.7652C11.8508 17.7954 11.8561 17.8254 11.8668 17.8534C11.8775 17.8814 11.8933 17.9068 11.9133 17.9282C11.9333 17.9495 11.9571 17.9664 11.9833 17.9778C12.0095 17.9892 12.0376 17.9949 12.0658 17.9946H30.8783C30.9094 17.9944 30.9401 17.9873 30.9685 17.9737C30.9942 17.9611 31.0173 17.9432 31.0365 17.921C31.0556 17.8988 31.0705 17.8728 31.0803 17.8445C31.09 17.8162 31.0944 17.7861 31.0933 17.7559C31.0921 17.7258 31.0854 17.6962 31.0735 17.6688L29.4143 13.8275C29.3971 13.7875 29.3697 13.7534 29.3351 13.7295C29.3005 13.7055 29.2603 13.6925 29.2191 13.692H13.7251ZM30.5415 17.5333H12.4026L13.8666 14.1454H29.0824L30.5415 17.5333ZM12.5929 17.403H30.3512L29.0019 14.2757H13.9422L12.5929 17.403Z" fill="#A92539"/>
<path d="M13.4201 21.6039C12.9906 21.6033 12.5789 21.4207 12.2752 21.0964C11.9715 20.772 11.8006 20.3323 11.7999 19.8736V17.7627C11.7979 17.6851 11.8248 17.6097 11.8746 17.5531C11.9244 17.4965 11.9932 17.4632 12.0659 17.4604H14.7499C14.8236 17.4604 14.8944 17.4917 14.9466 17.5475C14.9987 17.6032 15.028 17.6787 15.028 17.7575V19.8684C15.0281 20.3255 14.8592 20.7642 14.5581 21.0892C14.2571 21.4142 13.8481 21.5991 13.4201 21.6039ZM12.3513 18.0572V19.8814C12.3645 20.1743 12.4827 20.4507 12.6814 20.653C12.8802 20.8554 13.1442 20.9683 13.4188 20.9683C13.6935 20.9683 13.9575 20.8554 14.1563 20.653C14.355 20.4507 14.4732 20.1743 14.4864 19.8814V18.0572H12.3513Z" fill="#A92539"/>
<path d="M13.4201 21.6689C12.9746 21.6676 12.5477 21.478 12.2327 21.1415C11.9177 20.8051 11.7402 20.3492 11.7389 19.8734V17.7626C11.7386 17.7152 11.7471 17.6681 11.7638 17.6242C11.7806 17.5803 11.8054 17.5403 11.8367 17.5066C11.868 17.473 11.9052 17.4462 11.9462 17.428C11.9872 17.4098 12.0312 17.4004 12.0756 17.4004H14.7596C14.8496 17.4004 14.9359 17.4386 14.9995 17.5065C15.0631 17.5744 15.0988 17.6666 15.0988 17.7626V19.8734C15.0969 20.3486 14.9195 20.8037 14.6051 21.1399C14.2908 21.4761 13.8649 21.6662 13.4201 21.6689ZM12.0756 17.5307C12.0472 17.5307 12.0191 17.5367 11.9929 17.5484C11.9667 17.5601 11.9429 17.5772 11.9229 17.5988C11.903 17.6203 11.8872 17.6459 11.8766 17.6741C11.8659 17.7022 11.8606 17.7323 11.8609 17.7626V19.8734C11.8609 20.3151 12.0252 20.7386 12.3176 21.0509C12.61 21.3632 13.0066 21.5386 13.4201 21.5386C13.8336 21.5386 14.2302 21.3632 14.5226 21.0509C14.815 20.7386 14.9792 20.3151 14.9792 19.8734V17.7626C14.9792 17.7011 14.9564 17.6421 14.9156 17.5986C14.8749 17.5551 14.8197 17.5307 14.7621 17.5307H12.0756ZM13.4201 21.0774C13.1209 21.0774 12.8339 20.9506 12.6221 20.7249C12.4103 20.4992 12.291 20.193 12.2904 19.8734V17.9815H14.5474V19.863C14.5486 20.022 14.5204 20.1797 14.4644 20.327C14.4083 20.4742 14.3255 20.6082 14.2207 20.7211C14.1159 20.834 13.9911 20.9236 13.8537 20.9848C13.7163 21.0459 13.5689 21.0774 13.4201 21.0774ZM12.4124 18.1222V19.8734C12.4251 20.1494 12.5367 20.4095 12.724 20.6C12.9114 20.7905 13.1602 20.8968 13.4189 20.8968C13.6775 20.8968 13.9263 20.7905 14.1137 20.6C14.301 20.4095 14.4126 20.1494 14.4254 19.8734V18.1222H12.4124Z" fill="#A92539"/>
<path d="M16.1041 21.6039C15.6746 21.6033 15.2628 21.4207 14.9591 21.0964C14.6554 20.772 14.4845 20.3323 14.4839 19.8736V17.7627C14.4826 17.6848 14.51 17.6095 14.5602 17.5529C14.6104 17.4964 14.6794 17.4632 14.7523 17.4604H17.4363C17.5096 17.4611 17.5798 17.4927 17.6314 17.5484C17.6831 17.604 17.712 17.6792 17.712 17.7575V19.8684C17.7127 20.3257 17.544 20.7648 17.2428 21.0899C16.9416 21.4151 16.5323 21.5998 16.1041 21.6039ZM15.0305 18.0572V19.8814C15.0305 20.0309 15.058 20.179 15.1116 20.3172C15.1652 20.4554 15.2438 20.5809 15.3428 20.6867C15.4418 20.7924 15.5593 20.8763 15.6887 20.9335C15.8181 20.9907 15.9567 21.0202 16.0967 21.0202C16.2368 21.0202 16.3754 20.9907 16.5048 20.9335C16.6342 20.8763 16.7517 20.7924 16.8507 20.6867C16.9497 20.5809 17.0283 20.4554 17.0819 20.3172C17.1354 20.179 17.163 20.0309 17.163 19.8814V18.0572H15.0305Z" fill="#A92539"/>
<path d="M16.1041 21.6689C15.6588 21.6669 15.2323 21.4771 14.9175 21.1408C14.6026 20.8045 14.4248 20.349 14.4229 19.8734V17.7626C14.4226 17.7152 14.4311 17.6681 14.4478 17.6242C14.4646 17.5803 14.4894 17.5403 14.5207 17.5066C14.552 17.473 14.5892 17.4462 14.6302 17.428C14.6712 17.4098 14.7152 17.4004 14.7596 17.4004H17.4436C17.4881 17.4004 17.5321 17.4098 17.5731 17.428C17.6141 17.4462 17.6513 17.473 17.6826 17.5066C17.7139 17.5403 17.7387 17.5803 17.7554 17.6242C17.7722 17.6681 17.7807 17.7152 17.7804 17.7626V19.8734C17.7791 20.3483 17.6022 20.8034 17.2883 21.1397C16.9743 21.476 16.5487 21.6662 16.1041 21.6689ZM14.7596 17.5307C14.7025 17.5314 14.6479 17.5561 14.6077 17.5995C14.5675 17.643 14.5449 17.7016 14.5449 17.7626V19.8734C14.5449 20.0921 14.5853 20.3087 14.6636 20.5107C14.742 20.7127 14.8568 20.8963 15.0016 21.0509C15.1464 21.2055 15.3183 21.3282 15.5074 21.4119C15.6966 21.4956 15.8993 21.5386 16.1041 21.5386C16.3088 21.5386 16.5116 21.4956 16.7008 21.4119C16.8899 21.3282 17.0618 21.2055 17.2066 21.0509C17.3514 20.8963 17.4662 20.7127 17.5446 20.5107C17.6229 20.3087 17.6633 20.0921 17.6633 19.8734V17.7626C17.6633 17.7016 17.6407 17.643 17.6005 17.5995C17.5603 17.5561 17.5057 17.5314 17.4485 17.5307H14.7596ZM16.1041 21.0774C15.956 21.0777 15.8092 21.0468 15.6723 20.9864C15.5354 20.9261 15.411 20.8374 15.3063 20.7255C15.2015 20.6137 15.1185 20.4808 15.062 20.3346C15.0054 20.1884 14.9765 20.0316 14.9768 19.8734V17.9815H17.2314V19.863C17.2307 20.1821 17.1118 20.4879 16.9005 20.7136C16.6892 20.9392 16.4029 21.0663 16.1041 21.067V21.0774ZM15.0988 18.1222V19.8734C15.0994 20.158 15.2056 20.4307 15.394 20.6319C15.5823 20.8331 15.8377 20.9464 16.1041 20.9471C16.3705 20.9464 16.6258 20.8331 16.8142 20.6319C17.0026 20.4307 17.1087 20.158 17.1094 19.8734V18.1222H15.0988Z" fill="#A92539"/>
<path d="M18.788 21.6039C18.3583 21.6033 17.9463 21.4208 17.6423 21.0965C17.3382 20.7722 17.1667 20.3325 17.1654 19.8735V17.7627C17.1654 17.6839 17.1947 17.6083 17.2469 17.5526C17.2991 17.4969 17.3698 17.4656 17.4436 17.4656H20.1276C20.2014 17.4656 20.2721 17.4969 20.3243 17.5526C20.3764 17.6083 20.4057 17.6839 20.4057 17.7627V19.8735C20.4045 20.3316 20.2337 20.7705 19.9307 21.0947C19.6276 21.4188 19.2169 21.6019 18.788 21.6039ZM17.7193 18.0571V19.8814C17.7324 20.1743 17.8506 20.4506 18.0494 20.653C18.2481 20.8554 18.5122 20.9683 18.7868 20.9683C19.0614 20.9683 19.3255 20.8554 19.5242 20.653C19.723 20.4506 19.8412 20.1743 19.8543 19.8814V18.0571H17.7193Z" fill="#A92539"/>
<path d="M18.788 21.6689C18.3423 21.6676 17.9152 21.478 17.5998 21.1417C17.2845 20.8053 17.1064 20.3495 17.1044 19.8734V17.7626C17.1044 17.6666 17.1402 17.5744 17.2038 17.5065C17.2674 17.4386 17.3537 17.4004 17.4436 17.4004H20.1276C20.2176 17.4004 20.3038 17.4386 20.3674 17.5065C20.431 17.5744 20.4668 17.6666 20.4668 17.7626V19.8734C20.4648 20.3486 20.2874 20.8037 19.9731 21.1399C19.6588 21.4761 19.2329 21.6662 18.788 21.6689ZM17.4436 17.5307C17.386 17.5307 17.3308 17.5551 17.2901 17.5986C17.2493 17.6421 17.2264 17.7011 17.2264 17.7626V19.8734C17.2424 20.304 17.4138 20.7113 17.7046 21.0099C17.9955 21.3086 18.3834 21.4753 18.7868 21.4753C19.1903 21.4753 19.5781 21.3086 19.869 21.0099C20.1599 20.7113 20.3313 20.304 20.3472 19.8734V17.7626C20.3472 17.7011 20.3243 17.6421 20.2836 17.5986C20.2429 17.5551 20.1876 17.5307 20.13 17.5307H17.4436ZM18.788 21.0774C18.4888 21.0774 18.2019 20.9506 17.9901 20.7249C17.7783 20.4992 17.659 20.193 17.6583 19.8734V17.9815H19.9153V19.863C19.9166 20.022 19.8884 20.1797 19.8323 20.327C19.7763 20.4742 19.6934 20.6082 19.5886 20.7211C19.4838 20.834 19.3591 20.9236 19.2217 20.9848C19.0843 21.0459 18.9369 21.0774 18.788 21.0774ZM17.7803 18.1222V19.8734C17.7931 20.1494 17.9046 20.4095 18.092 20.6C18.2794 20.7905 18.5281 20.8968 18.7868 20.8968C19.0455 20.8968 19.2943 20.7905 19.4816 20.6C19.669 20.4095 19.7806 20.1494 19.7933 19.8734V18.1222H17.7803Z" fill="#A92539"/>
<path d="M21.472 21.6039C21.0425 21.6033 20.6308 21.4207 20.3271 21.0964C20.0234 20.772 19.8525 20.3323 19.8519 19.8735V17.7627C19.8519 17.6843 19.8808 17.6091 19.9325 17.5535C19.9841 17.4979 20.0542 17.4663 20.1276 17.4656H22.8116C22.8849 17.4663 22.9551 17.4979 23.0067 17.5535C23.0583 17.6091 23.0873 17.6843 23.0873 17.7627V19.8735C23.0867 20.3314 22.9164 20.7703 22.6138 21.0945C22.3111 21.4187 21.9007 21.6019 21.472 21.6039ZM20.4057 18.0571V19.8814C20.4057 20.1834 20.5181 20.4731 20.7181 20.6866C20.918 20.9002 21.1892 21.0202 21.472 21.0202C21.7548 21.0202 22.026 20.9002 22.226 20.6866C22.426 20.4731 22.5383 20.1834 22.5383 19.8814V18.0571H20.4057Z" fill="#A92539"/>
<path d="M21.4721 21.6689C21.0266 21.6676 20.5997 21.478 20.2847 21.1415C19.9697 20.8051 19.7922 20.3492 19.7909 19.8734V17.7626C19.7906 17.7152 19.7991 17.6681 19.8158 17.6242C19.8326 17.5803 19.8574 17.5403 19.8887 17.5066C19.92 17.473 19.9572 17.4462 19.9982 17.428C20.0392 17.4098 20.0832 17.4004 20.1276 17.4004H22.8116C22.8561 17.4004 22.9001 17.4098 22.9411 17.428C22.9821 17.4462 23.0193 17.473 23.0506 17.5066C23.0819 17.5403 23.1067 17.5803 23.1234 17.6242C23.1402 17.6681 23.1487 17.7152 23.1484 17.7626V19.8734C23.1465 20.3481 22.9694 20.8028 22.6556 21.139C22.3418 21.4751 21.9165 21.6655 21.4721 21.6689ZM20.1276 17.5307C20.0705 17.5314 20.0159 17.5561 19.9757 17.5995C19.9355 17.643 19.9129 17.7016 19.9129 17.7626V19.8734C19.9129 20.0921 19.9532 20.3087 20.0316 20.5107C20.11 20.7127 20.2248 20.8963 20.3696 21.0509C20.5144 21.2055 20.6862 21.3282 20.8754 21.4119C21.0646 21.4956 21.2673 21.5386 21.4721 21.5386C21.6768 21.5386 21.8796 21.4956 22.0688 21.4119C22.2579 21.3282 22.4298 21.2055 22.5746 21.0509C22.7194 20.8963 22.8342 20.7127 22.9126 20.5107C22.9909 20.3087 23.0312 20.0921 23.0312 19.8734V17.7626C23.0313 17.7016 23.0087 17.643 22.9685 17.5995C22.9283 17.5561 22.8737 17.5314 22.8165 17.5307H20.1276ZM21.4721 21.0774C21.324 21.0774 21.1775 21.0463 21.0407 20.9857C20.9039 20.9252 20.7797 20.8366 20.675 20.7248C20.5703 20.613 20.4873 20.4802 20.4306 20.3342C20.374 20.1881 20.3448 20.0315 20.3448 19.8734V17.9815H22.5994V19.863C22.6007 20.022 22.5725 20.1797 22.5164 20.327C22.4603 20.4742 22.3775 20.6082 22.2727 20.7211C22.1679 20.834 22.0431 20.9236 21.9057 20.9848C21.7683 21.0459 21.6209 21.0774 21.4721 21.0774ZM20.4668 18.1222V19.8734C20.4668 20.1582 20.5727 20.4313 20.7612 20.6326C20.9498 20.834 21.2055 20.9471 21.4721 20.9471C21.7387 20.9471 21.9944 20.834 22.1829 20.6326C22.3715 20.4313 22.4774 20.1582 22.4774 19.8734V18.1222H20.4668Z" fill="#A92539"/>
<path d="M24.156 21.6039C23.7267 21.6026 23.3154 21.4198 23.0118 21.0956C22.7083 20.7714 22.5372 20.3321 22.5359 19.8735V17.7627C22.5359 17.6839 22.5652 17.6083 22.6174 17.5526C22.6695 17.4969 22.7403 17.4656 22.814 17.4656H25.498C25.5345 17.4656 25.5705 17.4733 25.6041 17.4882C25.6377 17.5032 25.6682 17.5251 25.6939 17.5527C25.7195 17.5804 25.7398 17.6131 25.7535 17.6492C25.7672 17.6852 25.7741 17.7238 25.7738 17.7627V19.8735C25.7731 20.3318 25.6026 20.7712 25.2994 21.0954C24.9962 21.4197 24.5851 21.6026 24.156 21.6039ZM23.0898 18.0571V19.8814C23.1029 20.1743 23.2211 20.4506 23.4198 20.653C23.6186 20.8554 23.8827 20.9683 24.1573 20.9683C24.4319 20.9683 24.6959 20.8554 24.8947 20.653C25.0935 20.4506 25.2116 20.1743 25.2248 19.8814V18.0571H23.0898Z" fill="#A92539"/>
<path d="M24.156 21.6689C23.7108 21.6669 23.2843 21.4771 22.9694 21.1408C22.6545 20.8045 22.4768 20.349 22.4749 19.8734V17.7626C22.4749 17.6666 22.5106 17.5744 22.5742 17.5065C22.6378 17.4386 22.7241 17.4004 22.814 17.4004H25.498C25.5425 17.4004 25.5865 17.4098 25.6275 17.428C25.6685 17.4462 25.7057 17.473 25.737 17.5066C25.7683 17.5403 25.7931 17.5803 25.8098 17.6242C25.8266 17.6681 25.8351 17.7152 25.8348 17.7626V19.8734C25.8335 20.3488 25.6563 20.8043 25.3418 21.1406C25.0273 21.477 24.6011 21.6669 24.156 21.6689ZM22.814 17.5307C22.7564 17.5307 22.7012 17.5551 22.6605 17.5986C22.6198 17.6421 22.5969 17.7011 22.5969 17.7626V19.8734C22.5969 20.3151 22.7611 20.7386 23.0535 21.0509C23.3459 21.3632 23.7425 21.5386 24.156 21.5386C24.5696 21.5386 24.9661 21.3632 25.2585 21.0509C25.5509 20.7386 25.7152 20.3151 25.7152 19.8734V17.7626C25.7155 17.7323 25.7102 17.7022 25.6996 17.6741C25.6889 17.6459 25.6732 17.6203 25.6532 17.5988C25.6332 17.5772 25.6094 17.5601 25.5832 17.5484C25.557 17.5367 25.5289 17.5307 25.5005 17.5307H22.814ZM24.156 21.0774C23.8571 21.0774 23.5703 20.9505 23.3589 20.7248C23.1475 20.499 23.0288 20.1928 23.0288 19.8734V17.9815H25.2858V19.863C25.2867 20.0221 25.2582 20.1799 25.2019 20.3271C25.1455 20.4744 25.0625 20.6084 24.9575 20.7212C24.8525 20.8341 24.7276 20.9237 24.5901 20.9848C24.4525 21.0459 24.305 21.0774 24.156 21.0774ZM23.1508 18.1222V19.8734C23.1635 20.1494 23.2751 20.4095 23.4624 20.6C23.6498 20.7905 23.8986 20.8968 24.1573 20.8968C24.4159 20.8968 24.6647 20.7905 24.8521 20.6C25.0394 20.4095 25.151 20.1494 25.1638 19.8734V18.1222H23.1508Z" fill="#A92539"/>
<path d="M26.84 21.6039C26.4105 21.6033 25.9988 21.4207 25.6951 21.0964C25.3914 20.772 25.2205 20.3323 25.2199 19.8735V17.7627C25.2199 17.6843 25.2488 17.6091 25.3005 17.5535C25.3521 17.4979 25.4222 17.4663 25.4956 17.4656H28.1796C28.2529 17.4663 28.323 17.4979 28.3747 17.5535C28.4263 17.6091 28.4553 17.6843 28.4553 17.7627V19.8735C28.4547 20.3314 28.2844 20.7703 27.9818 21.0945C27.6791 21.4187 27.2687 21.6019 26.84 21.6039ZM25.7713 18.0571V19.8814C25.7844 20.1743 25.9026 20.4506 26.1014 20.653C26.3001 20.8554 26.5642 20.9683 26.8388 20.9683C27.1134 20.9683 27.3775 20.8554 27.5762 20.653C27.775 20.4506 27.8932 20.1743 27.9063 19.8814V18.0571H25.7713Z" fill="#A92539"/>
<path d="M26.84 21.6689C26.3946 21.6676 25.9677 21.478 25.6527 21.1415C25.3377 20.8051 25.1602 20.3492 25.1589 19.8734V17.7626C25.1585 17.7152 25.167 17.6681 25.1838 17.6242C25.2006 17.5803 25.2253 17.5403 25.2566 17.5066C25.2879 17.473 25.3252 17.4462 25.3662 17.428C25.4072 17.4098 25.4512 17.4004 25.4956 17.4004H28.1796C28.224 17.4004 28.268 17.4098 28.309 17.428C28.35 17.4462 28.3873 17.473 28.4186 17.5066C28.4499 17.5403 28.4746 17.5803 28.4914 17.6242C28.5082 17.6681 28.5166 17.7152 28.5163 17.7626V19.8734C28.5144 20.3481 28.3373 20.8028 28.0235 21.139C27.7097 21.4751 27.2845 21.6655 26.84 21.6689ZM25.4956 17.5307C25.4672 17.5307 25.4391 17.5367 25.4129 17.5484C25.3866 17.5601 25.3629 17.5772 25.3429 17.5988C25.3229 17.6203 25.3072 17.6459 25.2965 17.6741C25.2859 17.7022 25.2805 17.7323 25.2809 17.7626V19.8734C25.2809 20.0921 25.3212 20.3087 25.3996 20.5107C25.4779 20.7127 25.5928 20.8963 25.7375 21.0509C25.8823 21.2055 26.0542 21.3282 26.2434 21.4119C26.4325 21.4956 26.6353 21.5386 26.84 21.5386C27.0448 21.5386 27.2475 21.4956 27.4367 21.4119C27.6259 21.3282 27.7977 21.2055 27.9425 21.0509C28.0873 20.8963 28.2022 20.7127 28.2805 20.5107C28.3589 20.3087 28.3992 20.0921 28.3992 19.8734V17.7626C28.3992 17.7016 28.3767 17.643 28.3365 17.5995C28.2963 17.5561 28.2416 17.5314 28.1845 17.5307H25.4956ZM26.84 21.0774C26.5408 21.0774 26.2539 20.9506 26.0421 20.7249C25.8303 20.4992 25.711 20.193 25.7103 19.8734V17.9815H27.9673V19.863C27.9686 20.022 27.9404 20.1797 27.8843 20.327C27.8283 20.4742 27.7454 20.6082 27.6406 20.7211C27.5358 20.834 27.4111 20.9236 27.2737 20.9848C27.1363 21.0459 26.9889 21.0774 26.84 21.0774ZM25.8323 18.1222V19.8734C25.845 20.1494 25.9566 20.4095 26.144 20.6C26.3314 20.7905 26.5801 20.8968 26.8388 20.8968C27.0975 20.8968 27.3463 20.7905 27.5336 20.6C27.721 20.4095 27.8326 20.1494 27.8453 19.8734V18.1222H25.8323Z" fill="#A92539"/>
<path d="M29.524 21.6039C29.0947 21.6026 28.6834 21.4198 28.3798 21.0956C28.0763 20.7714 27.9052 20.3321 27.9039 19.8735V17.7627C27.9039 17.6839 27.9332 17.6083 27.9854 17.5526C28.0375 17.4969 28.1083 17.4656 28.182 17.4656H30.866C30.9025 17.4656 30.9385 17.4733 30.9721 17.4882C31.0057 17.5032 31.0362 17.5251 31.0619 17.5527C31.0875 17.5804 31.1078 17.6131 31.1215 17.6492C31.1352 17.6852 31.1421 17.7238 31.1418 17.7627V19.8735C31.1411 20.3318 30.9705 20.7712 30.6674 21.0954C30.3642 21.4197 29.9531 21.6026 29.524 21.6039ZM28.4578 18.0571V19.8814C28.4709 20.1743 28.5891 20.4506 28.7878 20.653C28.9866 20.8554 29.2507 20.9683 29.5253 20.9683C29.7999 20.9683 30.0639 20.8554 30.2627 20.653C30.4614 20.4506 30.5796 20.1743 30.5928 19.8814V18.0571H28.4578Z" fill="#A92539"/>
<path d="M29.524 21.6689C29.0787 21.6669 28.6523 21.4771 28.3374 21.1408C28.0225 20.8045 27.8448 20.349 27.8429 19.8734V17.7626C27.8429 17.6666 27.8786 17.5744 27.9422 17.5065C28.0058 17.4386 28.0921 17.4004 28.182 17.4004H30.866C30.9105 17.4004 30.9544 17.4098 30.9955 17.428C31.0365 17.4462 31.0737 17.473 31.105 17.5066C31.1363 17.5403 31.161 17.5803 31.1778 17.6242C31.1946 17.6681 31.2031 17.7152 31.2027 17.7626V19.8734C31.2015 20.3488 31.0243 20.8043 30.7098 21.1406C30.3953 21.477 29.9691 21.6669 29.524 21.6689ZM28.182 17.5307C28.1244 17.5307 28.0692 17.5551 28.0285 17.5986C27.9877 17.6421 27.9649 17.7011 27.9649 17.7626V19.8734C27.9649 20.3151 28.1291 20.7386 28.4215 21.0509C28.7139 21.3632 29.1105 21.5386 29.524 21.5386C29.9375 21.5386 30.3341 21.3632 30.6265 21.0509C30.9189 20.7386 31.0832 20.3151 31.0832 19.8734V17.7626C31.0835 17.7323 31.0782 17.7022 31.0676 17.6741C31.0569 17.6459 31.0411 17.6203 31.0212 17.5988C31.0012 17.5772 30.9774 17.5601 30.9512 17.5484C30.925 17.5367 30.8969 17.5307 30.8685 17.5307H28.182ZM29.524 21.0774C29.2251 21.0774 28.9383 20.9505 28.7269 20.7248C28.5155 20.499 28.3967 20.1928 28.3967 19.8734V17.9815H30.6537V19.863C30.6547 20.0221 30.6262 20.1799 30.5699 20.3271C30.5135 20.4744 30.4305 20.6084 30.3255 20.7212C30.2205 20.8341 30.0956 20.9237 29.958 20.9848C29.8205 21.0459 29.673 21.0774 29.524 21.0774ZM28.5187 18.1222V19.8734C28.5315 20.1494 28.6431 20.4095 28.8304 20.6C29.0178 20.7905 29.2666 20.8968 29.5252 20.8968C29.7839 20.8968 30.0327 20.7905 30.2201 20.6C30.4074 20.4095 30.519 20.1494 30.5317 19.8734V18.1222H28.5187Z" fill="#A92539"/>
<path d="M30.0486 32.2417H12.871C12.7973 32.2417 12.7265 32.2104 12.6743 32.1547C12.6222 32.099 12.5929 32.0234 12.5929 31.9446V20.9993H13.1467V31.6371H29.768V21.0123H30.3195V31.9576C30.317 32.033 30.2875 32.1045 30.2371 32.1574C30.1867 32.2102 30.1193 32.2404 30.0486 32.2417Z" fill="#A92539"/>
<path d="M30.0486 32.3147H12.871C12.7811 32.3147 12.6948 32.2765 12.6312 32.2086C12.5676 32.1407 12.5319 32.0485 12.5319 31.9525V20.955H13.2077V31.585H29.7119V20.9471H30.3854V31.9446C30.3867 31.9927 30.3789 32.0406 30.3626 32.0855C30.3462 32.1303 30.3217 32.1712 30.2903 32.2057C30.2589 32.2402 30.2213 32.2676 30.1798 32.2864C30.1383 32.3051 30.0937 32.3147 30.0486 32.3147ZM12.6539 21.0774V31.9446C12.6539 32.0062 12.6767 32.0651 12.7175 32.1086C12.7582 32.1521 12.8134 32.1766 12.871 32.1766H30.0486C30.077 32.1766 30.1052 32.1706 30.1314 32.1589C30.1576 32.1472 30.1814 32.1301 30.2013 32.1085C30.2213 32.0869 30.2371 32.0613 30.2477 32.0332C30.2584 32.0051 30.2637 31.975 30.2634 31.9446V21.0774H29.8339V31.7153H13.0857V21.0774H12.6539Z" fill="#A92539"/>
<path d="M27.8356 32.2416H23.1313C23.0579 32.241 22.9878 32.2093 22.9362 32.1537C22.8845 32.0981 22.8555 32.0229 22.8555 31.9446V23.6705C22.8562 23.5926 22.8854 23.5181 22.937 23.463C22.9886 23.4079 23.0583 23.3767 23.1313 23.376H27.8356C27.9085 23.3767 27.9783 23.4079 28.0298 23.463C28.0814 23.5181 28.1107 23.5926 28.1113 23.6705V31.9446C28.1113 32.0229 28.0823 32.0981 28.0307 32.1537C27.979 32.2093 27.9089 32.241 27.8356 32.2416ZM23.4094 31.6501H27.5574V23.9754H23.4094V31.6501Z" fill="#A92539"/>
<path d="M27.8356 32.3146H23.1313C23.0868 32.3146 23.0429 32.3052 23.0018 32.287C22.9608 32.2687 22.9236 32.242 22.8923 32.2083C22.861 32.1747 22.8363 32.1347 22.8195 32.0908C22.8027 32.0468 22.7942 31.9998 22.7945 31.9523V23.6704C22.7945 23.575 22.83 23.4836 22.8932 23.4161C22.9563 23.3487 23.042 23.3108 23.1313 23.3108H27.8356C27.9249 23.3108 28.0105 23.3487 28.0737 23.4161C28.1368 23.4836 28.1723 23.575 28.1723 23.6704V31.9445C28.1736 31.9926 28.1659 32.0405 28.1495 32.0853C28.1332 32.1302 28.1086 32.1711 28.0772 32.2056C28.0458 32.2401 28.0082 32.2675 27.9667 32.2862C27.9252 32.305 27.8806 32.3146 27.8356 32.3146ZM23.1313 23.4541C23.0745 23.4548 23.0203 23.4792 22.9801 23.522C22.94 23.5649 22.9172 23.6228 22.9165 23.6835V31.9576C22.9165 32.0186 22.9391 32.0772 22.9793 32.1206C23.0195 32.1641 23.0741 32.1888 23.1313 32.1895H27.8356C27.864 32.1895 27.8921 32.1835 27.9183 32.1718C27.9445 32.1601 27.9683 32.143 27.9883 32.1214C28.0083 32.0998 28.024 32.0742 28.0347 32.0461C28.0453 32.018 28.0506 31.9879 28.0503 31.9576V23.6704C28.0503 23.6096 28.0277 23.5513 27.9874 23.5083C27.9472 23.4653 27.8925 23.4411 27.8356 23.4411L23.1313 23.4541ZM27.6184 31.7282H23.3484V23.9102H27.6184V31.7282ZM23.4704 31.5979H27.4964V24.0405H23.4704V31.5979Z" fill="#A92539"/>
<path d="M21.472 29.7296H14.5546C14.4813 29.7289 14.4111 29.6973 14.3595 29.6416C14.3079 29.586 14.2789 29.5108 14.2789 29.4325V23.5246C14.2789 23.4463 14.3079 23.3711 14.3595 23.3155C14.4111 23.2598 14.4813 23.2282 14.5546 23.2275H21.472C21.5084 23.2275 21.5445 23.2352 21.5781 23.2502C21.6117 23.2652 21.6422 23.2871 21.6679 23.3147C21.6935 23.3423 21.7138 23.3751 21.7275 23.4111C21.7412 23.4472 21.7481 23.4857 21.7477 23.5246V29.4325C21.7481 29.4714 21.7412 29.5099 21.7275 29.546C21.7138 29.582 21.6935 29.6148 21.6679 29.6424C21.6422 29.67 21.6117 29.6919 21.5781 29.7069C21.5445 29.7219 21.5084 29.7296 21.472 29.7296ZM14.8328 29.138H21.1963V23.8191H14.8328V29.138Z" fill="#A92539"/>
<path d="M21.472 29.7947H14.5546C14.5102 29.7947 14.4662 29.7853 14.4252 29.7671C14.3842 29.7489 14.347 29.7222 14.3157 29.6885C14.2844 29.6548 14.2596 29.6149 14.2428 29.5709C14.2261 29.527 14.2176 29.4799 14.2179 29.4325V23.5246C14.2176 23.4771 14.2261 23.4301 14.2428 23.3862C14.2596 23.3422 14.2844 23.3023 14.3157 23.2686C14.347 23.2349 14.3842 23.2082 14.4252 23.19C14.4662 23.1717 14.5102 23.1624 14.5546 23.1624H21.472C21.5165 23.1624 21.5605 23.1717 21.6015 23.19C21.6425 23.2082 21.6797 23.2349 21.711 23.2686C21.7423 23.3023 21.7671 23.3422 21.7838 23.3862C21.8006 23.4301 21.8091 23.4771 21.8088 23.5246V29.4325C21.8091 29.4799 21.8006 29.527 21.7838 29.5709C21.7671 29.6149 21.7423 29.6548 21.711 29.6885C21.6797 29.7222 21.6425 29.7489 21.6015 29.7671C21.5605 29.7853 21.5165 29.7947 21.472 29.7947ZM14.5546 23.2796C14.4975 23.2803 14.4429 23.3051 14.4027 23.3485C14.3625 23.3919 14.3399 23.4505 14.3399 23.5116V29.4195C14.3399 29.4805 14.3625 29.5391 14.4027 29.5826C14.4429 29.626 14.4975 29.6507 14.5546 29.6514H21.472C21.5005 29.6514 21.5286 29.6454 21.5548 29.6337C21.581 29.622 21.6048 29.6049 21.6247 29.5833C21.6447 29.5617 21.6605 29.5362 21.6711 29.508C21.6818 29.4799 21.6871 29.4498 21.6868 29.4195V23.5246C21.6871 23.4943 21.6818 23.4642 21.6711 23.436C21.6605 23.4079 21.6447 23.3823 21.6247 23.3607C21.6048 23.3392 21.581 23.322 21.5548 23.3104C21.5286 23.2987 21.5005 23.2927 21.472 23.2927L14.5546 23.2796ZM21.2573 29.1901H14.7718V23.7539H21.2573V29.1901ZM14.884 29.0729H21.1256V23.8842H14.884V29.0729Z" fill="#A92539"/>
<path d="M21.472 45.8662C17.2253 45.8662 13.0739 44.5212 9.54281 42.0012C6.01175 39.4813 3.25963 35.8997 1.63447 31.7092C0.00930356 27.5187 -0.415914 22.9076 0.412588 18.4591C1.24109 14.0105 3.2861 9.9242 6.28901 6.71695C9.29193 3.5097 13.1179 1.32554 17.283 0.440663C21.4482 -0.444215 25.7655 0.00993662 29.689 1.74569C33.6125 3.48144 36.966 6.42082 39.3253 10.1921C41.6847 13.9635 42.944 18.3973 42.944 22.9331C42.9376 29.0132 40.6733 34.8423 36.6479 39.1416C32.6225 43.4409 27.1648 45.8593 21.472 45.8662ZM21.472 0.78182C17.37 0.78182 13.3602 2.08097 9.94948 4.51498C6.53881 6.94899 3.88051 10.4085 2.31075 14.4562C0.740987 18.5038 0.330266 22.9577 1.13052 27.2546C1.93078 31.5515 3.90607 35.4985 6.80661 38.5964C9.70716 41.6943 13.4027 43.804 17.4258 44.6587C21.449 45.5134 25.6191 45.0748 29.4089 43.3982C33.1986 41.7216 36.4378 38.8824 38.7167 35.2397C40.9956 31.5969 42.212 27.3142 42.212 22.9331C42.2056 17.0603 40.0184 11.4301 36.1303 7.27739C32.2422 3.12472 26.9706 0.788717 21.472 0.78182Z" fill="#A92539"/>
</svg>
