<svg width="44" height="46" viewBox="0 0 44 46" fill="none" xmlns="http://www.w3.org/2000/svg">
<path d="M18.29 22.5212C18.1861 22.5212 18.0864 22.5646 18.013 22.6418C17.9395 22.7191 17.8982 22.8238 17.8982 22.933V30.3602C17.8982 30.4694 17.9395 30.5742 18.013 30.6514C18.0864 30.7286 18.1861 30.772 18.29 30.772C18.394 30.772 18.4936 30.7286 18.5671 30.6514C18.6406 30.5742 18.6819 30.4694 18.6819 30.3602V22.933C18.6819 22.8238 18.6406 22.7191 18.5671 22.6418C18.4936 22.5646 18.394 22.5212 18.29 22.5212Z" fill="#A92539"/>
<path d="M31.2482 24.7912C31.2487 24.5494 31.2038 24.3098 31.1162 24.0862C31.0285 23.8626 30.8997 23.6594 30.7373 23.4882C30.9183 23.2777 31.0558 23.03 31.1411 22.7609C31.2265 22.4918 31.2579 22.207 31.2333 21.9245C31.1716 21.4021 30.9283 20.922 30.5501 20.5766C30.172 20.2312 29.6857 20.0449 29.1848 20.0534H24.3414C24.5894 19.2716 24.9663 17.88 24.9663 16.7516C24.9663 14.9612 23.518 13.4497 22.6103 13.4497C22.0977 13.4587 21.6004 13.6344 21.1868 13.9527C21.1404 13.9912 21.1029 14.0403 21.0771 14.0963C21.0513 14.1523 21.038 14.2136 21.038 14.2758V17.0747L18.7762 22.2242L18.682 22.2737V22.1148C18.682 22.0056 18.6407 21.9008 18.5672 21.8236C18.4937 21.7464 18.3941 21.703 18.2902 21.703H14.3643C13.8449 21.7037 13.3468 21.9203 12.9788 22.3055C12.6108 22.6908 12.4028 23.2134 12.4001 23.7592V30.3603C12.4008 30.9075 12.608 31.432 12.9762 31.819C13.3444 32.2059 13.8436 32.4236 14.3643 32.4243H16.7203C17.1244 32.4234 17.5185 32.2918 17.849 32.0475C18.1795 31.8033 18.4305 31.458 18.5679 31.0587C19.2165 31.3911 19.9249 31.575 20.6462 31.5981H27.8555C28.2633 31.6047 28.6612 31.4657 28.9842 31.204C29.3071 30.9422 29.5361 30.5732 29.6337 30.157C29.7242 29.7388 29.6743 29.3005 29.4923 28.9165C29.7837 28.7632 30.0287 28.5277 30.2 28.2364C30.3713 27.945 30.462 27.6093 30.462 27.2669C30.4635 26.9802 30.4006 26.6972 30.2785 26.4408C30.5697 26.2872 30.8146 26.0517 30.9858 25.7604C31.157 25.4691 31.2479 25.1336 31.2482 24.7912ZM29.5915 25.8075C29.5172 25.8169 29.4469 25.8484 29.3889 25.8982C29.3309 25.9481 29.2877 26.0142 29.2642 26.089C29.2403 26.1636 29.2375 26.2438 29.256 26.3201C29.2744 26.3964 29.3134 26.4654 29.3683 26.519C29.505 26.6525 29.6023 26.8246 29.6485 27.0146C29.6946 27.2047 29.6877 27.4047 29.6286 27.5907C29.5695 27.7768 29.4607 27.941 29.3152 28.0638C29.1696 28.1866 28.9935 28.2628 28.8078 28.2833C28.7333 28.2931 28.6629 28.3247 28.6046 28.3744C28.5463 28.4242 28.5025 28.4901 28.478 28.5647C28.4548 28.6394 28.4523 28.7195 28.4707 28.7956C28.4891 28.8717 28.5278 28.9408 28.5822 28.9947C28.7066 29.1168 28.7984 29.2711 28.8484 29.4421C28.8984 29.6131 28.905 29.7949 28.8674 29.9694C28.8064 30.1999 28.6735 30.4023 28.49 30.5441C28.3066 30.6858 28.0831 30.7588 27.8555 30.7512H20.6462C20.0088 30.7512 18.9399 30.4385 18.5679 30.0476C18.5129 29.9905 18.4431 29.9516 18.3673 29.9359C18.2915 29.9201 18.2129 29.9282 18.1414 29.9589C18.0682 29.9885 18.0053 30.0407 17.961 30.1087C17.9168 30.1766 17.8932 30.2571 17.8934 30.3394C17.8934 30.6677 17.7692 30.9826 17.5483 31.2147C17.3274 31.4469 17.0278 31.5773 16.7154 31.5773H14.3593C14.0469 31.5773 13.7473 31.4469 13.5264 31.2147C13.3055 30.9826 13.1813 30.6677 13.1813 30.3394V23.7592C13.1813 23.4309 13.3055 23.116 13.5264 22.8839C13.7473 22.6517 14.0469 22.5213 14.3593 22.5213H17.8934V22.9331C17.8931 23.0035 17.9101 23.0729 17.9427 23.1345C17.9752 23.1961 18.0223 23.2479 18.0794 23.2849C18.1366 23.321 18.2014 23.3416 18.2681 23.3448C18.3348 23.348 18.4012 23.3337 18.4613 23.3031L19.2474 22.8888C19.3267 22.8473 19.3898 22.7782 19.426 22.6933L21.782 17.3301C21.8066 17.2755 21.8193 17.2159 21.8192 17.1555V14.4921C22.0591 14.3491 22.3295 14.272 22.6054 14.268C23.0344 14.268 24.1752 15.3912 24.1752 16.7437C24.1752 18.1953 23.4312 20.2906 23.4163 20.3114C23.3932 20.3738 23.385 20.4411 23.3924 20.5076C23.3998 20.5741 23.4226 20.6376 23.4589 20.6927C23.4951 20.7477 23.5436 20.7926 23.6002 20.8234C23.6568 20.8541 23.7197 20.8698 23.7834 20.8691H29.1873C29.4928 20.8596 29.7908 20.969 30.0243 21.1763C30.2577 21.3836 30.41 21.6742 30.4521 21.9923C30.4722 22.2223 30.4306 22.4535 30.332 22.6599C30.2334 22.8663 30.0816 23.0395 29.8941 23.1598C29.8343 23.1975 29.7853 23.2517 29.7526 23.3164C29.7198 23.3811 29.7044 23.454 29.7081 23.5272C29.7109 23.6001 29.7318 23.671 29.7688 23.7327C29.8058 23.7945 29.8575 23.8449 29.9189 23.8791C30.1064 23.9781 30.2584 24.1383 30.3522 24.3356C30.4459 24.5329 30.4764 24.7569 30.439 24.9739C30.4016 25.1909 30.2983 25.3894 30.1447 25.5396C29.991 25.6899 29.7952 25.7839 29.5866 25.8075H29.5915Z" fill="#A92539"/>
<path d="M21.824 45.8662C17.5076 45.8662 13.2882 44.5212 9.69924 42.0012C6.11031 39.4813 3.31307 35.8997 1.66126 31.7092C0.00945607 27.5187 -0.422732 22.9076 0.419352 18.4591C1.26144 14.0105 3.33997 9.9242 6.39211 6.71695C9.44425 3.5097 13.3329 1.32554 17.5664 0.440663C21.7998 -0.444215 26.1879 0.00993662 30.1757 1.74569C34.1635 3.48144 37.572 6.42082 39.97 10.1921C42.3681 13.9635 43.648 18.3973 43.648 22.9331C43.6414 29.0132 41.34 34.8423 37.2487 39.1416C33.1573 43.4409 27.6101 45.8593 21.824 45.8662ZM21.824 0.78182C17.6548 0.78182 13.5792 2.08097 10.1126 4.51498C6.646 6.94899 3.94413 10.4085 2.34863 14.4562C0.753135 18.5038 0.33568 22.9577 1.14906 27.2546C1.96243 31.5515 3.97011 35.4985 6.9182 38.5964C9.86629 41.6943 13.6224 43.804 17.7115 44.6587C21.8006 45.5134 26.0391 45.0748 29.891 43.3982C33.7428 41.7216 37.0351 38.8824 39.3514 35.2397C41.6677 31.5969 42.904 27.3142 42.904 22.9331C42.8974 17.0603 40.6744 11.4301 36.7226 7.27739C32.7707 3.12472 27.4128 0.788717 21.824 0.78182Z" fill="#A92539"/>
</svg>
