<svg width="45" height="45" viewBox="0 0 45 45" fill="none" xmlns="http://www.w3.org/2000/svg">
<path d="M22.176 44.352C17.79 44.352 13.5025 43.0514 9.85568 40.6147C6.20886 38.1779 3.36651 34.7145 1.68806 30.6624C0.00960859 26.6103 -0.42955 22.1514 0.426116 17.8497C1.28178 13.548 3.39384 9.59658 6.49521 6.49521C9.59658 3.39384 13.548 1.28178 17.8497 0.426116C22.1514 -0.42955 26.6103 0.00960859 30.6624 1.68806C34.7145 3.36651 38.178 6.20886 40.6147 9.85568C43.0514 13.5025 44.352 17.79 44.352 22.176C44.3453 28.0554 42.0068 33.6921 37.8494 37.8494C33.6921 42.0068 28.0554 44.3453 22.176 44.352ZM22.176 0.75601C17.9395 0.75601 13.7982 2.01227 10.2757 4.36593C6.75319 6.71959 4.00774 10.0649 2.38651 13.9789C0.765282 17.8929 0.341094 22.1998 1.16759 26.3548C1.99408 30.5099 4.03414 34.3266 7.02978 37.3222C10.0254 40.3179 13.8421 42.3579 17.9972 43.1844C22.1522 44.0109 26.4591 43.5867 30.3731 41.9655C34.2871 40.3443 37.6324 37.5988 39.9861 34.0763C42.3397 30.5538 43.596 26.4125 43.596 22.176C43.5893 16.4971 41.3305 11.0527 37.3149 7.03715C33.2993 3.02156 27.8549 0.762679 22.176 0.75601Z" fill="#A92539"/>
<g clip-path="url(#clip0)">
<path d="M34.9174 23.7149C34.7863 23.5496 34.5464 23.522 34.3811 23.6529L33.6326 24.2466L27.5823 16.3029L31.0411 14.083C31.2185 13.9691 31.27 13.7331 31.1561 13.5557C31.0423 13.3783 30.8063 13.3269 30.6289 13.4407L26.8222 15.884C26.6375 16.0026 26.5915 16.2616 26.7247 16.4364L27.4175 17.346L26.9248 17.7231L24.969 17.0769C24.9308 17.0644 24.8896 17.0577 24.8493 17.0577H20.3718C20.1967 17.0577 20.0441 17.1769 20.0016 17.3467L19.7496 18.3545L19.1136 18.0868C19.0529 18.0612 18.9865 18.0518 18.9212 18.0594L17.1521 18.2666L16.551 17.9177L17.1228 16.9274C17.2267 16.7474 17.163 16.51 16.9831 16.4062L9.57244 12.1275C9.38978 12.0221 9.15644 12.0846 9.05118 12.2672C8.94581 12.4497 9.00832 12.6831 9.19082 12.7884L14.9986 16.1415L9.98621 24.8233L9.57244 24.5845C9.38978 24.479 9.15644 24.5416 9.05118 24.7241C8.94581 24.9066 9.00832 25.14 9.19082 25.2454L11.2074 26.4097C11.3876 26.5137 11.6249 26.4499 11.7287 26.27L12.0204 25.7647L12.8437 26.2037C12.5751 26.7243 12.6016 27.3741 12.9678 27.8801C13.2808 28.3127 13.7713 28.5427 14.2684 28.5427C14.4343 28.5427 14.6009 28.5168 14.762 28.4645C14.763 28.8052 14.8713 29.1328 15.0773 29.4063C15.3901 29.8218 15.8734 30.0419 16.3619 30.0419C16.5251 30.0419 16.6889 30.0173 16.8471 29.9671C16.8513 30.2856 16.9497 30.6059 17.1502 30.8829C17.4012 31.2298 17.7722 31.4581 18.1948 31.5259C18.2807 31.5397 18.3667 31.5465 18.4521 31.5465C18.6178 31.5465 18.7811 31.5207 18.9374 31.4705C18.942 31.7973 19.0459 32.1142 19.2415 32.3844C19.4924 32.7312 19.8634 32.9596 20.2861 33.0274C20.372 33.0412 20.458 33.048 20.5433 33.048C20.8779 33.048 21.2031 32.9433 21.4794 32.7433L22.3697 32.0991C22.5623 31.9598 22.7178 31.7837 22.83 31.5827L24.3962 32.4364C24.6349 32.5665 24.8966 32.6326 25.1611 32.6326C25.313 32.6326 25.466 32.6107 25.6159 32.5666C26.0266 32.4456 26.3656 32.1721 26.5704 31.7961C26.7301 31.5031 26.7931 31.1753 26.7559 30.8505C26.8517 30.8681 26.9481 30.8768 27.0442 30.8768C27.6123 30.8768 28.1636 30.5744 28.4542 30.0414C28.6176 29.7414 28.6745 29.4118 28.6386 29.0956C28.7347 29.1134 28.8314 29.1221 28.9277 29.1221C29.4959 29.122 30.0473 28.8196 30.3377 28.2866C30.4973 27.9938 30.5603 27.6662 30.5232 27.3416C30.6184 27.3593 30.7149 27.3684 30.8119 27.3684C30.964 27.3684 31.1169 27.3465 31.2668 27.3024C31.6774 27.1814 32.0164 26.9078 32.2213 26.5319C32.4263 26.156 32.4726 25.7229 32.3516 25.3121C32.3226 25.2134 32.2844 25.119 32.2385 25.0294L32.9078 24.5543L33.2614 25.0186C33.389 25.1861 33.6369 25.2173 33.8021 25.0864L34.8555 24.251C35.0206 24.12 35.0483 23.88 34.9174 23.7149ZM11.2586 25.558L10.6472 25.2049L15.6596 16.5232L16.271 16.8762L11.2586 25.558ZM14.7583 27.6207C14.3834 27.8921 13.8575 27.8078 13.5861 27.4328C13.3148 27.0577 13.3991 26.5318 13.7741 26.2604L16.4736 24.3072C16.6235 24.1988 16.796 24.1463 16.9668 24.1463C17.2181 24.1463 17.4656 24.26 17.6315 24.476C17.916 24.8465 17.8359 25.3938 17.458 25.6674L14.7583 27.6207ZM16.8495 29.1222C16.4816 29.3884 15.96 29.31 15.687 28.9473C15.4041 28.5717 15.5131 28.0167 15.8875 27.7458L17.9052 26.2859C17.9786 26.2369 18.0465 26.1854 18.1288 26.1505C18.2458 26.1008 18.374 26.0782 18.501 26.0853C18.7441 26.0988 18.9716 26.221 19.1197 26.4138C19.4042 26.7842 19.3241 27.3315 18.9462 27.6052L16.8495 29.1222ZM18.9407 30.6236C18.7591 30.7551 18.5371 30.808 18.3157 30.7724C18.0943 30.7369 17.8999 30.6172 17.7685 30.4355C17.4972 30.0607 17.5814 29.5351 17.9559 29.2637C17.9559 29.2637 19.3937 28.2234 19.3938 28.2233L19.4499 28.1827C19.8205 27.9146 20.3291 27.9887 20.6078 28.3515C20.8924 28.7221 20.8121 29.2695 20.4341 29.543L18.9407 30.6236ZM22.2608 30.9218C22.2279 31.1482 22.1076 31.3467 21.9222 31.4808L21.0319 32.125C20.661 32.3935 20.1277 32.3075 19.8597 31.937C19.5904 31.565 19.6782 31.0342 20.0477 30.7648L20.8815 30.1615L20.938 30.1206C21.3033 29.8563 21.8215 29.9321 22.0959 30.2894C22.2353 30.4708 22.2939 30.6954 22.2608 30.9218ZM31.5512 26.1666C31.3324 26.5681 30.8144 26.7212 30.4122 26.5019L26.0003 24.0972C25.8152 23.9964 25.5835 24.0646 25.4826 24.2496C25.3818 24.4347 25.45 24.6664 25.635 24.7673L29.3322 26.7825C29.7387 27.004 29.889 27.5149 29.6676 27.9214C29.446 28.3278 28.9351 28.4783 28.5286 28.2567L24.7773 26.212C24.5923 26.1112 24.3605 26.1794 24.2596 26.3645C24.1588 26.5495 24.227 26.7813 24.4121 26.8822L27.4492 28.5376C27.8551 28.7594 28.0053 29.2699 27.784 29.6762C27.5652 30.0776 27.0472 30.2308 26.645 30.0115L23.4654 28.2784C23.2802 28.1776 23.0485 28.2458 22.9477 28.4309C22.8468 28.6159 22.915 28.8477 23.1001 28.9486L25.5649 30.292C25.9664 30.5109 26.1194 31.0288 25.9002 31.431C25.6815 31.8325 25.1635 31.9855 24.7614 31.7663L23.0325 30.824C23.0386 30.4639 22.9245 30.1152 22.7012 29.8246C22.4014 29.4341 21.9622 29.2188 21.5092 29.1968C21.5164 29.163 21.523 29.1288 21.528 29.0942C21.5909 28.662 21.4792 28.2332 21.2131 27.8868C20.9133 27.4964 20.4741 27.2811 20.0211 27.2591C20.0283 27.2253 20.0348 27.1911 20.0398 27.1565C20.1028 26.7242 19.991 26.2955 19.725 25.949C19.4251 25.5586 18.9859 25.3434 18.533 25.3214C18.5401 25.2875 18.5467 25.2533 18.5517 25.2188C18.6147 24.7865 18.5029 24.3577 18.2369 24.0113C17.7049 23.3186 16.7337 23.1771 16.0262 23.6891L13.3631 25.6158L12.4022 25.1033L16.1694 18.5785L16.8787 18.9903C16.95 19.0317 17.0329 19.0488 17.1146 19.0393L18.9101 18.829L19.5622 19.1037L19.1874 20.603C19.1799 20.6333 19.1761 20.6644 19.1761 20.6956V23.9519C19.1761 25.0601 20.0777 25.9617 21.1858 25.9617C22.294 25.9617 23.1956 25.0601 23.1956 23.9519V20.805L23.2649 20.6941L31.2157 25.0277C31.6172 25.2465 31.7704 25.7643 31.5512 26.1666ZM31.7332 24.452C31.6845 24.4181 31.634 24.3863 31.5811 24.3575L23.6703 20.0456L23.9638 19.576C24.0755 19.3973 24.0211 19.1619 23.8424 19.0502C23.6638 18.9386 23.4282 18.9928 23.3165 19.1715L22.4904 20.4933C22.4526 20.554 22.4324 20.624 22.4324 20.6956V23.9519C22.4324 24.6392 21.8733 25.1985 21.1859 25.1985C20.4984 25.1985 19.9393 24.6393 19.9393 23.9519V20.7426L20.6697 17.8209H24.7878L26.8769 18.511C26.9956 18.5503 27.1293 18.5277 27.2285 18.4517L27.8798 17.9532L32.4449 23.9469L31.7332 24.452Z" fill="#A92539"/>
<path d="M34.9394 11.1276C34.8256 10.9502 34.5896 10.8987 34.4122 11.0125L32.2742 12.3847C32.0969 12.4986 32.0454 12.7346 32.1592 12.912C32.2321 13.0256 32.355 13.0876 32.4807 13.0876C32.5513 13.0876 32.6226 13.068 32.6864 13.0271L34.8244 11.6549C35.0018 11.5409 35.0533 11.3049 34.9394 11.1276Z" fill="#A92539"/>
</g>
<defs>
<clipPath id="clip0">
<rect width="26" height="26" fill="white" transform="translate(9 9)"/>
</clipPath>
</defs>
</svg>
