<svg width="19" height="19" viewBox="0 0 19 19" fill="none" xmlns="http://www.w3.org/2000/svg">
<path d="M17.9512 2.14919e-08H1.04788C0.469086 0.000347923 -0.000115945 0.469781 2.14919e-08 1.0488V17.9521C0.000347923 18.5309 0.469781 19.0001 1.0488 19H10.1494V11.6523H7.68164V8.77637H10.1494V6.65986C10.1494 4.20542 11.6478 2.86948 13.8373 2.86948C14.886 2.86948 15.7871 2.94764 16.0498 2.98255V5.54785H14.54C13.3488 5.54785 13.1182 6.11389 13.1182 6.94467V8.77637H15.9663L15.5952 11.6523H13.1182V19H17.9512C18.5303 19.0001 18.9999 18.5308 19 17.9517C19 17.9515 19 17.9514 19 17.9512V1.04788C18.9998 0.469086 18.5302 -0.000115945 17.9512 2.14919e-08Z" fill="white"/>
</svg>
