<svg width="43" height="43" viewBox="0 0 43 43" fill="none" xmlns="http://www.w3.org/2000/svg">
<path d="M41.9753 40.8041H1.33666C1.10251 40.8041 0.877956 40.8962 0.712391 41.0601C0.546826 41.224 0.453812 41.4463 0.453812 41.6781C0.453812 41.9098 0.546826 42.1321 0.712391 42.296C0.877956 42.4599 1.10251 42.552 1.33666 42.552H41.9753C42.2094 42.552 42.4339 42.4599 42.5995 42.296C42.7651 42.1321 42.8581 41.9098 42.8581 41.6781C42.8581 41.4463 42.7651 41.224 42.5995 41.0601C42.4339 40.8962 42.2094 40.8041 41.9753 40.8041Z" fill="#A92539"/>
<path d="M8.40285 30.3102H3.10231C2.9852 30.3102 2.86925 30.3333 2.76122 30.3781C2.65319 30.4228 2.55524 30.4884 2.47308 30.5711C2.39092 30.6537 2.32618 30.7516 2.28264 30.8593C2.2391 30.9669 2.21763 31.082 2.21947 31.1979V41.6919C2.22312 41.9213 2.31774 42.1401 2.48291 42.301C2.64808 42.4619 2.87056 42.5521 3.10231 42.5521H8.40285C8.63732 42.5521 8.86223 42.4601 9.02835 42.2963C9.19447 42.1325 9.28825 41.9103 9.28917 41.6782V31.1979C9.29055 31.0818 9.26864 30.9666 9.22472 30.859C9.1808 30.7514 9.11573 30.6534 9.03329 30.5709C8.95085 30.4883 8.85268 30.4227 8.74446 30.378C8.63624 30.3333 8.52013 30.3102 8.40285 30.3102ZM7.52001 40.8042H3.98863V32.0581H7.52001V40.8042Z" fill="#A92539"/>
<path d="M19.0039 21.5641H13.7034C13.5874 21.5641 13.4726 21.5867 13.3655 21.6306C13.2584 21.6745 13.1611 21.7389 13.0791 21.8201C12.9971 21.9012 12.9321 21.9975 12.8877 22.1036C12.8434 22.2096 12.8205 22.3232 12.8205 22.438V41.6781C12.8205 41.9099 12.9136 42.1322 13.0791 42.2961C13.2447 42.46 13.4692 42.5521 13.7034 42.5521H19.0039C19.2384 42.5521 19.4633 42.4601 19.6294 42.2963C19.7955 42.1325 19.8893 41.9102 19.8902 41.6781V22.438C19.8893 22.2059 19.7955 21.9836 19.6294 21.8198C19.4633 21.656 19.2384 21.5641 19.0039 21.5641ZM18.1211 40.8042H14.5897V23.3119H18.1211V40.8042Z" fill="#A92539"/>
<path d="M29.605 25.0633H24.3045C24.0703 25.0633 23.8458 25.1554 23.6802 25.3193C23.5146 25.4832 23.4216 25.7054 23.4216 25.9372V41.6782C23.4216 41.91 23.5146 42.1323 23.6802 42.2962C23.8458 42.4601 24.0703 42.5521 24.3045 42.5521H29.605C29.8395 42.5521 30.0644 42.4602 30.2305 42.2964C30.3966 42.1326 30.4904 41.9103 30.4913 41.6782V25.9372C30.4904 25.7051 30.3966 25.4828 30.2305 25.3191C30.0644 25.1553 29.8395 25.0633 29.605 25.0633ZM28.7222 40.8043H25.1908V26.8111H28.7222V40.8043Z" fill="#A92539"/>
<path d="M40.2061 14.5693H34.9055C34.7896 14.5693 34.6748 14.5919 34.5677 14.6358C34.4606 14.6797 34.3632 14.7441 34.2813 14.8252C34.1993 14.9064 34.1343 15.0027 34.0899 15.1088C34.0455 15.2148 34.0227 15.3284 34.0227 15.4432V41.6782C34.0227 41.91 34.1157 42.1323 34.2813 42.2961C34.4468 42.46 34.6714 42.5521 34.9055 42.5521H40.2061C40.4405 42.5521 40.6654 42.4601 40.8316 42.2964C40.9977 42.1326 41.0915 41.9103 41.0924 41.6782V15.4432C41.0915 15.2111 40.9977 14.9888 40.8316 14.825C40.6654 14.6612 40.4405 14.5693 40.2061 14.5693ZM39.3232 40.8043H35.7919V16.3171H39.3232V40.8043Z" fill="#A92539"/>
<path d="M5.75432 16.3171C5.05519 16.3171 4.37177 16.5223 3.79046 16.9068C3.20916 17.2913 2.75609 17.8378 2.48854 18.4772C2.221 19.1165 2.151 19.8201 2.28739 20.4989C2.42378 21.1776 2.76044 21.8011 3.2548 22.2905C3.74916 22.7799 4.37901 23.1131 5.0647 23.2481C5.7504 23.3831 6.46114 23.3138 7.10705 23.049C7.75296 22.7842 8.30503 22.3357 8.69344 21.7602C9.08185 21.1848 9.28917 20.5083 9.28917 19.8162C9.28825 18.8885 8.91553 17.999 8.25282 17.343C7.59011 16.6869 6.69154 16.318 5.75432 16.3171ZM5.75432 21.5641C5.40412 21.5648 5.06159 21.4625 4.77012 21.2704C4.47865 21.0782 4.25135 20.8047 4.11702 20.4846C3.98268 20.1644 3.94736 19.812 4.01551 19.472C4.08366 19.1319 4.25223 18.8196 4.49986 18.5744C4.74749 18.3293 5.06304 18.1624 5.40655 18.095C5.75006 18.0275 6.10607 18.0625 6.42948 18.1955C6.75289 18.3284 7.02916 18.5534 7.2233 18.842C7.41743 19.1305 7.52069 19.4696 7.52001 19.8162C7.52001 20.2798 7.33398 20.7244 7.00285 21.0521C6.67172 21.3799 6.22261 21.5641 5.75432 21.5641Z" fill="#A92539"/>
<path d="M16.3554 7.57098C15.6563 7.57098 14.9728 7.7762 14.3915 8.16069C13.8102 8.54519 13.3572 9.09168 13.0896 9.73106C12.8221 10.3704 12.7521 11.074 12.8885 11.7528C13.0249 12.4315 13.3615 13.055 13.8559 13.5444C14.3502 14.0338 14.9801 14.367 15.6658 14.502C16.3515 14.6371 17.0622 14.5678 17.7081 14.3029C18.354 14.0381 18.9061 13.5896 19.2945 13.0141C19.6829 12.4387 19.8902 11.7622 19.8902 11.0701C19.8893 10.1424 19.5166 9.25288 18.8539 8.59686C18.1912 7.94084 17.2926 7.57189 16.3554 7.57098ZM16.3554 12.818C16.0062 12.818 15.6648 12.7155 15.3744 12.5234C15.0841 12.3314 14.8578 12.0584 14.7241 11.739C14.5905 11.4196 14.5555 11.0682 14.6236 10.7291C14.6918 10.3901 14.8599 10.0787 15.1069 9.83421C15.3538 9.58977 15.6684 9.4233 16.0109 9.35586C16.3534 9.28842 16.7085 9.32303 17.0311 9.45532C17.3537 9.58761 17.6295 9.81164 17.8235 10.0991C18.0175 10.3865 18.1211 10.7244 18.1211 11.0701C18.1211 11.5337 17.9351 11.9783 17.6039 12.306C17.2728 12.6338 16.8237 12.818 16.3554 12.818Z" fill="#A92539"/>
<path d="M26.9565 11.0702C26.2573 11.0702 25.5739 11.2754 24.9926 11.6599C24.4113 12.0444 23.9582 12.5909 23.6907 13.2303C23.4231 13.8697 23.3531 14.5732 23.4895 15.252C23.6259 15.9307 23.9626 16.5542 24.457 17.0436C24.9513 17.533 25.5812 17.8662 26.2668 18.0012C26.9525 18.1363 27.6633 18.067 28.3092 17.8021C28.9551 17.5373 29.5072 17.0888 29.8956 16.5134C30.284 15.9379 30.4913 15.2614 30.4913 14.5693C30.4904 13.6416 30.1177 12.7521 29.455 12.0961C28.7923 11.4401 27.8937 11.0711 26.9565 11.0702ZM26.9565 16.3172C26.6063 16.3179 26.2637 16.2156 25.9723 16.0235C25.6808 15.8313 25.4535 15.5578 25.3192 15.2377C25.1848 14.9175 25.1495 14.5651 25.2177 14.2251C25.2858 13.885 25.4544 13.5727 25.702 13.3275C25.9496 13.0824 26.2652 12.9156 26.6087 12.8481C26.9522 12.7806 27.3082 12.8156 27.6316 12.9486C27.955 13.0815 28.2313 13.3065 28.4254 13.5951C28.6196 13.8836 28.7228 14.2227 28.7222 14.5693C28.7222 15.0329 28.5361 15.4775 28.205 15.8052C27.8739 16.133 27.4248 16.3172 26.9565 16.3172Z" fill="#A92539"/>
<path d="M37.5575 0.576172C36.8584 0.576172 36.175 0.781392 35.5937 1.16588C35.0124 1.55037 34.5593 2.09686 34.2918 2.73625C34.0242 3.37563 33.9542 4.0792 34.0906 4.75796C34.227 5.43673 34.5637 6.06022 35.058 6.54958C35.5524 7.03894 36.1822 7.37221 36.8679 7.50722C37.5536 7.64224 38.2644 7.57294 38.9103 7.3081C39.5562 7.04326 40.1082 6.59477 40.4967 6.01933C40.8851 5.4439 41.0924 4.76738 41.0924 4.07531C41.0915 3.14756 40.7188 2.25807 40.056 1.60205C39.3933 0.946035 38.4948 0.577083 37.5575 0.576172ZM37.5575 5.82316C37.2073 5.82385 36.8648 5.72163 36.5733 5.52945C36.2819 5.33728 36.0546 5.0638 35.9202 4.74365C35.7859 4.42351 35.7506 4.0711 35.8187 3.73106C35.8869 3.39102 36.0554 3.07866 36.3031 2.83353C36.5507 2.5884 36.8663 2.42153 37.2098 2.35407C37.5533 2.28661 37.9093 2.32157 38.2327 2.45455C38.5561 2.58753 38.8324 2.81253 39.0265 3.10105C39.2206 3.38958 39.3239 3.72865 39.3232 4.07531C39.3232 4.30484 39.2776 4.53213 39.1888 4.74419C39.1001 4.95625 38.97 5.14893 38.8061 5.31123C38.6421 5.47353 38.4475 5.60228 38.2332 5.69012C38.019 5.77796 37.7894 5.82316 37.5575 5.82316Z" fill="#A92539"/>
<path d="M36.3097 5.31043C36.2282 5.22856 36.1311 5.16355 36.024 5.11917C35.9169 5.07479 35.8019 5.05194 35.6858 5.05194C35.5697 5.05194 35.4548 5.07479 35.3476 5.11917C35.2405 5.16355 35.1434 5.22856 35.0619 5.31043L28.2043 12.0954C28.0388 12.2596 27.946 12.4822 27.9463 12.7142C27.9467 12.9462 28.0401 13.1685 28.206 13.3323C28.3719 13.4961 28.5968 13.5879 28.8311 13.5876C29.0655 13.5873 29.2901 13.4948 29.4555 13.3306L36.3097 6.54562C36.4751 6.38176 36.5679 6.15963 36.5679 5.92803C36.5679 5.69642 36.4751 5.47429 36.3097 5.31043Z" fill="#A92539"/>
<path d="M24.8189 12.5496L19.1465 10.9463C19.0349 10.9146 18.9181 10.9051 18.8027 10.9181C18.6874 10.9312 18.5758 10.9666 18.4743 11.0224C18.3728 11.0781 18.2834 11.1531 18.2111 11.2431C18.1389 11.333 18.0853 11.4362 18.0533 11.5467C18.0214 11.6571 18.0117 11.7728 18.0249 11.8869C18.0381 12.0011 18.0739 12.1116 18.1302 12.2121C18.1865 12.3125 18.2623 12.4011 18.3532 12.4725C18.444 12.544 18.5482 12.5971 18.6598 12.6288L24.3358 14.2321C24.4147 14.2553 24.4967 14.2669 24.5791 14.2665C24.7959 14.2716 25.007 14.1975 25.1721 14.0584C25.3373 13.9193 25.445 13.7249 25.4746 13.5123C25.5042 13.2996 25.4538 13.0836 25.3329 12.9055C25.2119 12.7273 25.029 12.5994 24.8189 12.5462V12.5496Z" fill="#A92539"/>
<path d="M14.9755 12.1607C14.9037 12.0709 14.8148 11.996 14.7137 11.9402C14.6126 11.8845 14.5014 11.8491 14.3864 11.836C14.2715 11.8229 14.155 11.8324 14.0438 11.8639C13.9325 11.8954 13.8287 11.9483 13.7382 12.0197L7.07512 17.277C6.98383 17.3486 6.90768 17.4373 6.85103 17.5381C6.79438 17.6388 6.75832 17.7496 6.74493 17.8642C6.73153 17.9787 6.74106 18.0947 6.77297 18.2056C6.80487 18.3165 6.85853 18.4201 6.93087 18.5105C7.00322 18.6008 7.09284 18.6762 7.19461 18.7323C7.29639 18.7884 7.40832 18.8241 7.52403 18.8373C7.63974 18.8506 7.75695 18.8412 7.86898 18.8096C7.981 18.778 8.08565 18.7249 8.17693 18.6533L14.8365 13.3959C14.9285 13.3246 15.0052 13.2357 15.0621 13.1346C15.119 13.0336 15.155 12.9222 15.168 12.8072C15.1809 12.6922 15.1706 12.5758 15.1375 12.4648C15.1045 12.3538 15.0494 12.2504 14.9755 12.1607Z" fill="#A92539"/>
</svg>
