<svg width="34" height="29" viewBox="0 0 34 29" fill="#A92539" xmlns="http://www.w3.org/2000/svg">
<path d="M16.9103 28.3418C16.782 28.3421 16.6549 28.3176 16.5364 28.2698C16.4179 28.222 16.3103 28.1518 16.2198 28.0632L3.70389 15.9544C2.73324 15.1512 1.95354 14.1521 1.41886 13.0262C0.884181 11.9003 0.607302 10.6746 0.607422 9.43405C0.607422 4.70816 4.55506 0.863281 9.40674 0.863281C10.9066 0.866241 12.381 1.24161 13.6905 1.95392C15 2.66623 16.1014 3.69197 16.8907 4.93421C17.6806 3.69218 18.7824 2.66665 20.0921 1.95439C21.4018 1.24212 22.8762 0.86661 24.3763 0.863281C29.2274 0.863281 33.174 4.70816 33.174 9.43405C33.1751 10.4247 32.9989 11.408 32.6532 12.3397C32.2624 13.3847 31.668 14.3463 30.9028 15.1718L30.9091 15.1831L30.6009 15.4869L17.6018 28.0647C17.5109 28.153 17.4031 28.2229 17.2844 28.2704C17.1657 28.318 17.0386 28.3422 16.9103 28.3418ZM9.40674 1.9961C5.19635 1.9961 1.77051 5.33275 1.77051 9.43405C1.77293 10.5135 2.01587 11.5795 2.48257 12.5586C2.94927 13.5377 3.6286 14.4064 4.47364 15.1048L4.50748 15.1352L16.9118 27.1353L29.6276 14.8288L29.7783 14.6805C30.5689 13.9079 31.177 12.9766 31.5599 11.9515C31.8599 11.1424 32.0127 10.2886 32.0114 9.42839C32.0109 5.33275 28.5861 1.9961 24.3763 1.9961C22.9084 1.99929 21.4723 2.41316 20.239 3.18845C19.0056 3.96374 18.027 5.0678 17.4194 6.36928L16.8907 7.50209L16.362 6.36619C15.7545 5.06526 14.7759 3.96175 13.5428 3.18699C12.3098 2.41224 10.8741 1.99888 9.40674 1.9961Z" fill="#A92539" stroke="#A92539" stroke-width="0.4"/>
</svg>
