<svg width="46" height="45" viewBox="0 0 46 45" fill="none" xmlns="http://www.w3.org/2000/svg">
<path d="M44.9366 10.5728H0.790178C0.618577 10.5728 0.454006 10.4999 0.332666 10.3703C0.211326 10.2407 0.143157 10.065 0.143157 9.8817C0.141709 9.78053 0.161263 9.68028 0.200414 9.58815L4.094 0.573796C4.1455 0.456813 4.22618 0.357247 4.32719 0.286041C4.42821 0.214836 4.54564 0.174744 4.66659 0.170166H41.0258C41.1468 0.174744 41.2642 0.214836 41.3652 0.286041C41.4662 0.357247 41.5469 0.456813 41.5984 0.573796L45.492 9.58815C45.5394 9.69224 45.5614 9.80747 45.5558 9.92307C45.5502 10.0387 45.5173 10.1509 45.4601 10.2492C45.4029 10.3476 45.3233 10.4288 45.2288 10.4854C45.1342 10.542 45.0278 10.572 44.9194 10.5728H44.9366ZM1.80366 9.17229H43.9231L40.6136 1.5584H5.11321L1.80366 9.17229Z" fill="#A92539"/>
<path d="M44.9366 10.7266H0.790177C0.580611 10.7266 0.379628 10.6377 0.231442 10.4794C0.0832569 10.3211 8.60241e-06 10.1065 8.60241e-06 9.88264C-0.00051525 9.76058 0.0228917 9.63975 0.0687206 9.52794L3.96804 0.513699C4.02731 0.362764 4.12669 0.233682 4.25388 0.142389C4.38108 0.0510971 4.53053 0.00159569 4.68377 0H41.043C41.1944 3.77483e-05 41.3424 0.0468228 41.4694 0.134714C41.5964 0.222606 41.6969 0.34785 41.7588 0.495353L45.6581 9.50959C45.7013 9.61038 45.7256 9.71928 45.7294 9.83007C45.7333 9.94087 45.7167 10.0514 45.6805 10.1553C45.6444 10.2593 45.5894 10.3546 45.5187 10.4358C45.4481 10.517 45.3631 10.5826 45.2687 10.6287C45.1668 10.6888 45.053 10.7224 44.9366 10.7266V10.7266ZM4.68377 0.330237C4.58703 0.331336 4.49258 0.361822 4.41146 0.418135C4.33035 0.474449 4.26591 0.554261 4.2257 0.648241L0.33211 9.66248C0.299449 9.73266 0.283704 9.81043 0.286302 9.88875C0.285534 9.95965 0.298043 10.03 0.323093 10.0957C0.348144 10.1613 0.385232 10.221 0.432175 10.2711C0.479118 10.3213 0.534968 10.3609 0.596447 10.3876C0.657927 10.4144 0.723794 10.4277 0.790177 10.4269H44.9366C45.0097 10.4267 45.0818 10.41 45.1485 10.378C45.2087 10.3484 45.2629 10.3063 45.3079 10.2543C45.3528 10.2023 45.3878 10.1413 45.4106 10.0748C45.4335 10.0083 45.4439 9.93771 45.4411 9.86695C45.4384 9.79619 45.4226 9.72671 45.3947 9.66248L41.5011 0.648241C41.4609 0.554261 41.3965 0.474449 41.3153 0.418135C41.2342 0.361822 41.1398 0.331336 41.043 0.330237H4.68377ZM44.1464 9.34447H1.58035L5.01587 1.39433H40.7224L44.1464 9.34447ZM2.02697 9.0387H43.6998L40.5334 1.70011H5.19337L2.02697 9.0387Z" fill="#A92539"/>
<path d="M3.96808 18.897C2.9602 18.8954 1.99403 18.467 1.28135 17.7059C0.568667 16.9447 0.167617 15.9128 0.166102 14.8364V9.88297C0.161465 9.7007 0.224462 9.52386 0.341366 9.39099C0.458271 9.25811 0.619606 9.17997 0.79022 9.17358H7.08868C7.2618 9.17358 7.42784 9.24703 7.55025 9.37778C7.67266 9.50852 7.74143 9.68584 7.74143 9.87073V14.8242C7.74149 15.897 7.34523 16.9265 6.63871 17.689C5.9322 18.4516 4.97251 18.8857 3.96808 18.897V18.897ZM1.46015 10.574V14.8547C1.49093 15.5422 1.7683 16.1906 2.23472 16.6655C2.70114 17.1404 3.32082 17.4053 3.96522 17.4053C4.60963 17.4053 5.2293 17.1404 5.69572 16.6655C6.16214 16.1906 6.43951 15.5422 6.47029 14.8547V10.574H1.46015Z" fill="#A92539"/>
<path d="M3.96807 19.0496C2.92268 19.0464 1.92098 18.6014 1.18178 17.8119C0.442578 17.0225 0.0259608 15.9526 0.0229394 14.8361V9.88275C0.022184 9.77141 0.0420665 9.66101 0.081438 9.55791C0.120809 9.45482 0.178893 9.36106 0.252342 9.28205C0.325792 9.20304 0.413155 9.14033 0.509398 9.09753C0.605641 9.05474 0.708859 9.03271 0.813109 9.03271H7.11157C7.32266 9.03271 7.5251 9.12227 7.67436 9.28169C7.82362 9.4411 7.90747 9.65731 7.90747 9.88275V14.8361C7.90296 15.9511 7.48665 17.0191 6.74901 17.808C6.01137 18.597 5.01199 19.0432 3.96807 19.0496V19.0496ZM0.813109 9.33848C0.746454 9.33848 0.68046 9.3526 0.618951 9.38002C0.557442 9.40745 0.501639 9.44764 0.454774 9.49826C0.407909 9.54888 0.370916 9.60893 0.345933 9.67493C0.32095 9.74092 0.308476 9.81156 0.309233 9.88275V14.8361C0.309233 15.8725 0.694718 16.8665 1.38088 17.5993C2.06705 18.3321 2.99768 18.7438 3.96807 18.7438C4.93845 18.7438 5.86909 18.3321 6.55525 17.5993C7.24142 16.8665 7.6269 15.8725 7.6269 14.8361V9.88275C7.6269 9.7384 7.57321 9.59996 7.47764 9.49789C7.38207 9.39583 7.25245 9.33848 7.1173 9.33848H0.813109ZM3.96807 17.6614C3.26595 17.6614 2.5925 17.3639 2.09549 16.8343C1.59848 16.3046 1.31851 15.586 1.31699 14.8361V10.3964H6.61342V14.8117C6.61645 15.1848 6.55025 15.5548 6.41867 15.9004C6.28708 16.246 6.09271 16.5603 5.84676 16.8253C5.60082 17.0902 5.30817 17.3005 4.98572 17.444C4.66327 17.5875 4.3174 17.6614 3.96807 17.6614V17.6614ZM1.60328 10.7267V14.8361C1.63314 15.4837 1.89502 16.0942 2.3347 16.5412C2.77437 16.9882 3.35816 17.2375 3.96521 17.2375C4.57225 17.2375 5.15604 16.9882 5.59571 16.5412C6.03539 16.0942 6.29727 15.4837 6.32713 14.8361V10.7267H1.60328Z" fill="#A92539"/>
<path d="M10.2665 18.897C9.25863 18.8954 8.29246 18.467 7.57978 17.7059C6.8671 16.9447 6.46605 15.9128 6.46454 14.8364V9.88297C6.46143 9.70013 6.52571 9.5233 6.64353 9.39061C6.76135 9.25791 6.92326 9.17997 7.09438 9.17358H13.3928C13.565 9.1752 13.7295 9.24936 13.8507 9.37992C13.9719 9.51049 14.0399 9.68689 14.0399 9.87073V14.8242C14.0414 15.8974 13.6456 16.9279 12.9388 17.6908C12.232 18.4537 11.2714 18.8873 10.2665 18.897ZM7.74713 10.574V14.8547C7.74713 15.2057 7.81185 15.5532 7.9376 15.8774C8.06335 16.2017 8.24766 16.4963 8.48001 16.7444C8.71236 16.9926 8.9882 17.1894 9.29178 17.3237C9.59537 17.458 9.92074 17.5271 10.2493 17.5271C10.5779 17.5271 10.9033 17.458 11.2069 17.3237C11.5105 17.1894 11.7863 16.9926 12.0187 16.7444C12.251 16.4963 12.4353 16.2017 12.5611 15.8774C12.6868 15.5532 12.7515 15.2057 12.7515 14.8547V10.574H7.74713Z" fill="#A92539"/>
<path d="M10.2666 19.0496C9.22166 19.0448 8.22082 18.5993 7.48194 17.8102C6.74307 17.021 6.32597 15.9521 6.32145 14.8361V9.88275C6.32069 9.77141 6.34057 9.66101 6.37995 9.55791C6.41932 9.45482 6.4774 9.36106 6.55085 9.28205C6.6243 9.20304 6.71166 9.14033 6.80791 9.09753C6.90415 9.05474 7.00737 9.03271 7.11162 9.03271H13.4101C13.5143 9.03271 13.6176 9.05474 13.7138 9.09753C13.81 9.14033 13.8974 9.20304 13.9709 9.28205C14.0443 9.36106 14.1024 9.45482 14.1418 9.55791C14.1811 9.66101 14.201 9.77141 14.2003 9.88275V14.8361C14.1973 15.9505 13.7822 17.0185 13.0455 17.8076C12.3088 18.5968 11.31 19.0431 10.2666 19.0496ZM7.11162 9.33848C6.97746 9.34009 6.8493 9.39815 6.75497 9.50004C6.66063 9.60194 6.60773 9.73945 6.60774 9.88275V14.8361C6.60774 15.3493 6.70238 15.8574 6.88626 16.3315C7.07013 16.8056 7.33964 17.2364 7.67939 17.5993C8.01915 17.9622 8.42249 18.25 8.8664 18.4464C9.31031 18.6427 9.78609 18.7438 10.2666 18.7438C10.7471 18.7438 11.2228 18.6427 11.6668 18.4464C12.1107 18.25 12.514 17.9622 12.8538 17.5993C13.1935 17.2364 13.463 16.8056 13.6469 16.3315C13.8308 15.8574 13.9254 15.3493 13.9254 14.8361V9.88275C13.9254 9.73945 13.8725 9.60194 13.7782 9.50004C13.6839 9.39815 13.5557 9.34009 13.4215 9.33848H7.11162ZM10.2666 17.6614C9.91897 17.6622 9.57464 17.5897 9.25335 17.448C8.93206 17.3063 8.64014 17.0982 8.39434 16.8357C8.14855 16.5732 7.95372 16.2614 7.82105 15.9183C7.68837 15.5751 7.62047 15.2074 7.62122 14.8361V10.3964H12.9119V14.8117C12.9104 15.5605 12.6312 16.2782 12.1355 16.8077C11.6397 17.3372 10.9677 17.6353 10.2666 17.637V17.6614ZM7.90751 10.7267V14.8361C7.90903 15.5039 8.15806 16.1438 8.60014 16.6159C9.04222 17.0881 9.64138 17.354 10.2666 17.3556C10.8918 17.354 11.4909 17.0881 11.933 16.6159C12.3751 16.1438 12.6241 15.5039 12.6256 14.8361V10.7267H7.90751Z" fill="#A92539"/>
<path d="M16.5649 18.8969C15.5565 18.8953 14.5897 18.4672 13.8761 17.7062C13.1626 16.9452 12.7602 15.9133 12.7572 14.8362V9.88271C12.7572 9.69782 12.826 9.52049 12.9484 9.38974C13.0708 9.259 13.2368 9.18555 13.4099 9.18555H19.7084C19.8815 9.18555 20.0475 9.259 20.1699 9.38974C20.2924 9.52049 20.3611 9.69782 20.3611 9.88271V14.8362C20.3581 15.9112 19.9574 16.9412 19.2463 17.7019C18.5351 18.4625 17.5713 18.8921 16.5649 18.8969V18.8969ZM14.057 10.5738V14.8546C14.0878 15.5421 14.3651 16.1905 14.8315 16.6654C15.298 17.1403 15.9176 17.4052 16.562 17.4052C17.2064 17.4052 17.8261 17.1403 18.2925 16.6654C18.7589 16.1905 19.0363 15.5421 19.0671 14.8546V10.5738H14.057Z" fill="#A92539"/>
<path d="M16.5649 19.0496C15.519 19.0464 14.5167 18.6016 13.7766 17.8123C13.0365 17.023 12.6186 15.9532 12.6141 14.8361V9.88275C12.6141 9.65731 12.6979 9.4411 12.8472 9.28169C12.9964 9.12227 13.1989 9.03271 13.41 9.03271H19.7084C19.9195 9.03271 20.1219 9.12227 20.2712 9.28169C20.4205 9.4411 20.5043 9.65731 20.5043 9.88275V14.8361C20.4998 15.9511 20.0835 17.0191 19.3458 17.808C18.6082 18.597 17.6088 19.0432 16.5649 19.0496ZM13.41 9.33848C13.2748 9.33848 13.1452 9.39583 13.0496 9.49789C12.954 9.59996 12.9004 9.7384 12.9004 9.88275V14.8361C12.9378 15.8466 13.3399 16.8023 14.0225 17.5031C14.7051 18.2039 15.6152 18.5953 16.562 18.5953C17.5089 18.5953 18.419 18.2039 19.1016 17.5031C19.7842 16.8023 20.1863 15.8466 20.2237 14.8361V9.88275C20.2237 9.7384 20.17 9.59996 20.0745 9.49789C19.9789 9.39583 19.8493 9.33848 19.7141 9.33848H13.41ZM16.5649 17.6614C15.8628 17.6614 15.1893 17.3639 14.6923 16.8343C14.1953 16.3046 13.9154 15.586 13.9138 14.8361V10.3964H19.2103V14.8117C19.2133 15.1848 19.1471 15.5548 19.0155 15.9004C18.8839 16.246 18.6895 16.5603 18.4436 16.8253C18.1977 17.0902 17.905 17.3005 17.5826 17.444C17.2601 17.5875 16.9142 17.6614 16.5649 17.6614V17.6614ZM14.2001 10.7267V14.8361C14.23 15.4837 14.4919 16.0942 14.9315 16.5412C15.3712 16.9882 15.955 17.2375 16.562 17.2375C17.1691 17.2375 17.7529 16.9882 18.1926 16.5412C18.6322 16.0942 18.8941 15.4837 18.924 14.8361V10.7267H14.2001Z" fill="#A92539"/>
<path d="M22.8633 18.8969C21.8555 18.8953 20.8893 18.467 20.1766 17.7058C19.4639 16.9446 19.0629 15.9127 19.0614 14.8362V9.88271C19.0613 9.69887 19.1293 9.52246 19.2505 9.39189C19.3717 9.26132 19.5363 9.18716 19.7084 9.18555H26.0068C26.179 9.18716 26.3435 9.26132 26.4647 9.39189C26.5859 9.52246 26.6539 9.69887 26.6539 9.88271V14.8362C26.6524 15.9106 26.2529 16.9407 25.5427 17.7015C24.8325 18.4623 23.8692 18.8921 22.8633 18.8969V18.8969ZM20.3611 10.5738V14.8546C20.3611 15.5634 20.6248 16.2431 21.094 16.7443C21.5633 17.2455 22.1997 17.527 22.8633 17.527C23.527 17.527 24.1634 17.2455 24.6327 16.7443C25.1019 16.2431 25.3655 15.5634 25.3655 14.8546V10.5738H20.3611Z" fill="#A92539"/>
<path d="M22.8634 19.0496C21.8181 19.0464 20.8164 18.6014 20.0772 17.8119C19.3379 17.0225 18.9213 15.9526 18.9183 14.8361V9.88275C18.9176 9.77141 18.9374 9.66101 18.9768 9.55791C19.0162 9.45482 19.0743 9.36106 19.1477 9.28205C19.2212 9.20304 19.3085 9.14033 19.4048 9.09753C19.501 9.05474 19.6042 9.03271 19.7085 9.03271H26.007C26.1112 9.03271 26.2144 9.05474 26.3107 9.09753C26.4069 9.14033 26.4943 9.20304 26.5677 9.28205C26.6412 9.36106 26.6993 9.45482 26.7386 9.55791C26.778 9.66101 26.7979 9.77141 26.7971 9.88275V14.8361C26.7926 15.95 26.3771 17.0171 25.6407 17.8059C24.9043 18.5947 23.9064 19.0416 22.8634 19.0496V19.0496ZM19.7085 9.33848C19.5743 9.34009 19.4462 9.39815 19.3518 9.50004C19.2575 9.60194 19.2046 9.73945 19.2046 9.88275V14.8361C19.2046 15.3493 19.2992 15.8574 19.4831 16.3315C19.667 16.8056 19.9365 17.2364 20.2763 17.5993C20.616 17.9622 21.0194 18.25 21.4633 18.4464C21.9072 18.6427 22.383 18.7438 22.8634 18.7438C23.3439 18.7438 23.8197 18.6427 24.2636 18.4464C24.7075 18.25 25.1109 17.9622 25.4506 17.5993C25.7904 17.2364 26.0599 16.8056 26.2438 16.3315C26.4276 15.8574 26.5223 15.3493 26.5223 14.8361V9.88275C26.5223 9.73945 26.4694 9.60194 26.3751 9.50004C26.2807 9.39815 26.1526 9.34009 26.0184 9.33848H19.7085ZM22.8634 17.6614C22.5161 17.6614 22.1721 17.5883 21.8511 17.4464C21.5302 17.3044 21.2385 17.0963 20.9929 16.8339C20.7473 16.5716 20.5524 16.2601 20.4195 15.9173C20.2865 15.5746 20.2181 15.2072 20.2181 14.8361V10.3964H25.5088V14.8117C25.5118 15.1848 25.4456 15.5548 25.3141 15.9004C25.1825 16.246 24.9881 16.5603 24.7421 16.8253C24.4962 17.0902 24.2035 17.3005 23.8811 17.444C23.5586 17.5875 23.2128 17.6614 22.8634 17.6614V17.6614ZM20.5044 10.7267V14.8361C20.5044 15.5044 20.7529 16.1452 21.1953 16.6177C21.6377 17.0902 22.2378 17.3556 22.8634 17.3556C23.4891 17.3556 24.0891 17.0902 24.5316 16.6177C24.974 16.1452 25.2225 15.5044 25.2225 14.8361V10.7267H20.5044Z" fill="#A92539"/>
<path d="M29.1618 18.8969C28.1544 18.8937 27.1891 18.4648 26.4768 17.704C25.7644 16.9432 25.3629 15.9122 25.3599 14.8362V9.88271C25.3599 9.69782 25.4286 9.52049 25.551 9.38974C25.6735 9.259 25.8395 9.18555 26.0126 9.18555H32.311C32.3965 9.18554 32.4811 9.20362 32.56 9.23873C32.6389 9.27384 32.7104 9.32529 32.7706 9.39011C32.8308 9.45493 32.8783 9.53183 32.9105 9.61638C32.9427 9.70093 32.9588 9.79145 32.9581 9.88271V14.8362C32.9566 15.9116 32.5563 16.9426 31.8449 17.7036C31.1334 18.4646 30.1687 18.8937 29.1618 18.8969V18.8969ZM26.6596 10.5738V14.8546C26.6904 15.5421 26.9678 16.1905 27.4342 16.6654C27.9006 17.1403 28.5203 17.4052 29.1647 17.4052C29.8091 17.4052 30.4288 17.1403 30.8952 16.6654C31.3616 16.1905 31.639 15.5421 31.6698 14.8546V10.5738H26.6596Z" fill="#A92539"/>
<path d="M29.1618 19.0496C28.1168 19.0448 27.116 18.5993 26.3771 17.8102C25.6382 17.021 25.2211 15.9521 25.2166 14.8361V9.88275C25.2166 9.65731 25.3005 9.4411 25.4497 9.28169C25.599 9.12227 25.8014 9.03271 26.0125 9.03271H32.311C32.4153 9.03271 32.5185 9.05474 32.6147 9.09753C32.711 9.14033 32.7983 9.20304 32.8718 9.28205C32.9452 9.36106 33.0033 9.45482 33.0427 9.55791C33.0821 9.66101 33.1019 9.77141 33.1012 9.88275V14.8361C33.0982 15.9516 32.6823 17.0205 31.9444 17.8098C31.2064 18.5991 30.2062 19.0448 29.1618 19.0496ZM26.0125 9.33848C25.8774 9.33848 25.7478 9.39583 25.6522 9.49789C25.5566 9.59996 25.5029 9.7384 25.5029 9.88275V14.8361C25.5029 15.8725 25.8884 16.8665 26.5746 17.5993C27.2607 18.3321 28.1914 18.7438 29.1618 18.7438C30.1322 18.7438 31.0628 18.3321 31.749 17.5993C32.4351 16.8665 32.8206 15.8725 32.8206 14.8361V9.88275C32.8214 9.81156 32.8089 9.74092 32.7839 9.67493C32.7589 9.60893 32.7219 9.54888 32.6751 9.49826C32.6282 9.44764 32.5724 9.40745 32.5109 9.38002C32.4494 9.3526 32.3834 9.33848 32.3167 9.33848H26.0125ZM29.1618 17.6614C28.4602 17.6614 27.7873 17.3638 27.2912 16.8339C26.7951 16.3041 26.5164 15.5855 26.5164 14.8361V10.3964H31.8129V14.8117C31.8151 15.185 31.7482 15.5552 31.616 15.9008C31.4838 16.2465 31.2889 16.5608 31.0425 16.8256C30.7961 17.0905 30.5031 17.3007 30.1803 17.4441C29.8575 17.5876 29.5114 17.6614 29.1618 17.6614V17.6614ZM26.8027 10.7267V14.8361C26.8326 15.4837 27.0944 16.0942 27.5341 16.5412C27.9738 16.9882 28.5576 17.2375 29.1646 17.2375C29.7717 17.2375 30.3555 16.9882 30.7952 16.5412C31.2348 16.0942 31.4967 15.4837 31.5266 14.8361V10.7267H26.8027Z" fill="#A92539"/>
<path d="M35.4602 18.8969C34.4523 18.8953 33.4861 18.467 32.7735 17.7058C32.0608 16.9446 31.6597 15.9127 31.6582 14.8362V9.88271C31.6582 9.69887 31.7262 9.52246 31.8474 9.39189C31.9686 9.26132 32.1331 9.18716 32.3052 9.18555H38.6037C38.7758 9.18716 38.9404 9.26132 39.0615 9.39189C39.1827 9.52246 39.2507 9.69887 39.2507 9.88271V14.8362C39.2492 15.9106 38.8497 16.9407 38.1395 17.7015C37.4293 18.4623 36.4661 18.8921 35.4602 18.8969V18.8969ZM32.9523 10.5738V14.8546C32.983 15.5421 33.2604 16.1905 33.7268 16.6654C34.1932 17.1403 34.8129 17.4052 35.4573 17.4052C36.1017 17.4052 36.7214 17.1403 37.1878 16.6654C37.6542 16.1905 37.9316 15.5421 37.9624 14.8546V10.5738H32.9523Z" fill="#A92539"/>
<path d="M35.4603 19.0496C34.4149 19.0464 33.4132 18.6014 32.674 17.8119C31.9348 17.0225 31.5182 15.9526 31.5152 14.8361V9.88275C31.5144 9.77141 31.5343 9.66101 31.5737 9.55791C31.613 9.45482 31.6711 9.36106 31.7446 9.28205C31.818 9.20304 31.9054 9.14033 32.0016 9.09753C32.0979 9.05474 32.2011 9.03271 32.3053 9.03271H38.6038C38.7081 9.03271 38.8113 9.05474 38.9075 9.09753C39.0038 9.14033 39.0911 9.20304 39.1646 9.28205C39.238 9.36106 39.2961 9.45482 39.3355 9.55791C39.3749 9.66101 39.3947 9.77141 39.394 9.88275V14.8361C39.3895 15.95 38.974 17.0171 38.2376 17.8059C37.5011 18.5947 36.5032 19.0416 35.4603 19.0496V19.0496ZM32.3053 9.33848C32.2387 9.33848 32.1727 9.3526 32.1112 9.38002C32.0497 9.40745 31.9939 9.44764 31.947 9.49826C31.9001 9.54888 31.8631 9.60893 31.8381 9.67493C31.8132 9.74092 31.8007 9.81156 31.8015 9.88275V14.8361C31.8015 15.3493 31.8961 15.8574 32.08 16.3315C32.2638 16.8056 32.5333 17.2364 32.8731 17.5993C33.2129 17.9622 33.6162 18.25 34.0601 18.4464C34.504 18.6427 34.9798 18.7438 35.4603 18.7438C35.9408 18.7438 36.4166 18.6427 36.8605 18.4464C37.3044 18.25 37.7077 17.9622 38.0475 17.5993C38.3872 17.2364 38.6567 16.8056 38.8406 16.3315C39.0245 15.8574 39.1191 15.3493 39.1191 14.8361V9.88275C39.1191 9.73945 39.0662 9.60194 38.9719 9.50004C38.8776 9.39815 38.7494 9.34009 38.6153 9.33848H32.3053ZM35.4603 17.6614C34.7582 17.6614 34.0847 17.3639 33.5877 16.8343C33.0907 16.3046 32.8107 15.586 32.8092 14.8361V10.3964H38.1056V14.8117C38.1087 15.1848 38.0425 15.5548 37.9109 15.9004C37.7793 16.246 37.5849 16.5603 37.339 16.8253C37.093 17.0902 36.8004 17.3005 36.4779 17.444C36.1555 17.5875 35.8096 17.6614 35.4603 17.6614V17.6614ZM33.0955 10.7267V14.8361C33.1254 15.4837 33.3872 16.0942 33.8269 16.5412C34.2666 16.9882 34.8504 17.2375 35.4574 17.2375C36.0645 17.2375 36.6483 16.9882 37.0879 16.5412C37.5276 16.0942 37.7895 15.4837 37.8194 14.8361V10.7267H33.0955Z" fill="#A92539"/>
<path d="M41.7587 18.8969C40.7513 18.8937 39.786 18.4648 39.0736 17.704C38.3613 16.9432 37.9597 15.9122 37.9567 14.8362V9.88271C37.9567 9.69782 38.0255 9.52049 38.1479 9.38974C38.2703 9.259 38.4364 9.18555 38.6095 9.18555H44.9079C44.9934 9.18554 45.078 9.20362 45.1568 9.23873C45.2357 9.27384 45.3073 9.32529 45.3675 9.39011C45.4276 9.45493 45.4752 9.53183 45.5073 9.61638C45.5395 9.70093 45.5557 9.79145 45.5549 9.88271V14.8362C45.5534 15.9116 45.1532 16.9426 44.4417 17.7036C43.7303 18.4646 42.7656 18.8937 41.7587 18.8969ZM39.2565 10.5738V14.8546C39.2873 15.5421 39.5646 16.1905 40.0311 16.6654C40.4975 17.1403 41.1172 17.4052 41.7616 17.4052C42.406 17.4052 43.0256 17.1403 43.4921 16.6654C43.9585 16.1905 44.2358 15.5421 44.2666 14.8546V10.5738H39.2565Z" fill="#A92539"/>
<path d="M41.7587 19.0496C40.7138 19.0448 39.7129 18.5993 38.9741 17.8102C38.2352 17.021 37.8181 15.9521 37.8136 14.8361V9.88275C37.8136 9.65731 37.8974 9.4411 38.0467 9.28169C38.1959 9.12227 38.3984 9.03271 38.6095 9.03271H44.9079C45.0122 9.03271 45.1154 9.05474 45.2116 9.09753C45.3079 9.14033 45.3952 9.20304 45.4687 9.28205C45.5421 9.36106 45.6002 9.45482 45.6396 9.55791C45.679 9.66101 45.6989 9.77141 45.6981 9.88275V14.8361C45.6951 15.9516 45.2793 17.0205 44.5413 17.8098C43.8033 18.5991 42.8031 19.0448 41.7587 19.0496V19.0496ZM38.6095 9.33848C38.4743 9.33848 38.3447 9.39583 38.2491 9.49789C38.1536 9.59996 38.0999 9.7384 38.0999 9.88275V14.8361C38.0999 15.8725 38.4853 16.8665 39.1715 17.5993C39.8577 18.3321 40.7883 18.7438 41.7587 18.7438C42.7291 18.7438 43.6597 18.3321 44.3459 17.5993C45.032 16.8665 45.4175 15.8725 45.4175 14.8361V9.88275C45.4183 9.81156 45.4058 9.74092 45.3808 9.67493C45.3558 9.60893 45.3189 9.54888 45.272 9.49826C45.2251 9.44764 45.1693 9.40745 45.1078 9.38002C45.0463 9.3526 44.9803 9.33848 44.9136 9.33848H38.6095ZM41.7587 17.6614C41.0571 17.6614 40.3842 17.3638 39.8881 16.8339C39.392 16.3041 39.1133 15.5855 39.1133 14.8361V10.3964H44.4098V14.8117C44.412 15.185 44.3451 15.5552 44.2129 15.9008C44.0807 16.2465 43.8858 16.5608 43.6394 16.8256C43.393 17.0905 43.1 17.3007 42.7772 17.4441C42.4544 17.5876 42.1083 17.6614 41.7587 17.6614V17.6614ZM39.3996 10.7267V14.8361C39.4295 15.4837 39.6914 16.0942 40.131 16.5412C40.5707 16.9882 41.1545 17.2375 41.7616 17.2375C42.3686 17.2375 42.9524 16.9882 43.3921 16.5412C43.8317 16.0942 44.0936 15.4837 44.1235 14.8361V10.7267H39.3996Z" fill="#A92539"/>
<path d="M42.9898 43.8603H2.67965C2.50653 43.8603 2.3405 43.7868 2.21809 43.6561C2.09567 43.5253 2.0269 43.348 2.0269 43.1631V17.478H3.32667V42.4415H42.3313V17.5086H43.6253V43.1937C43.6195 43.3706 43.5503 43.5384 43.4321 43.6624C43.3138 43.7864 43.1555 43.8572 42.9898 43.8603V43.8603Z" fill="#A92539"/>
<path d="M42.9898 44.0316H2.67965C2.46857 44.0316 2.26613 43.942 2.11687 43.7826C1.96761 43.6232 1.88376 43.407 1.88376 43.1815V17.3741H3.46982V42.3192H42.1996V17.3557H43.78V43.1632C43.783 43.276 43.7649 43.3884 43.7265 43.4936C43.6882 43.5989 43.6305 43.6948 43.5568 43.7758C43.4831 43.8568 43.395 43.9211 43.2976 43.9651C43.2002 44.009 43.0955 44.0316 42.9898 44.0316V44.0316ZM2.17005 17.6615V43.1632C2.17005 43.3075 2.22374 43.446 2.31931 43.548C2.41488 43.6501 2.5445 43.7074 2.67965 43.7074H42.9898C43.0564 43.7075 43.1224 43.6933 43.184 43.6659C43.2455 43.6385 43.3013 43.5983 43.3481 43.5477C43.395 43.497 43.432 43.437 43.457 43.371C43.482 43.305 43.4944 43.2344 43.4937 43.1632V17.6615H42.4859V42.625H3.18353V17.6615H2.17005Z" fill="#A92539"/>
<path d="M37.7964 43.86H26.757C26.5849 43.8584 26.4203 43.7843 26.2991 43.6537C26.1779 43.5231 26.11 43.3467 26.11 43.1629V23.7463C26.1115 23.5636 26.1801 23.3887 26.3011 23.2595C26.4222 23.1302 26.5859 23.0569 26.757 23.0553H37.7964C37.9676 23.0569 38.1313 23.1302 38.2523 23.2595C38.3733 23.3887 38.442 23.5636 38.4435 23.7463V43.1629C38.4435 43.3467 38.3755 43.5231 38.2543 43.6537C38.1331 43.7843 37.9686 43.8584 37.7964 43.86ZM27.4097 42.4718H37.1437V24.4619H27.4097V42.4718Z" fill="#A92539"/>
<path d="M37.7966 44.0312H26.7571C26.6528 44.0312 26.5496 44.0092 26.4534 43.9664C26.3571 43.9236 26.2698 43.8609 26.1963 43.7819C26.1229 43.7029 26.0648 43.6091 26.0254 43.506C25.986 43.4029 25.9662 43.2925 25.9669 43.1812V23.7463C25.9669 23.5225 26.0502 23.3078 26.1983 23.1495C26.3465 22.9913 26.5475 22.9023 26.7571 22.9023H37.7966C38.0061 22.9023 38.2071 22.9913 38.3553 23.1495C38.5035 23.3078 38.5867 23.5225 38.5867 23.7463V43.1628C38.5898 43.2757 38.5716 43.3881 38.5333 43.4933C38.4949 43.5985 38.4372 43.6945 38.3635 43.7755C38.2899 43.8564 38.2017 43.9208 38.1043 43.9647C38.0069 44.0087 37.9023 44.0313 37.7966 44.0312V44.0312ZM26.7571 23.2387C26.6239 23.2403 26.4966 23.2975 26.4024 23.3981C26.3083 23.4987 26.2547 23.6346 26.2532 23.7769V43.1934C26.2532 43.3367 26.3061 43.4742 26.4004 43.5761C26.4948 43.678 26.6229 43.7361 26.7571 43.7377H37.7966C37.8632 43.7377 37.9292 43.7236 37.9907 43.6961C38.0522 43.6687 38.108 43.6285 38.1549 43.5779C38.2017 43.5273 38.2387 43.4672 38.2637 43.4012C38.2887 43.3352 38.3012 43.2646 38.3004 43.1934V23.7463C38.3004 23.6035 38.2473 23.4667 38.1528 23.3657C38.0584 23.2648 37.9302 23.2081 37.7966 23.2081L26.7571 23.2387ZM37.287 42.6552H27.2667V24.3089H37.287V42.6552ZM27.553 42.3495H37.0007V24.6147H27.553V42.3495Z" fill="#A92539"/>
<path d="M22.8633 37.9651H6.6305C6.45838 37.9635 6.29381 37.8893 6.17263 37.7587C6.05146 37.6282 5.98347 37.4518 5.98347 37.2679V23.4042C5.98347 23.2203 6.05146 23.0439 6.17263 22.9134C6.29381 22.7828 6.45838 22.7086 6.6305 22.707H22.8633C22.9488 22.707 23.0334 22.7251 23.1123 22.7602C23.1912 22.7953 23.2627 22.8468 23.3229 22.9116C23.3831 22.9764 23.4306 23.0533 23.4628 23.1379C23.4949 23.2224 23.5111 23.3129 23.5104 23.4042V37.2679C23.5111 37.3592 23.4949 37.4497 23.4628 37.5343C23.4306 37.6188 23.3831 37.6957 23.3229 37.7605C23.2627 37.8253 23.1912 37.8768 23.1123 37.9119C23.0334 37.947 22.9488 37.9651 22.8633 37.9651V37.9651ZM7.28325 36.5769H22.2163V24.0952H7.28325V36.5769Z" fill="#A92539"/>
<path d="M22.8633 38.1181H6.6305C6.52625 38.1181 6.42302 38.096 6.32678 38.0532C6.23054 38.0105 6.14317 37.9477 6.06972 37.8687C5.99628 37.7897 5.93819 37.696 5.89882 37.5929C5.85945 37.4898 5.83957 37.3794 5.84032 37.268V23.4041C5.83957 23.2928 5.85945 23.1824 5.89882 23.0793C5.93819 22.9762 5.99628 22.8824 6.06972 22.8034C6.14317 22.7244 6.23054 22.6617 6.32678 22.6189C6.42302 22.5761 6.52625 22.5541 6.6305 22.5541H22.8633C22.9676 22.5541 23.0708 22.5761 23.1671 22.6189C23.2633 22.6617 23.3507 22.7244 23.4241 22.8034C23.4976 22.8824 23.5556 22.9762 23.595 23.0793C23.6344 23.1824 23.6543 23.2928 23.6535 23.4041V37.268C23.6543 37.3794 23.6344 37.4898 23.595 37.5929C23.5556 37.696 23.4976 37.7897 23.4241 37.8687C23.3507 37.9477 23.2633 38.0105 23.1671 38.0532C23.0708 38.096 22.9676 38.1181 22.8633 38.1181V38.1181ZM6.6305 22.8293C6.49634 22.8309 6.36818 22.8889 6.27385 22.9908C6.17951 23.0927 6.12661 23.2303 6.12662 23.3736V37.2374C6.12661 37.3807 6.17951 37.5183 6.27385 37.6202C6.36818 37.7221 6.49634 37.7801 6.6305 37.7817H22.8633C22.93 37.7817 22.996 37.7676 23.0575 37.7402C23.119 37.7127 23.1748 37.6726 23.2217 37.6219C23.2685 37.5713 23.3055 37.5113 23.3305 37.4453C23.3555 37.3793 23.368 37.3086 23.3672 37.2374V23.4041C23.368 23.3329 23.3555 23.2623 23.3305 23.1963C23.3055 23.1303 23.2685 23.0703 23.2217 23.0196C23.1748 22.969 23.119 22.9288 23.0575 22.9014C22.996 22.874 22.93 22.8598 22.8633 22.8599L6.6305 22.8293ZM22.3595 36.6993H7.1401V23.9423H22.3595V36.6993ZM7.40349 36.4241H22.0503V24.2481H7.40349V36.4241Z" fill="#A92539"/>
</svg>
