<svg width="48" height="46" viewBox="0 0 48 46" fill="none" xmlns="http://www.w3.org/2000/svg">
<path d="M26.8495 45.2979H20.9838C19.6151 45.2979 18.051 44.1676 18.051 41.9072V37.9514C18.0199 37.0065 17.7766 36.0794 17.3378 35.2339C16.899 34.3883 16.2751 33.6445 15.5092 33.0537C13.8352 31.8148 12.4857 30.2153 11.569 28.3834C10.6522 26.5516 10.1937 24.5382 10.23 22.5049C10.3366 19.0902 11.7922 15.8435 14.2995 13.4279C16.8069 11.0123 20.1768 9.60991 23.7211 9.50722C25.5277 9.48523 27.3211 9.80666 28.9986 10.4531C30.6761 11.0996 32.2048 12.0584 33.4973 13.2747C36.102 15.7694 37.5778 19.1548 37.6032 22.6932C37.6298 24.652 37.1846 26.59 36.3025 28.355C35.4204 30.12 34.1256 31.6638 32.5196 32.8653C31.686 33.494 31.008 34.2933 30.5345 35.2056C30.0611 36.1178 29.8042 37.12 29.7823 38.1397V42.4723C29.7639 43.2161 29.449 43.9245 28.9029 44.4506C28.3568 44.9767 27.6215 45.2801 26.8495 45.2979ZM23.9166 11.3909C17.6599 11.3909 12.3808 16.477 12.1853 22.5049C12.1403 24.2443 12.5215 25.9695 13.2979 27.5405C14.0744 29.1115 15.2243 30.484 16.6544 31.5467C17.6798 32.3002 18.5143 33.2682 19.0949 34.3776C19.6755 35.487 19.9871 36.709 20.0062 37.9514V41.9072C20.0062 42.2839 20.0062 43.4141 20.9838 43.4141H26.8495C26.98 43.422 27.1108 43.4031 27.2331 43.3585C27.3554 43.314 27.4665 43.2449 27.5589 43.1558C27.6514 43.0667 27.7231 42.9597 27.7694 42.8418C27.8156 42.724 27.8353 42.598 27.8271 42.4723V38.1397C27.8766 36.8327 28.2163 35.5511 28.8234 34.3813C29.4305 33.2115 30.2909 32.1807 31.3465 31.3583C32.6979 30.3222 33.7872 29.0038 34.5324 27.5028C35.2776 26.0017 35.659 24.3571 35.648 22.6932C35.6507 21.1893 35.3407 19.7002 34.7363 18.3136C34.1318 16.927 33.2451 15.6712 32.1286 14.6202C31.049 13.586 29.7675 12.7682 28.358 12.214C26.9485 11.6597 25.439 11.38 23.9166 11.3909Z" fill="#A92539"/>
<path d="M28.8048 39.6463H19.0286C18.7694 39.6463 18.5207 39.5471 18.3374 39.3705C18.154 39.1939 18.051 38.9544 18.051 38.7046C18.051 38.4549 18.154 38.2153 18.3374 38.0387C18.5207 37.8621 18.7694 37.7629 19.0286 37.7629H28.8048C29.0641 37.7629 29.3127 37.8621 29.4961 38.0387C29.6794 38.2153 29.7824 38.4549 29.7824 38.7046C29.7824 38.9544 29.6794 39.1939 29.4961 39.3705C29.3127 39.5471 29.0641 39.6463 28.8048 39.6463Z" fill="#A92539"/>
<path d="M23.9167 5.73984C23.7862 5.74772 23.6554 5.72876 23.5331 5.68422C23.4108 5.63967 23.2997 5.57056 23.2072 5.48148C23.1148 5.3924 23.043 5.28538 22.9968 5.16754C22.9506 5.04969 22.9309 4.92372 22.9391 4.79799V1.03059C22.9391 0.7808 23.0421 0.541238 23.2254 0.364608C23.4087 0.187977 23.6574 0.0887451 23.9167 0.0887451C24.1759 0.0887451 24.4246 0.187977 24.6079 0.364608C24.7913 0.541238 24.8943 0.7808 24.8943 1.03059V4.79799C24.9024 4.92372 24.8828 5.04969 24.8365 5.16754C24.7903 5.28538 24.7186 5.3924 24.6261 5.48148C24.5336 5.57056 24.4225 5.63967 24.3002 5.68422C24.1779 5.72876 24.0472 5.74772 23.9167 5.73984Z" fill="#A92539"/>
<path d="M37.0167 11.0143C36.7411 11.0424 36.464 10.9757 36.2346 10.8259C36.1418 10.7409 36.0679 10.6386 36.0174 10.5253C35.967 10.412 35.9409 10.2899 35.9409 10.1666C35.9409 10.0432 35.967 9.92117 36.0174 9.80783C36.0679 9.69449 36.1418 9.59223 36.2346 9.50726L38.9719 6.87002C39.0617 6.78344 39.1684 6.71475 39.2858 6.6679C39.4033 6.62104 39.5291 6.59692 39.6562 6.59692C39.7833 6.59692 39.9091 6.62104 40.0265 6.6679C40.144 6.71475 40.2506 6.78344 40.3405 6.87002C40.4304 6.9566 40.5017 7.05939 40.5503 7.17251C40.5989 7.28564 40.624 7.40688 40.624 7.52933C40.624 7.65177 40.5989 7.77302 40.5503 7.88615C40.5017 7.99927 40.4304 8.10206 40.3405 8.18864L37.6032 10.8259C37.4192 10.918 37.2213 10.9816 37.0167 11.0143Z" fill="#A92539"/>
<path d="M46.4017 23.6348H42.4913C42.232 23.6348 41.9833 23.5355 41.8 23.3589C41.6167 23.1823 41.5137 22.9428 41.5137 22.6931C41.5137 22.4433 41.6167 22.2038 41.8 22.0272C41.9833 21.8506 42.232 21.7513 42.4913 21.7513H46.4017C46.661 21.7513 46.9097 21.8506 47.093 22.0272C47.2763 22.2038 47.3793 22.4433 47.3793 22.6931C47.3793 22.9428 47.2763 23.1823 47.093 23.3589C46.9097 23.5355 46.661 23.6348 46.4017 23.6348Z" fill="#A92539"/>
<path d="M39.7539 38.8932C39.4783 38.9213 39.2012 38.8546 38.9718 38.7048L36.2345 36.0676C36.053 35.8927 35.951 35.6556 35.951 35.4083C35.951 35.161 36.053 34.9238 36.2345 34.749C36.416 34.5741 36.6622 34.4759 36.9188 34.4759C37.1755 34.4759 37.4217 34.5741 37.6032 34.749L40.3405 37.3862C40.4332 37.4712 40.5071 37.5734 40.5576 37.6868C40.6081 37.8001 40.6342 37.9221 40.6342 38.0455C40.6342 38.1688 40.6081 38.2909 40.5576 38.4042C40.5071 38.5176 40.4332 38.6198 40.3405 38.7048C40.3405 38.8932 40.1449 38.8932 39.7539 38.8932Z" fill="#A92539"/>
<path d="M8.07934 38.8932C7.80373 38.9213 7.52666 38.8546 7.29724 38.7048C7.20445 38.6198 7.13056 38.5176 7.08007 38.4042C7.02957 38.2909 7.00354 38.1688 7.00354 38.0455C7.00354 37.9221 7.02957 37.8001 7.08007 37.6868C7.13056 37.5734 7.20445 37.4712 7.29724 37.3862L10.0346 34.749C10.2161 34.5741 10.4622 34.4759 10.7189 34.4759C10.9756 34.4759 11.2217 34.5741 11.4032 34.749C11.5847 34.9238 11.6867 35.161 11.6867 35.4083C11.6867 35.6556 11.5847 35.8927 11.4032 36.0676L8.66591 38.7048C8.58877 38.7761 8.49612 38.8301 8.39466 38.8627C8.29321 38.8952 8.18549 38.9057 8.07934 38.8932Z" fill="#A92539"/>
<path d="M5.34203 23.6348H1.43159C1.17231 23.6348 0.923654 23.5355 0.740316 23.3589C0.556979 23.1823 0.453979 22.9428 0.453979 22.6931C0.453979 22.4433 0.556979 22.2038 0.740316 22.0272C0.923654 21.8506 1.17231 21.7513 1.43159 21.7513H5.34203C5.60131 21.7513 5.84997 21.8506 6.0333 22.0272C6.21664 22.2038 6.31964 22.4433 6.31964 22.6931C6.31964 22.9428 6.21664 23.1823 6.0333 23.3589C5.84997 23.5355 5.60131 23.6348 5.34203 23.6348Z" fill="#A92539"/>
<path d="M10.8166 11.0143C10.541 11.0424 10.2639 10.9757 10.0345 10.8259L7.29725 8.00031C7.20738 7.91373 7.13609 7.81095 7.08746 7.69783C7.03882 7.5847 7.01379 7.46346 7.01379 7.34102C7.01379 7.21857 7.03882 7.09733 7.08746 6.98421C7.13609 6.87108 7.20738 6.7683 7.29725 6.68172C7.38711 6.59514 7.4938 6.52646 7.61121 6.4796C7.72863 6.43274 7.85447 6.40863 7.98156 6.40863C8.10865 6.40863 8.23449 6.43274 8.35191 6.4796C8.46932 6.52646 8.57601 6.59514 8.66588 6.68172L11.4031 9.31891C11.4959 9.40388 11.5698 9.50614 11.6203 9.61948C11.6708 9.73282 11.6968 9.85487 11.6968 9.97821C11.6968 10.1015 11.6708 10.2236 11.6203 10.3369C11.5698 10.4503 11.4959 10.5525 11.4031 10.6375C11.2076 10.8259 11.0121 11.0143 10.8445 11.0143H10.8166Z" fill="#A92539"/>
<path d="M31.7376 23.6352C31.607 23.643 31.4763 23.6241 31.354 23.5795C31.2316 23.535 31.1206 23.4659 31.0281 23.3768C30.9356 23.2877 30.8639 23.1807 30.8177 23.0629C30.7714 22.945 30.7518 22.819 30.7599 22.6933C30.7382 20.9512 30.0102 19.2864 28.7315 18.0545C27.4528 16.8225 25.7248 16.1212 23.9166 16.1002C23.6573 16.1002 23.4086 16.001 23.2253 15.8244C23.042 15.6477 22.939 15.4082 22.939 15.1584C22.939 14.9086 23.042 14.669 23.2253 14.4924C23.4086 14.3157 23.6573 14.2165 23.9166 14.2165C25.0735 14.2115 26.2199 14.4274 27.2898 14.8516C28.3596 15.2758 29.3316 15.9001 30.1497 16.6882C30.9677 17.4763 31.6156 18.4128 32.056 19.4435C32.4963 20.4742 32.7204 21.5787 32.7152 22.6933C32.7234 22.819 32.7037 22.945 32.6574 23.0629C32.6112 23.1807 32.5395 23.2877 32.447 23.3768C32.3545 23.4659 32.2435 23.535 32.1211 23.5795C31.9988 23.6241 31.8681 23.643 31.7376 23.6352Z" fill="#A92539"/>
</svg>
