<svg width="26" height="26" viewBox="0 0 26 26" fill="none" xmlns="http://www.w3.org/2000/svg">
<path d="M16.5703 18H8.77344V16.4531L12.4531 12.5312C12.9583 11.9792 13.3307 11.4974 13.5703 11.0859C13.8151 10.6745 13.9375 10.2839 13.9375 9.91406C13.9375 9.40885 13.8099 9.01302 13.5547 8.72656C13.2995 8.4349 12.9349 8.28906 12.4609 8.28906C11.9505 8.28906 11.5469 8.46615 11.25 8.82031C10.9583 9.16927 10.8125 9.63021 10.8125 10.2031H8.54688C8.54688 9.51042 8.71094 8.8776 9.03906 8.30469C9.3724 7.73177 9.84115 7.28385 10.4453 6.96094C11.0495 6.63281 11.7344 6.46875 12.5 6.46875C13.6719 6.46875 14.5807 6.75 15.2266 7.3125C15.8776 7.875 16.2031 8.66927 16.2031 9.69531C16.2031 10.2578 16.0573 10.8307 15.7656 11.4141C15.474 11.9974 14.974 12.6771 14.2656 13.4531L11.6797 16.1797H16.5703V18Z" fill="#A92539"/>
<circle cx="13" cy="13" r="12.2" stroke="#A92539" stroke-width="1.6"/>
</svg>
