<svg width="26" height="26" viewBox="0 0 26 26" fill="none" xmlns="http://www.w3.org/2000/svg">
<path d="M11.0703 11.3125H12.2734C12.8464 11.3125 13.2708 11.1693 13.5469 10.8828C13.8229 10.5964 13.9609 10.2161 13.9609 9.74219C13.9609 9.28385 13.8229 8.92708 13.5469 8.67188C13.276 8.41667 12.901 8.28906 12.4219 8.28906C11.9896 8.28906 11.6276 8.40885 11.3359 8.64844C11.0443 8.88281 10.8984 9.1901 10.8984 9.57031H8.64062C8.64062 8.97656 8.79948 8.44531 9.11719 7.97656C9.4401 7.5026 9.88802 7.13281 10.4609 6.86719C11.0391 6.60156 11.6745 6.46875 12.3672 6.46875C13.5703 6.46875 14.513 6.75781 15.1953 7.33594C15.8776 7.90885 16.2188 8.70052 16.2188 9.71094C16.2188 10.2318 16.0599 10.7109 15.7422 11.1484C15.4245 11.5859 15.0078 11.9219 14.4922 12.1562C15.1328 12.3854 15.6094 12.7292 15.9219 13.1875C16.2396 13.6458 16.3984 14.1875 16.3984 14.8125C16.3984 15.8229 16.0286 16.6328 15.2891 17.2422C14.5547 17.8516 13.5807 18.1562 12.3672 18.1562C11.2318 18.1562 10.3021 17.8568 9.57812 17.2578C8.85938 16.6589 8.5 15.8672 8.5 14.8828H10.7578C10.7578 15.3099 10.9167 15.6589 11.2344 15.9297C11.5573 16.2005 11.9531 16.3359 12.4219 16.3359C12.9583 16.3359 13.3776 16.1953 13.6797 15.9141C13.987 15.6276 14.1406 15.25 14.1406 14.7812C14.1406 13.6458 13.5156 13.0781 12.2656 13.0781H11.0703V11.3125Z" fill="#A92539"/>
<circle cx="13" cy="13" r="12.2" stroke="#A92539" stroke-width="1.6"/>
</svg>
