<svg width="26" height="26" viewBox="0 0 26 26" fill="none" xmlns="http://www.w3.org/2000/svg">
<path d="M9.10938 12.4062L9.76562 6.625H16.1406V8.50781H11.6172L11.3359 10.9531C11.8724 10.6667 12.4427 10.5234 13.0469 10.5234C14.1302 10.5234 14.9792 10.8594 15.5938 11.5312C16.2083 12.2031 16.5156 13.1432 16.5156 14.3516C16.5156 15.0859 16.3594 15.7448 16.0469 16.3281C15.7396 16.9062 15.2969 17.3568 14.7188 17.6797C14.1406 17.9974 13.4583 18.1562 12.6719 18.1562C11.9844 18.1562 11.3464 18.0182 10.7578 17.7422C10.1693 17.4609 9.70312 17.0677 9.35938 16.5625C9.02083 16.0573 8.84115 15.4818 8.82031 14.8359H11.0547C11.1016 15.3099 11.2656 15.6797 11.5469 15.9453C11.8333 16.2057 12.2057 16.3359 12.6641 16.3359C13.1745 16.3359 13.5677 16.1536 13.8438 15.7891C14.1198 15.4193 14.2578 14.8984 14.2578 14.2266C14.2578 13.5807 14.099 13.0859 13.7812 12.7422C13.4635 12.3984 13.013 12.2266 12.4297 12.2266C11.8932 12.2266 11.4583 12.3672 11.125 12.6484L10.9062 12.8516L9.10938 12.4062Z" fill="#A92539"/>
<circle cx="13" cy="13" r="12.2" stroke="#A92539" stroke-width="1.6"/>
</svg>
