<svg width="17" height="17" viewBox="0 0 17 17" fill="none" xmlns="http://www.w3.org/2000/svg">
<path d="M8.5 0C3.8063 0 0 3.78451 0 8.45135C0 13.1182 3.8063 16.9027 8.5 16.9027C13.1937 16.9027 17 13.1182 17 8.45135C17 3.78451 13.1937 0 8.5 0ZM6.03 12.7761H3.95986V6.58366H6.03V12.7761ZM4.995 5.73809H4.98151C4.28683 5.73809 3.83755 5.26262 3.83755 4.66839C3.83755 4.06074 4.30058 3.59843 5.00874 3.59843C5.7169 3.59843 6.15269 4.06074 6.16618 4.66839C6.16618 5.26262 5.7169 5.73809 4.995 5.73809ZM13.4945 12.7761H11.4246V9.46328C11.4246 8.63073 11.1249 8.06293 10.3758 8.06293C9.804 8.06293 9.46341 8.44594 9.31374 8.81566C9.259 8.94797 9.24564 9.1329 9.24564 9.31795V12.7761H7.17564C7.17564 12.7761 7.20274 7.16462 7.17564 6.58366H9.24564V7.46045C9.52074 7.0385 10.0129 6.43833 11.1112 6.43833C12.4732 6.43833 13.4945 7.32336 13.4945 9.22536V12.7761Z" fill="#A92539"/>
</svg>
