<svg width="19" height="19" viewBox="0 0 19 19" fill="none" xmlns="http://www.w3.org/2000/svg">
<path d="M18.9953 19.0001V18.9993H19.0001V12.031C19.0001 8.62206 18.2662 5.99609 14.2809 5.99609C12.3651 5.99609 11.0794 7.04743 10.5545 8.04414H10.4991V6.31435H6.72046V18.9993H10.6551V12.7182C10.6551 11.0644 10.9686 9.46519 13.0166 9.46519C15.0346 9.46519 15.0647 11.3525 15.0647 12.8242V19.0001H18.9953Z" fill="white"/>
<path d="M0.313477 6.31543H4.25283V19.0004H0.313477V6.31543Z" fill="white"/>
<path d="M2.28159 0C1.02205 0 0 1.02205 0 2.28159C0 3.54114 1.02205 4.58456 2.28159 4.58456C3.54114 4.58456 4.56318 3.54114 4.56318 2.28159C4.56239 1.02205 3.54035 0 2.28159 0V0Z" fill="white"/>
</svg>
