<svg width="20" height="20" viewBox="0 0 20 20" fill="none" xmlns="http://www.w3.org/2000/svg">
<path d="M3.63803 3.63409C5.11072 2.1623 7.04816 1.24664 9.12025 1.04312C11.1923 0.839591 13.2709 1.36079 15.0018 2.51791C16.7327 3.67503 18.0089 5.3965 18.6129 7.38902C19.217 9.38154 19.1115 11.5219 18.3144 13.4453C17.5174 15.3688 16.0781 16.9564 14.2418 17.9377C12.4055 18.919 10.2857 19.2333 8.24369 18.827C6.20166 18.4206 4.36366 17.3189 3.04284 15.7094C1.72202 14.0999 1.00008 12.0823 1.00003 10.0002C0.997032 8.81739 1.22864 7.6457 1.68145 6.55296C2.13426 5.46022 2.79928 4.46813 3.63803 3.63409ZM14.4938 16.5557C14.3084 15.4996 13.7566 14.5427 12.9355 13.8531C12.1143 13.1636 11.0764 12.7856 10.0042 12.7856C8.93193 12.7856 7.894 13.1636 7.07288 13.8531C6.25175 14.5427 5.69998 15.4996 5.51458 16.5557C6.83571 17.4637 8.40111 17.9498 10.0042 17.9498C11.6072 17.9498 13.1726 17.4637 14.4938 16.5557ZM12.8669 8.87056C12.8669 8.30437 12.699 7.7509 12.3844 7.28013C12.0699 6.80937 11.6228 6.44245 11.0997 6.22578C10.5766 6.00911 10.001 5.95242 9.44569 6.06287C8.89039 6.17333 8.3803 6.44598 7.97995 6.84633C7.5796 7.24668 7.30695 7.75677 7.19649 8.31207C7.08604 8.86738 7.14273 9.44297 7.3594 9.96606C7.57607 10.4891 7.94298 10.9362 8.41375 11.2508C8.88452 11.5653 9.43799 11.7332 10.0042 11.7332C10.7632 11.7327 11.4911 11.4309 12.0278 10.8942C12.5645 10.3574 12.8663 9.62962 12.8669 8.87056ZM4.59503 15.8255C4.82609 15.0061 5.24038 14.2499 5.80659 13.6141C6.3728 12.9784 7.07613 12.4796 7.8634 12.1556C7.15509 11.6953 6.61452 11.0184 6.32231 10.2258C6.0301 9.43326 6.00191 8.56746 6.24194 7.75756C6.48197 6.94765 6.97736 6.23703 7.65423 5.73165C8.33111 5.22628 9.15321 4.95324 9.99793 4.95324C10.8427 4.95324 11.6648 5.22628 12.3416 5.73165C13.0185 6.23703 13.5139 6.94765 13.7539 7.75756C13.994 8.56746 13.9658 9.43326 13.6736 10.2258C13.3813 11.0184 12.8408 11.6953 12.1325 12.1556C12.9221 12.4781 13.6279 12.9761 14.1963 13.612C14.7648 14.2479 15.181 15.0048 15.4133 15.8255C16.5838 14.7386 17.3997 13.3243 17.7547 11.7669C18.1097 10.2096 17.9873 8.58137 17.4035 7.09459C16.8196 5.60781 15.8014 4.33139 14.4816 3.43172C13.1617 2.53205 11.6015 2.05086 10.0042 2.05086C8.40687 2.05086 6.8466 2.53205 5.52676 3.43172C4.20692 4.33139 3.18871 5.60781 2.60487 7.09459C2.02103 8.58137 1.89862 10.2096 2.25362 11.7669C2.60861 13.3243 3.42453 14.7386 4.59503 15.8255Z" fill="white" stroke="#19325A" stroke-width="0.2"/>
</svg>
