<svg width="150" height="34" viewBox="0 0 150 34" fill="none" xmlns="http://www.w3.org/2000/svg">
<path d="M0 32.4702H2.5258L2.54066 11.0183H0V9.80054H11.2027C13.5304 9.80054 15.2588 10.3626 16.388 11.4867C17.5271 12.6004 18.0966 14.0368 18.0966 15.7958C18.0966 17.8463 17.1953 19.3607 15.3925 20.3391C14.8576 20.6305 14.2931 20.8595 13.6988 21.0261C15.6104 21.2655 17.0714 21.9108 18.0818 22.962C19.0921 24.0133 19.5972 25.304 19.5972 26.834C19.5972 28.9365 18.8643 30.6071 17.3983 31.8457C15.9423 33.0739 13.8572 33.688 11.1432 33.688H0V32.4702ZM10.1775 20.6982C12.3269 20.6982 13.6096 19.7302 14.0256 17.7942C14.1544 17.2114 14.2188 16.5869 14.2188 15.9207C14.2188 14.3386 13.9761 13.1937 13.4907 12.4859C12.837 11.5075 11.5989 11.0183 9.77633 11.0183H6.53737V20.6982H10.1775ZM9.98434 32.4702C11.7871 32.4702 13.1639 32.0174 14.1148 31.1119C15.0756 30.2063 15.556 28.9209 15.556 27.2555C15.556 24.8096 14.6298 23.1754 12.7776 22.3532C12.104 22.0513 11.2819 21.9004 10.3112 21.9004H6.53737V32.4702H9.98434Z" fill="white"/>
<path d="M32.4343 9.80054C38.1297 9.80054 40.9774 11.8094 40.9774 15.827C40.9774 17.6485 40.4524 19.1005 39.4025 20.183C38.3526 21.2655 36.946 21.9576 35.1829 22.2595C37.5106 22.6654 39.1053 23.9248 39.9671 26.0378C40.3138 26.8912 40.6159 27.8332 40.8734 28.8636C41.1408 29.8837 41.3786 30.6071 41.5866 31.0338C42.0422 31.9914 42.7157 32.4702 43.6072 32.4702H44.2015L44.2312 33.766H42.1363C40.1949 33.766 38.8874 33.4902 38.2139 32.9386C37.5304 32.3765 37.0104 31.268 36.6538 29.6131C36.327 28.1038 36.0595 27.0734 35.8515 26.5217C35.4157 25.3352 34.8511 24.4036 34.1577 23.7271C33.4644 23.0505 32.568 22.7122 31.4685 22.7122H28.7496V32.4702H32.2262V33.688H22.3459V32.4702H24.738L24.7528 11.0183H22.3459V9.80054H32.4343ZM32.1668 21.635C33.9695 21.635 35.2374 21.0261 35.9704 19.8083C36.5052 18.9236 36.7727 17.6693 36.7727 16.0456C36.7727 14.4219 36.4607 13.2249 35.8367 12.4547C35.0641 11.4971 33.7516 11.0183 31.8994 11.0183H28.7496V21.635H32.1668Z" fill="white"/>
<path d="M55.3745 32.4702H58.346L58.3609 11.0183H55.3745V9.80054H65.3885C71.3613 9.80054 75.2243 11.7833 76.9775 15.749C77.7006 17.3831 78.0621 19.3191 78.0621 21.5569C78.0621 24.5337 77.24 27.1306 75.5957 29.3476C74.2684 31.1275 72.3419 32.3817 69.8161 33.1103C68.4888 33.4954 66.9436 33.688 65.1805 33.688H55.3745V32.4702ZM65.0022 32.4702C68.1223 32.4702 70.3559 31.6531 71.703 30.019C73.0501 28.3849 73.7237 25.6006 73.7237 21.6662V21.1822C73.6642 17.4143 72.9412 14.781 71.5544 13.2822C70.1776 11.7729 68.0579 11.0183 65.1954 11.0183H62.3576V32.4702H65.0022Z" fill="white"/>
<path d="M92.8306 9.48828C96.238 9.48828 98.6449 10.1596 100.051 11.5023C100.269 11.2421 100.487 10.6748 100.705 9.80054H101.909V16.3423H100.646C100.17 14.4791 99.2689 13.0896 97.9416 12.1737C96.6143 11.2473 95.0147 10.7841 93.1426 10.7841C89.6659 10.7841 87.3531 12.6525 86.2041 16.3891C85.5107 18.6373 85.3423 21.2707 85.6989 24.2891C86.2041 28.4941 87.8681 31.1483 90.6911 32.2516C91.4835 32.5535 92.3254 32.7044 93.2169 32.7044C94.1084 32.7044 94.8661 32.6211 95.4901 32.4546C96.1141 32.288 96.654 32.0851 97.1096 31.8457C97.5751 31.5959 97.9416 31.3357 98.2091 31.065C98.4765 30.784 98.6251 30.5342 98.6548 30.3156V24.3047H94.777V23.0869H104.167V24.3047H102.25V30.6903C101.646 31.5751 100.467 32.3505 98.7142 33.0166C96.961 33.6724 95.1484 34.0002 93.2763 34.0002C91.4142 34.0002 89.7204 33.6828 88.195 33.0479C86.6795 32.4025 85.3968 31.523 84.3469 30.4093C82.1876 28.1194 81.1079 25.2623 81.1079 21.8379C81.1079 18.4031 82.1925 15.5148 84.3617 13.1729C85.798 11.6116 87.5908 10.5343 89.7402 9.94105C90.8298 9.6392 91.8599 9.48828 92.8306 9.48828Z" fill="white"/>
<path d="M105.95 32.4546H108.921L108.936 11.0183H105.95V9.80054H125.161V16.6077H124.002C123.952 15.7438 123.883 14.9787 123.794 14.3126C123.705 13.6361 123.517 13.0636 123.229 12.5952C122.655 11.6376 121.486 11.112 119.723 11.0183H112.933V20.8231H116.647C117.489 20.8231 118.133 20.6826 118.579 20.4016C119.035 20.1101 119.312 19.6053 119.411 18.8871C119.431 18.679 119.446 18.4604 119.456 18.2314C119.475 17.992 119.495 17.7578 119.515 17.5288H120.763V25.585H119.515C119.495 25.3456 119.475 25.0698 119.456 24.7575C119.446 24.4453 119.431 24.185 119.411 23.9769C119.312 23.2587 119.03 22.7591 118.564 22.4781C118.108 22.1866 117.47 22.0409 116.647 22.0409H112.933V32.4702H119.292C121.897 32.4702 123.477 31.2056 124.032 28.6763C124.19 27.9477 124.294 27.1983 124.344 26.4281H125.503V33.688H105.95V32.4546Z" fill="white"/>
<path d="M134.15 32.4702H137.106L137.121 11.0027H134.358C132.723 11.1172 131.584 11.7521 130.94 12.9075C130.445 13.7922 130.153 15.2598 130.064 17.3102H128.905V9.80054H149.319V17.3102H148.16C148.071 15.2806 147.774 13.813 147.269 12.9075C146.625 11.7521 145.491 11.1172 143.867 11.0027H141.118V32.4702H144.089V33.688H134.15V32.4702Z" fill="white"/>
<path d="M52.2558 5.94238C52.199 5.49708 52.0612 5.06741 51.85 4.67678C51.6411 4.28548 51.3817 3.92642 51.0792 3.60978C50.9921 3.51632 50.9032 3.42676 50.8569 3.38392L50.7494 3.28462C50.7234 3.25736 50.7031 3.23789 50.6808 3.21842L50.6493 3.19116C50.6141 3.16001 50.5789 3.12886 50.5474 3.0977L50.5011 3.05487C50.4789 3.0354 50.4529 3.01203 50.4307 2.98867L50.4214 2.97893C50.2584 2.82317 50.1231 2.68298 50.0045 2.54863C49.8857 2.41809 49.779 2.27596 49.6858 2.12417C49.5913 1.96468 49.5213 1.79056 49.4783 1.60819C49.4331 1.41696 49.4082 1.22106 49.4042 1.02407C49.4 0.848554 49.4068 0.672939 49.4246 0.498361C49.4338 0.397113 49.4468 0.303653 49.4579 0.227718C49.4608 0.195679 49.4555 0.163401 49.4425 0.134277C49.4294 0.105154 49.4092 0.080261 49.3838 0.0622165C49.3556 0.0374015 49.3226 0.0193252 49.2871 0.00923929C49.2516 -0.000846591 49.2144 -0.00270106 49.1781 0.0038043C49.0714 0.0279587 48.9661 0.059174 48.8631 0.0972638C48.6369 0.178185 48.4205 0.286662 48.2183 0.420478C47.9554 0.594096 47.7218 0.812567 47.5272 1.06691C47.2922 1.37091 47.1262 1.72714 47.0417 2.10859C46.9517 2.54027 46.9618 2.98839 47.0714 3.41508C47.1884 3.86127 47.3859 4.27968 47.6532 4.64757C47.7841 4.83053 47.9278 5.003 48.0831 5.16355C48.1238 5.20833 48.2387 5.32321 48.2387 5.32515L48.285 5.36994L48.3628 5.44977C48.3851 5.47118 48.4017 5.49065 48.4221 5.50818C48.6389 5.73404 48.7927 5.89759 48.9187 6.04557C49.0447 6.19355 49.1818 6.36294 49.2893 6.5226C49.3973 6.67007 49.4899 6.82936 49.5654 6.99769C49.6384 7.17221 49.6859 7.35733 49.7062 7.54676C49.7267 7.74088 49.7267 7.93677 49.7062 8.13089C49.6883 8.30577 49.6605 8.47937 49.6228 8.65075C49.6006 8.74227 49.5802 8.82794 49.5617 8.90193C49.5536 8.93305 49.5546 8.96601 49.5645 8.99654C49.5744 9.02708 49.5928 9.0538 49.6173 9.07327C49.661 9.11127 49.7161 9.13194 49.7729 9.13168H49.8155C49.9155 9.11517 50.0145 9.09241 50.112 9.06353C50.3429 8.9979 50.566 8.90515 50.7772 8.78705C51.0515 8.63377 51.3015 8.43672 51.5183 8.20293C51.7956 7.90919 52.0056 7.553 52.1324 7.16134C52.2592 6.76968 52.2995 6.35283 52.2502 5.94238H52.2558Z" fill="white"/>
<path d="M47.9943 7.09707C47.8997 6.91848 47.7819 6.75464 47.6441 6.6103L47.5441 6.50905L47.494 6.46232L47.4607 6.43117L47.4477 6.41949L47.4014 6.3786L47.3829 6.36107L47.3514 6.33187C47.281 6.26372 47.218 6.20141 47.1661 6.13716C47.1121 6.07678 47.0631 6.01164 47.0197 5.94245C46.9766 5.86961 46.9448 5.79011 46.9252 5.70686C46.9056 5.62066 46.8944 5.53259 46.8919 5.444C46.8866 5.37402 46.8866 5.30371 46.8919 5.23372C46.893 5.19897 46.8848 5.16458 46.8681 5.13458C46.8513 5.10458 46.8268 5.08021 46.7974 5.06432C46.7643 5.04585 46.7278 5.03507 46.6904 5.03272C46.653 5.03036 46.6155 5.0365 46.5806 5.05069C46.4989 5.08517 46.4202 5.12685 46.3452 5.17531C46.2262 5.25454 46.1199 5.35312 46.0303 5.46737C45.9236 5.60624 45.8482 5.76865 45.8098 5.94245C45.7678 6.13985 45.7722 6.34502 45.8227 6.5402C45.8763 6.7441 45.9669 6.93518 46.0895 7.10291C46.1455 7.18565 46.2075 7.26376 46.2748 7.33656L46.349 7.41249L46.3693 7.43002L46.4045 7.46701C46.4121 7.47593 46.4201 7.48438 46.4286 7.49232C46.4953 7.56047 46.5824 7.65198 46.6565 7.73765C46.7172 7.80696 46.7741 7.87976 46.827 7.95573C46.8757 8.02214 46.9173 8.09396 46.9511 8.1699C46.9844 8.24982 47.0063 8.33445 47.016 8.42108C47.0253 8.50907 47.0253 8.59788 47.016 8.68588C47.01 8.75137 47.0001 8.8164 46.9863 8.88059C46.9807 8.9152 46.9852 8.95078 46.9991 8.98272C47.0129 9.01466 47.0356 9.04149 47.0642 9.05972C47.105 9.08724 47.1527 9.10146 47.2013 9.1006C47.229 9.10099 47.2566 9.09638 47.2828 9.08698C47.3586 9.05991 47.4324 9.02671 47.5033 8.98767C47.6296 8.91822 47.7447 8.82819 47.8442 8.72093C47.9634 8.59405 48.0556 8.44208 48.1148 8.27505C48.1783 8.08804 48.1999 7.88813 48.1778 7.69092C48.155 7.48207 48.0927 7.28013 47.9943 7.09707Z" fill="white"/>
<path d="M52.9116 10.3521C52.0908 10.7648 50.6566 11.0374 49.0205 11.0374C47.3844 11.0374 45.9539 10.7648 45.1294 10.3521C45.0128 10.4723 44.9201 10.6156 44.8565 10.7736C44.7929 10.9317 44.7597 11.1014 44.7588 11.273C44.7588 11.4693 44.7982 11.6634 44.8745 11.8426C44.9509 12.0218 45.0623 12.182 45.2016 12.3128L46.1281 13.1811C46.2448 13.2901 46.3171 13.4421 46.3301 13.6056L47.8124 32.5097L45.6111 32.4942V33.6974H52.4224V32.4942L50.223 32.5097L51.7053 13.6056C51.7183 13.4421 51.7906 13.2901 51.9073 13.1811L52.8338 12.3128C52.9717 12.182 53.0819 12.0222 53.1572 11.8437C53.2326 11.6652 53.2714 11.4721 53.2711 11.2769C53.2722 11.1054 53.241 10.9354 53.1793 10.7767C53.1176 10.618 53.0266 10.4736 52.9116 10.3521Z" fill="white"/>
</svg>
