<svg width="114" height="27" viewBox="0 0 114 27" fill="none" xmlns="http://www.w3.org/2000/svg">
<path d="M0 25.3512H1.92063L1.93193 9.03915H0V8.11314H8.51856C10.2885 8.11314 11.6029 8.54053 12.4615 9.39531C13.3277 10.2422 13.7607 11.3344 13.7607 12.672C13.7607 14.2312 13.0753 15.3827 11.7045 16.1267C11.2978 16.3483 10.8685 16.5225 10.4166 16.6491C11.8702 16.8311 12.9812 17.3218 13.7494 18.1212C14.5177 18.9206 14.9018 19.902 14.9018 21.0655C14.9018 22.6642 14.3445 23.9345 13.2297 24.8764C12.1226 25.8103 10.5371 26.2773 8.47337 26.2773H0V25.3512ZM7.73901 16.3998C9.37343 16.3998 10.3488 15.6637 10.6651 14.1916C10.7631 13.7484 10.812 13.2735 10.812 12.767C10.812 11.5639 10.6275 10.6933 10.2584 10.1551C9.76132 9.41114 8.81983 9.03915 7.43397 9.03915H4.97104V16.3998H7.73901ZM7.59214 25.3512C8.96294 25.3512 10.0099 25.0069 10.7329 24.3184C11.4635 23.6298 11.8288 22.6523 11.8288 21.386C11.8288 19.5261 11.1246 18.2835 9.71613 17.6582C9.20396 17.4287 8.57881 17.3139 7.84069 17.3139H4.97104V25.3512H7.59214Z" fill="#19325A"/>
<path d="M24.6631 8.11314C28.994 8.11314 31.1594 9.64067 31.1594 12.6957C31.1594 14.0808 30.7602 15.1849 29.9618 16.008C29.1634 16.8311 28.0939 17.3574 26.7532 17.587C28.5232 17.8956 29.7359 18.8533 30.3911 20.46C30.6548 21.109 30.8845 21.8253 31.0803 22.6088C31.2837 23.3844 31.4644 23.9345 31.6226 24.259C31.9691 24.9872 32.4812 25.3512 33.1591 25.3512H33.611L33.6336 26.3366H32.0406C30.5644 26.3366 29.5702 26.1269 29.058 25.7074C28.5383 25.28 28.1429 24.4371 27.8717 23.1787C27.6232 22.031 27.4198 21.2475 27.2616 20.828C26.9302 19.9257 26.5009 19.2174 25.9737 18.7029C25.4465 18.1885 24.7648 17.9313 23.9288 17.9313H21.8613V25.3512H24.505V26.2773H16.9919V25.3512H18.8109L18.8222 9.03915H16.9919V8.11314H24.6631ZM24.4598 17.1121C25.8306 17.1121 26.7947 16.6491 27.352 15.7231C27.7587 15.0503 27.9621 14.0966 27.9621 12.8619C27.9621 11.6272 27.7249 10.7171 27.2503 10.1314C26.6629 9.40323 25.6649 9.03915 24.2564 9.03915H21.8613V17.1121H24.4598Z" fill="#19325A"/>
<path d="M42.107 25.3512H44.3665L44.3778 9.03915H42.107V8.11314H49.7217C54.2634 8.11314 57.2009 9.62088 58.534 12.6364C59.0838 13.879 59.3587 15.3511 59.3587 17.0527C59.3587 19.3163 58.7336 21.291 57.4833 22.9768C56.474 24.3302 55.0091 25.284 53.0885 25.838C52.0792 26.1308 50.9042 26.2773 49.5635 26.2773H42.107V25.3512ZM49.428 25.3512C51.8005 25.3512 53.499 24.7299 54.5233 23.4873C55.5476 22.2447 56.0598 20.1276 56.0598 17.1358V16.7678C56.0146 13.9027 55.4648 11.9003 54.4103 10.7606C53.3634 9.61297 51.7516 9.03915 49.5748 9.03915H47.417V25.3512H49.428Z" fill="#19325A"/>
<path d="M70.5888 7.8757C73.1798 7.8757 75.01 8.3862 76.0795 9.40719C76.2452 9.20932 76.4109 8.77797 76.5766 8.11314H77.4917V13.0875H76.5314C76.1699 11.6708 75.4845 10.6142 74.4752 9.91768C73.466 9.21328 72.2496 8.86107 70.826 8.86107C68.1824 8.86107 66.4237 10.2818 65.55 13.1231C65.0227 14.8327 64.8947 16.8351 65.1658 19.1303C65.55 22.3278 66.8153 24.3461 68.9619 25.185C69.5645 25.4146 70.2047 25.5293 70.8825 25.5293C71.5604 25.5293 72.1366 25.466 72.6111 25.3394C73.0856 25.2127 73.4961 25.0584 73.8426 24.8764C74.1966 24.6864 74.4752 24.4885 74.6786 24.2828C74.882 24.0691 74.9949 23.8791 75.0175 23.7129V19.1422H72.0688V18.2162H79.209V19.1422H77.7516V23.9978C77.2922 24.6706 76.3959 25.2602 75.0627 25.7668C73.7296 26.2654 72.3512 26.5147 70.9277 26.5147C69.5117 26.5147 68.2238 26.2733 67.0639 25.7905C65.9115 25.2998 64.9361 24.631 64.1377 23.7841C62.4958 22.0429 61.6748 19.8703 61.6748 17.2664C61.6748 14.6546 62.4995 12.4583 64.149 10.6775C65.2411 9.49029 66.6044 8.67112 68.2388 8.21999C69.0673 7.99046 69.8507 7.8757 70.5888 7.8757Z" fill="#19325A"/>
<path d="M80.5648 25.3394H82.8243L82.8356 9.03915H80.5648V8.11314H95.1728V13.2893H94.2916C94.2539 12.6324 94.2012 12.0507 94.1334 11.5441C94.0657 11.0297 93.9225 10.5944 93.7041 10.2382C93.2673 9.51008 92.3785 9.11039 91.0378 9.03915H85.8747V16.4948H88.6992C89.3394 16.4948 89.829 16.3879 90.1679 16.1742C90.5144 15.9526 90.7253 15.5687 90.8006 15.0226C90.8157 14.8643 90.8269 14.6981 90.8345 14.524C90.8495 14.342 90.8646 14.1639 90.8797 13.9898H91.8287V20.1157H90.8797C90.8646 19.9337 90.8495 19.7239 90.8345 19.4865C90.8269 19.249 90.8157 19.0512 90.8006 18.8929C90.7253 18.3468 90.5106 17.9669 90.1566 17.7532C89.8101 17.5316 89.3243 17.4208 88.6992 17.4208H85.8747V25.3512H90.7102C92.6911 25.3512 93.8924 24.3896 94.3142 22.4663C94.4347 21.9123 94.5138 21.3425 94.5515 20.7568H95.4327V26.2773H80.5648V25.3394Z" fill="#19325A"/>
<path d="M102.008 25.3512H104.256L104.268 9.02728H102.166C100.923 9.11434 100.057 9.59714 99.5677 10.4757C99.1911 11.1484 98.9689 12.2644 98.9011 13.8236H98.0199V8.11314H113.543V13.8236H112.662C112.594 12.2802 112.368 11.1642 111.984 10.4757C111.494 9.59714 110.632 9.11434 109.397 9.02728H107.307V25.3512H109.566V26.2773H102.008V25.3512Z" fill="#19325A"/>
<path d="M39.7355 5.17925C39.6923 4.84065 39.5876 4.51393 39.427 4.21689C39.2681 3.91934 39.0709 3.64631 38.8408 3.40554C38.7746 3.33447 38.707 3.26637 38.6718 3.23379L38.59 3.15828C38.5703 3.13756 38.5548 3.12275 38.5379 3.10795L38.514 3.08722C38.4872 3.06353 38.4604 3.03984 38.4365 3.01615L38.4012 2.98358C38.3843 2.96877 38.3646 2.95101 38.3477 2.93324L38.3407 2.92584C38.2167 2.80739 38.1138 2.70079 38.0236 2.59863C37.9333 2.49937 37.8522 2.39129 37.7813 2.27587C37.7094 2.15459 37.6562 2.02219 37.6235 1.88352C37.5891 1.73811 37.5702 1.58914 37.5671 1.43935C37.564 1.30589 37.5691 1.17235 37.5826 1.0396C37.5897 0.962611 37.5996 0.891544 37.608 0.833802C37.6102 0.809439 37.6062 0.784895 37.5963 0.762749C37.5863 0.740604 37.5709 0.721675 37.5516 0.707954C37.5302 0.689085 37.5051 0.675339 37.4781 0.66767C37.4511 0.660001 37.4228 0.658591 37.3953 0.663537C37.3141 0.681904 37.2341 0.705641 37.1557 0.734604C36.9837 0.796137 36.8192 0.878623 36.6654 0.980378C36.4655 1.1124 36.2878 1.27852 36.1399 1.47192C35.9612 1.70309 35.835 1.97397 35.7707 2.26403C35.7022 2.59228 35.71 2.93303 35.7933 3.25748C35.8823 3.59677 36.0325 3.91493 36.2357 4.19468C36.3352 4.3338 36.4445 4.46494 36.5626 4.58703C36.5936 4.62108 36.6809 4.70843 36.6809 4.70991L36.7161 4.74397L36.7753 4.80467C36.7922 4.82096 36.8049 4.83576 36.8204 4.84909C36.9852 5.02083 37.1022 5.1452 37.198 5.25772C37.2938 5.37024 37.3981 5.49905 37.4798 5.62046C37.5619 5.7326 37.6323 5.85371 37.6897 5.98172C37.7452 6.11442 37.7813 6.25519 37.7968 6.39924C37.8124 6.54684 37.8124 6.6958 37.7968 6.8434C37.7832 6.97639 37.762 7.1084 37.7334 7.23871C37.7165 7.3083 37.701 7.37345 37.6869 7.42971C37.6808 7.45338 37.6815 7.47843 37.689 7.50165C37.6966 7.52487 37.7106 7.54519 37.7292 7.56C37.7625 7.58889 37.8043 7.60461 37.8475 7.60441H37.8799C37.956 7.59186 38.0313 7.57455 38.1054 7.55259C38.2809 7.50268 38.4506 7.43216 38.6112 7.34235C38.8198 7.2258 39.0099 7.07596 39.1748 6.89818C39.3856 6.67483 39.5453 6.40398 39.6417 6.10616C39.7381 5.80834 39.7687 5.49136 39.7313 5.17925H39.7355Z" fill="#9D2338"/>
<path d="M36.4949 6.05723C36.423 5.92143 36.3334 5.79684 36.2286 5.68709L36.1525 5.6101L36.1145 5.57456L36.0891 5.55087L36.0793 5.54199L36.0441 5.5109L36.03 5.49758L36.006 5.47537C35.9525 5.42355 35.9046 5.37617 35.8651 5.32731C35.824 5.2814 35.7868 5.23186 35.7538 5.17925C35.7211 5.12387 35.6968 5.06341 35.682 5.00011C35.667 4.93456 35.6585 4.86759 35.6566 4.80023C35.6526 4.74701 35.6526 4.69355 35.6566 4.64033C35.6575 4.6139 35.6512 4.58775 35.6385 4.56494C35.6258 4.54213 35.6071 4.5236 35.5847 4.51152C35.5596 4.49747 35.5318 4.48927 35.5034 4.48749C35.4749 4.4857 35.4465 4.49036 35.4199 4.50116C35.3578 4.52737 35.2979 4.55907 35.2409 4.59591C35.1504 4.65616 35.0696 4.73112 35.0014 4.818C34.9203 4.9236 34.863 5.0471 34.8338 5.17925C34.8018 5.32936 34.8052 5.48537 34.8436 5.63379C34.8843 5.78883 34.9532 5.93413 35.0465 6.06167C35.0891 6.12459 35.1362 6.18398 35.1874 6.23934L35.2438 6.29708L35.2593 6.3104L35.286 6.33853C35.2918 6.34532 35.2979 6.35174 35.3044 6.35778C35.3551 6.4096 35.4213 6.47919 35.4777 6.54433C35.5238 6.59703 35.567 6.65239 35.6073 6.71015C35.6443 6.76066 35.676 6.81527 35.7017 6.87302C35.727 6.93378 35.7436 6.99814 35.751 7.06401C35.7581 7.13092 35.7581 7.19845 35.751 7.26537C35.7464 7.31516 35.7389 7.36461 35.7284 7.41342C35.7242 7.43974 35.7276 7.4668 35.7381 7.49109C35.7487 7.51537 35.7659 7.53577 35.7876 7.54963C35.8187 7.57056 35.855 7.58138 35.8919 7.58073C35.913 7.58102 35.9339 7.57751 35.9539 7.57036C36.0115 7.54978 36.0676 7.52454 36.1216 7.49485C36.2176 7.44204 36.3051 7.37358 36.3808 7.29202C36.4714 7.19554 36.5415 7.07998 36.5865 6.95297C36.6348 6.81076 36.6512 6.65876 36.6344 6.5088C36.6171 6.34999 36.5697 6.19643 36.4949 6.05723Z" fill="#9D2338"/>
<path d="M40.2343 8.53271C39.6101 8.84659 38.5196 9.05387 37.2755 9.05387C36.0314 9.05387 34.9437 8.84659 34.3167 8.53271C34.2281 8.62414 34.1575 8.73308 34.1092 8.85328C34.0608 8.97347 34.0356 9.10253 34.0349 9.23302C34.0349 9.38229 34.0649 9.52988 34.1229 9.66612C34.1809 9.80237 34.2657 9.9242 34.3716 10.0236L35.0761 10.684C35.1648 10.7668 35.2198 10.8824 35.2297 11.0067L36.3568 25.3815L34.683 25.3697V26.2846H39.8623V25.3697L38.1899 25.3815L39.3171 11.0067C39.3269 10.8824 39.3819 10.7668 39.4707 10.684L40.1751 10.0236C40.28 9.92419 40.3638 9.80267 40.4211 9.66697C40.4784 9.53127 40.5079 9.38443 40.5076 9.23598C40.5085 9.1056 40.4848 8.97633 40.4379 8.85562C40.391 8.73492 40.3218 8.62517 40.2343 8.53271Z" fill="#19325A"/>
</svg>
