<svg width="42" height="42" viewBox="0 0 42 42" fill="none" xmlns="http://www.w3.org/2000/svg">
<path d="M36.568 4.58909C33.6588 1.69552 29.7364 0.0497196 25.6336 0.00110815C21.5307 -0.0475033 17.5704 1.5049 14.5936 4.32873C11.6167 7.15256 9.85759 11.0255 9.68978 15.1252C9.52196 19.2249 10.9586 23.2286 13.6948 26.2863L12.4913 27.4897C12.2598 27.2579 11.9848 27.074 11.6821 26.9485C11.3794 26.823 11.055 26.7584 10.7273 26.7584C10.3997 26.7584 10.0752 26.823 9.77253 26.9485C9.46984 27.074 9.19487 27.2579 8.96332 27.4897L0.731316 35.7217C0.499479 35.9533 0.315561 36.2282 0.190075 36.5309C0.0645901 36.8336 0 37.1581 0 37.4857C0 37.8134 0.0645901 38.1378 0.190075 38.4405C0.315561 38.7432 0.499479 39.0182 0.731316 39.2497L1.90732 40.4257C2.13886 40.6576 2.41384 40.8415 2.71652 40.967C3.01921 41.0925 3.34365 41.157 3.67132 41.157C3.99898 41.157 4.32343 41.0925 4.62611 40.967C4.92879 40.8415 5.20377 40.6576 5.43532 40.4257L13.6673 32.1937C13.9001 31.9627 14.0848 31.6879 14.2109 31.3851C14.337 31.0824 14.4019 30.7577 14.4019 30.4297C14.4019 30.1018 14.337 29.7771 14.2109 29.4743C14.0848 29.1716 13.9001 28.8967 13.6673 28.6657L14.8747 27.4623C17.927 30.2277 21.9402 31.6889 26.056 31.5333C30.1718 31.3777 34.0634 29.6177 36.8982 26.6298C39.733 23.6418 41.286 19.6632 41.225 15.5449C41.164 11.4266 39.4939 7.49572 36.5719 4.59301L36.568 4.58909ZM12.4913 31.0138L4.25932 39.2458C4.18213 39.3231 4.09047 39.3844 3.98958 39.4262C3.88869 39.468 3.78054 39.4896 3.67132 39.4896C3.5621 39.4896 3.45395 39.468 3.35305 39.4262C3.25216 39.3844 3.1605 39.3231 3.08332 39.2458L1.90732 38.0698C1.82957 37.9929 1.76784 37.9013 1.72572 37.8004C1.68359 37.6995 1.6619 37.5912 1.6619 37.4818C1.6619 37.3724 1.68359 37.2642 1.72572 37.1632C1.76784 37.0623 1.82957 36.9707 1.90732 36.8938L10.1393 28.6618C10.2981 28.5113 10.5085 28.4274 10.7273 28.4274C10.9461 28.4274 11.1566 28.5113 11.3153 28.6618L12.4913 29.8378C12.5686 29.915 12.6299 30.0066 12.6717 30.1075C12.7136 30.2084 12.7351 30.3166 12.7351 30.4258C12.7351 30.535 12.7136 30.6432 12.6717 30.7441C12.6299 30.845 12.5686 30.9366 12.4913 31.0138ZM35.3959 25.7336C33.4217 27.7056 30.9071 29.0481 28.1701 29.5913C25.4331 30.1346 22.5964 29.8542 20.0187 28.7856C17.441 27.717 15.2379 25.9083 13.688 23.5879C12.138 21.2675 11.3107 18.5397 11.3107 15.7493C11.3107 12.9589 12.138 10.2311 13.688 7.91075C15.2379 5.59039 17.441 3.78161 20.0187 2.71304C22.5964 1.64448 25.4331 1.3641 28.1701 1.90734C30.9071 2.45058 33.4217 3.79306 35.3959 5.76509C36.708 7.07571 37.7489 8.6321 38.459 10.3453C39.1692 12.0584 39.5347 13.8948 39.5347 15.7493C39.5347 17.6039 39.1692 19.4402 38.459 21.1534C37.7489 22.8666 36.708 24.4229 35.3959 25.7336Z" fill="#A92539"/>
<path d="M34.2199 6.93713L33.0439 8.11313C34.048 9.11677 34.8446 10.3084 35.3881 11.62C35.9316 12.9316 36.2113 14.3374 36.2113 15.7571C36.2113 17.1769 35.9316 18.5827 35.3881 19.8943C34.8446 21.2058 34.048 22.3975 33.0439 23.4011L34.2199 24.5771C35.3786 23.4191 36.2978 22.0442 36.9249 20.5308C37.5521 19.0174 37.8748 17.3953 37.8748 15.7571C37.8748 14.119 37.5521 12.4969 36.9249 10.9835C36.2978 9.4701 35.3786 8.09514 34.2199 6.93713Z" fill="#A92539"/>
<path d="M33.6907 8.42679C34.1496 8.42679 34.5217 8.05472 34.5217 7.59575C34.5217 7.13678 34.1496 6.76471 33.6907 6.76471C33.2317 6.76471 32.8596 7.13678 32.8596 7.59575C32.8596 8.05472 33.2317 8.42679 33.6907 8.42679Z" fill="#A92539"/>
<path d="M33.6907 24.7379C34.1496 24.7379 34.5217 24.3658 34.5217 23.9068C34.5217 23.4479 34.1496 23.0758 33.6907 23.0758C33.2317 23.0758 32.8596 23.4479 32.8596 23.9068C32.8596 24.3658 33.2317 24.7379 33.6907 24.7379Z" fill="#A92539"/>
</svg>
