<svg width="34" height="34" viewBox="0 0 34 34" fill="none" xmlns="http://www.w3.org/2000/svg">
<path d="M14.3405 2.36927C8.15727 2.36927 3.14478 7.52629 3.14478 13.8878C3.14478 20.2493 8.15727 25.4064 14.3405 25.4064C20.5238 25.4064 25.5363 20.2493 25.5363 13.8878C25.5296 7.52917 20.521 2.3762 14.3405 2.36927ZM14.3405 3.46628C17.6337 3.46895 20.7196 5.12022 22.6126 7.89269L21.2798 9.26394C20.9554 9.06203 20.5841 8.95397 20.205 8.9513C19.0272 8.9513 18.0724 9.93359 18.0724 11.1453C18.0743 11.5358 18.1787 11.9184 18.3747 12.2527L14.8838 15.8443C14.2228 15.4297 13.392 15.4297 12.731 15.8443L10.3063 13.3497C10.5023 13.0154 10.6067 12.6328 10.6086 12.2423C10.6101 11.033 9.65844 10.0515 8.48302 10.0499C7.51092 10.0487 6.66157 10.7252 6.41927 11.6938H4.44135C5.45077 6.89805 9.57114 3.47348 14.3405 3.46628ZM21.2712 11.1453C21.2712 11.7512 20.7939 12.2423 20.205 12.2423C19.6161 12.2423 19.1387 11.7512 19.1387 11.1453C19.1387 10.5394 19.6161 10.0483 20.205 10.0483C20.7939 10.0483 21.2712 10.5394 21.2712 11.1453ZM14.8737 17.7273C14.8737 18.3332 14.3963 18.8243 13.8074 18.8243C13.2185 18.8243 12.7411 18.3332 12.7411 17.7273C12.7411 17.1214 13.2185 16.6303 13.8074 16.6303C14.3963 16.6303 14.8737 17.1214 14.8737 17.7273ZM9.54235 12.2423C9.54235 12.8482 9.065 13.3393 8.47609 13.3393C7.88718 13.3393 7.40982 12.8482 7.40982 12.2423C7.40982 11.6364 7.88718 11.1453 8.47609 11.1453C9.065 11.1453 9.54235 11.6364 9.54235 12.2423ZM19.2623 23.0002C17.7567 23.8603 16.0627 24.3109 14.3405 24.3093C8.74998 24.3132 4.21484 19.6537 4.21104 13.902C4.21077 13.5308 4.22983 13.1598 4.26808 12.7907H6.41927C6.66164 13.7564 7.50665 14.4325 8.47609 14.4362C8.85561 14.4343 9.22754 14.3269 9.55248 14.1252L11.9772 16.6198C11.7812 16.9541 11.6767 17.3368 11.6749 17.7273C11.6749 18.939 12.6296 19.9213 13.8074 19.9213C14.9852 19.9213 15.9399 18.939 15.9399 17.7273C15.9381 17.3368 15.8336 16.9541 15.6376 16.6198L19.1286 13.0282C19.4535 13.2299 19.8254 13.3373 20.205 13.3392C21.3827 13.3392 22.3375 12.3569 22.3375 11.1452C22.3356 10.7548 22.2312 10.3721 22.0352 10.0378L23.1974 8.84262C25.9107 13.8702 24.1489 20.2088 19.2623 23.0002Z" fill="#A92539"/>
<path d="M27.6687 5.66024C28.6381 5.65647 29.4831 4.98051 29.7255 4.01474H33V2.91773H29.7255C29.4831 1.95196 28.6381 1.276 27.6687 1.27223C26.4909 1.27223 25.5361 2.25453 25.5361 3.46624C25.538 3.8567 25.6424 4.23935 25.8384 4.57366L24.9017 5.53738C20.4197 -0.470158 12.0528 -1.60213 6.2136 3.00906C0.374417 7.62025 -0.725832 16.2285 3.75613 22.236C7.9868 27.9067 15.7419 29.2822 21.5739 25.3964L28.2285 32.2428C29.32 33.3658 31.0896 33.3658 32.1811 32.2428C33.2726 31.1199 33.2726 29.2992 32.1811 28.1763L25.5265 21.3298C28.3827 16.8036 28.3827 10.972 25.5265 6.4457L26.5928 5.34869C26.9175 5.55041 27.2893 5.65805 27.6687 5.66024ZM27.6687 2.36923C28.2576 2.36923 28.7349 2.86035 28.7349 3.46624C28.7349 4.07212 28.2576 4.56324 27.6687 4.56324C27.0798 4.56324 26.6024 4.07212 26.6024 3.46624C26.6024 2.86035 27.0798 2.36923 27.6687 2.36923ZM31.4272 28.9518C32.11 29.6386 32.1225 30.7648 31.455 31.4673C30.7875 32.1698 29.6929 32.1826 29.0101 31.4959C29.0007 31.4865 28.9915 31.4769 28.9823 31.4673L24.6906 27.0518L27.1355 24.5364L31.4272 28.9518ZM26.3817 23.7608L23.9367 26.2762L22.461 24.758C22.5362 24.6987 22.6066 24.6335 22.6807 24.5726C22.7548 24.5117 22.8406 24.4388 22.9201 24.3702C23.0368 24.2693 23.152 24.1672 23.265 24.0625C23.3231 24.0076 23.3786 23.9528 23.4356 23.8979C23.6542 23.6873 23.8658 23.4696 24.0706 23.2447C24.1239 23.186 24.1772 23.1289 24.2305 23.0691C24.3323 22.9529 24.4315 22.8344 24.5296 22.7143C24.5964 22.6331 24.662 22.551 24.7263 22.468C24.785 22.3923 24.8484 22.3199 24.906 22.2426L26.3817 23.7608ZM24.3142 21.213C24.1463 21.4544 23.973 21.6908 23.7901 21.9184C23.7368 21.9848 23.6798 22.0489 23.6249 22.1142C23.4617 22.3095 23.2933 22.4989 23.1195 22.6825C23.0438 22.7629 22.9668 22.8421 22.8886 22.92C22.7109 23.0988 22.5268 23.2721 22.3363 23.4399C22.2728 23.4948 22.2105 23.5546 22.146 23.61C21.9247 23.7981 21.6949 23.9764 21.4604 24.1491C15.9414 28.2057 8.27102 26.8911 4.32818 21.213C0.385346 15.5349 1.66306 7.64342 7.18203 3.58691C12.701 -0.469609 20.3714 0.844876 24.3142 6.52304C27.3651 10.9167 27.3651 16.8194 24.3142 21.213Z" fill="#A92539"/>
<path d="M14.3405 2.36927C8.15727 2.36927 3.14478 7.52629 3.14478 13.8878C3.14478 20.2493 8.15727 25.4064 14.3405 25.4064C20.5238 25.4064 25.5363 20.2493 25.5363 13.8878C25.5296 7.52917 20.521 2.3762 14.3405 2.36927ZM14.3405 3.46628C17.6337 3.46895 20.7196 5.12022 22.6126 7.89269L21.2798 9.26394C20.9554 9.06203 20.5841 8.95397 20.205 8.9513C19.0272 8.9513 18.0724 9.93359 18.0724 11.1453C18.0743 11.5358 18.1787 11.9184 18.3747 12.2527L14.8838 15.8443C14.2228 15.4297 13.392 15.4297 12.731 15.8443L10.3063 13.3497C10.5023 13.0154 10.6067 12.6328 10.6086 12.2423C10.6101 11.033 9.65844 10.0515 8.48302 10.0499C7.51092 10.0487 6.66157 10.7252 6.41927 11.6938H4.44135C5.45077 6.89805 9.57114 3.47348 14.3405 3.46628ZM21.2712 11.1453C21.2712 11.7512 20.7939 12.2423 20.205 12.2423C19.6161 12.2423 19.1387 11.7512 19.1387 11.1453C19.1387 10.5394 19.6161 10.0483 20.205 10.0483C20.7939 10.0483 21.2712 10.5394 21.2712 11.1453ZM14.8737 17.7273C14.8737 18.3332 14.3963 18.8243 13.8074 18.8243C13.2185 18.8243 12.7411 18.3332 12.7411 17.7273C12.7411 17.1214 13.2185 16.6303 13.8074 16.6303C14.3963 16.6303 14.8737 17.1214 14.8737 17.7273ZM9.54235 12.2423C9.54235 12.8482 9.065 13.3393 8.47609 13.3393C7.88718 13.3393 7.40982 12.8482 7.40982 12.2423C7.40982 11.6364 7.88718 11.1453 8.47609 11.1453C9.065 11.1453 9.54235 11.6364 9.54235 12.2423ZM19.2623 23.0002C17.7567 23.8603 16.0627 24.3109 14.3405 24.3093C8.74998 24.3132 4.21484 19.6537 4.21104 13.902C4.21077 13.5308 4.22983 13.1598 4.26808 12.7907H6.41927C6.66164 13.7564 7.50665 14.4325 8.47609 14.4362C8.85561 14.4343 9.22754 14.3269 9.55248 14.1252L11.9772 16.6198C11.7812 16.9541 11.6767 17.3368 11.6749 17.7273C11.6749 18.939 12.6296 19.9213 13.8074 19.9213C14.9852 19.9213 15.9399 18.939 15.9399 17.7273C15.9381 17.3368 15.8336 16.9541 15.6376 16.6198L19.1286 13.0282C19.4535 13.2299 19.8254 13.3373 20.205 13.3392C21.3827 13.3392 22.3375 12.3569 22.3375 11.1452C22.3356 10.7548 22.2312 10.3721 22.0352 10.0378L23.1974 8.84262C25.9107 13.8702 24.1489 20.2088 19.2623 23.0002Z" stroke="#A92539" stroke-width="0.2"/>
<path d="M27.6687 5.66024C28.6381 5.65647 29.4831 4.98051 29.7255 4.01474H33V2.91773H29.7255C29.4831 1.95196 28.6381 1.276 27.6687 1.27223C26.4909 1.27223 25.5361 2.25453 25.5361 3.46624C25.538 3.8567 25.6424 4.23935 25.8384 4.57366L24.9017 5.53738C20.4197 -0.470158 12.0528 -1.60213 6.2136 3.00906C0.374417 7.62025 -0.725832 16.2285 3.75613 22.236C7.9868 27.9067 15.7419 29.2822 21.5739 25.3964L28.2285 32.2428C29.32 33.3658 31.0896 33.3658 32.1811 32.2428C33.2726 31.1199 33.2726 29.2992 32.1811 28.1763L25.5265 21.3298C28.3827 16.8036 28.3827 10.972 25.5265 6.4457L26.5928 5.34869C26.9175 5.55041 27.2893 5.65805 27.6687 5.66024ZM27.6687 2.36923C28.2576 2.36923 28.7349 2.86035 28.7349 3.46624C28.7349 4.07212 28.2576 4.56324 27.6687 4.56324C27.0798 4.56324 26.6024 4.07212 26.6024 3.46624C26.6024 2.86035 27.0798 2.36923 27.6687 2.36923ZM31.4272 28.9518C32.11 29.6386 32.1225 30.7648 31.455 31.4673C30.7875 32.1698 29.6929 32.1826 29.0101 31.4959C29.0007 31.4865 28.9915 31.4769 28.9823 31.4673L24.6906 27.0518L27.1355 24.5364L31.4272 28.9518ZM26.3817 23.7608L23.9367 26.2762L22.461 24.758C22.5362 24.6987 22.6066 24.6335 22.6807 24.5726C22.7548 24.5117 22.8406 24.4388 22.9201 24.3702C23.0368 24.2693 23.152 24.1672 23.265 24.0625C23.3231 24.0076 23.3786 23.9528 23.4356 23.8979C23.6542 23.6873 23.8658 23.4696 24.0706 23.2447C24.1239 23.186 24.1772 23.1289 24.2305 23.0691C24.3323 22.9529 24.4315 22.8344 24.5296 22.7143C24.5964 22.6331 24.662 22.551 24.7263 22.468C24.785 22.3923 24.8484 22.3199 24.906 22.2426L26.3817 23.7608ZM24.3142 21.213C24.1463 21.4544 23.973 21.6908 23.7901 21.9184C23.7368 21.9848 23.6798 22.0489 23.6249 22.1142C23.4617 22.3095 23.2933 22.4989 23.1195 22.6825C23.0438 22.7629 22.9668 22.8421 22.8886 22.92C22.7109 23.0988 22.5268 23.2721 22.3363 23.4399C22.2728 23.4948 22.2105 23.5546 22.146 23.61C21.9247 23.7981 21.6949 23.9764 21.4604 24.1491C15.9414 28.2057 8.27102 26.8911 4.32818 21.213C0.385346 15.5349 1.66306 7.64342 7.18203 3.58691C12.701 -0.469609 20.3714 0.844876 24.3142 6.52304C27.3651 10.9167 27.3651 16.8194 24.3142 21.213Z" stroke="#A92539" stroke-width="0.2"/>
</svg>
