<svg width="49" height="40" viewBox="0 0 49 40" fill="none" xmlns="http://www.w3.org/2000/svg">
<path d="M43.6916 18.441C43.6925 17.2837 43.2651 16.1661 42.4902 15.2994C41.7154 14.4327 40.6467 13.8769 39.4861 13.737V1.6164C39.4855 1.26068 39.3666 0.915043 39.1478 0.632912C38.9289 0.35078 38.6223 0.147861 38.2752 0.0555106C37.9282 -0.0368398 37.5601 -0.0134782 37.2278 0.121985C36.8955 0.257449 36.6176 0.497472 36.4369 0.804962C33.8471 5.21104 29.7722 8.2216 24.3193 9.75824C21.8647 10.459 19.3179 10.792 16.7636 10.7461H7.90115C5.86731 10.7559 3.91482 11.5379 2.44636 12.9309C0.977896 14.3239 0.105449 16.2216 0.00894965 18.2327C-0.0875502 20.2437 0.599256 22.2148 1.92772 23.7393C3.25619 25.2638 5.125 26.2255 7.14875 26.4261L9.77423 37.1277C9.94025 37.8152 10.3361 38.427 10.8975 38.8639C11.4588 39.3008 12.1529 39.5371 12.867 39.5346H14.6925C15.1756 39.5375 15.6529 39.431 16.088 39.2233C16.5231 39.0156 16.9045 38.7121 17.2029 38.3361C17.5014 37.9601 17.709 37.5215 17.81 37.0539C17.9109 36.5863 17.9025 36.102 17.7853 35.6381L15.5321 26.4927H16.6131C16.6632 26.4966 16.7135 26.4966 16.7636 26.4927C19.3179 26.4468 21.8647 26.7798 24.3193 27.4806C29.7722 29.0172 33.8471 32.0278 36.4369 36.4338C36.5774 36.6795 36.7811 36.8841 37.0274 37.0266C37.2736 37.1691 37.5535 37.2446 37.8388 37.2453C37.9873 37.245 38.1351 37.2252 38.2783 37.1865C38.6236 37.092 38.9276 36.8868 39.1425 36.6031C39.3575 36.3194 39.4714 35.9731 39.4663 35.6185V23.4782C40.6273 23.3392 41.6964 22.7836 42.4714 21.9168C43.2464 21.0499 43.6735 19.9318 43.6718 18.7742V18.4293L43.6916 18.441ZM15.6429 34.8698L15.9439 36.0889C15.9895 36.2768 15.9915 36.4725 15.9496 36.6612C15.9078 36.85 15.8232 37.0269 15.7023 37.1786C15.5827 37.3306 15.4294 37.4534 15.2544 37.5376C15.0794 37.6219 14.8872 37.6654 14.6925 37.6647H12.867C12.5779 37.6643 12.2975 37.5674 12.0711 37.3895C11.8447 37.2116 11.6856 36.9633 11.6196 36.6847L9.10895 26.4927H13.5798L14.249 29.2367L15.6429 34.8698ZM14.7123 31.1144L15.1796 33.0274L14.7123 31.1144ZM15.7617 20.6127H9.86531C9.62436 20.6281 9.39838 20.7338 9.23325 20.9081C9.06812 21.0825 8.97622 21.3126 8.97622 21.5516C8.97622 21.7906 9.06812 22.0206 9.23325 22.195C9.39838 22.3694 9.62436 22.475 9.86531 22.4904H15.7617V24.5954H7.87343C6.29802 24.5521 4.80206 23.9012 3.70454 22.7816C2.60702 21.662 1.99478 20.1622 1.9984 18.6021C2.00202 17.042 2.62119 15.5451 3.72389 14.4304C4.82659 13.3158 6.32556 12.6717 7.90115 12.6355H15.7617V20.6127ZM37.5893 14.6543V34.6934C34.746 30.3108 30.3266 27.1905 24.7826 25.6421C22.4609 24.9951 20.066 24.6408 17.6546 24.5876V12.6355C20.0653 12.5874 22.4602 12.2384 24.7826 11.5967C30.3266 10.0483 34.7539 6.928 37.5972 2.55328L37.5893 14.6543ZM41.8106 18.786C41.8093 19.4432 41.5789 20.0799 41.1583 20.5884C40.7377 21.0969 40.1526 21.4461 39.502 21.577V15.6461C40.1533 15.7771 40.7388 16.1269 41.1595 16.6362C41.5802 17.1456 41.8103 17.7831 41.8106 18.441V18.786Z" fill="#A92539"/>
<path d="M43.9767 13.1334C44.2132 13.1343 44.4412 13.046 44.6143 12.8864L47.3546 10.4207C47.5369 10.2518 47.6447 10.0186 47.6547 9.77161C47.6648 9.52459 47.5762 9.2836 47.4081 9.10075C47.24 8.9179 47.006 8.80787 46.7566 8.79448C46.5073 8.78108 46.2626 8.86537 46.0755 9.02915L43.3391 11.4987C43.1982 11.6265 43.0994 11.7935 43.0557 11.9777C43.012 12.1619 43.0255 12.3549 43.0944 12.5315C43.1632 12.708 43.2843 12.8599 43.4417 12.9673C43.5991 13.0746 43.7855 13.1325 43.9767 13.1334Z" fill="#A92539"/>
<path d="M44.6143 24.3368C44.5223 24.2539 44.4146 24.1898 44.2975 24.148C44.1805 24.1063 44.0562 24.0879 43.9319 24.0937C43.8076 24.0995 43.6857 24.1295 43.5732 24.182C43.4606 24.2345 43.3595 24.3084 43.2758 24.3995C43.1921 24.4906 43.1273 24.5971 43.0852 24.713C43.0431 24.8289 43.0244 24.9519 43.0303 25.0749C43.0362 25.198 43.0665 25.3187 43.1195 25.4301C43.1725 25.5415 43.2471 25.6415 43.3392 25.7244L46.0755 28.194C46.2626 28.3578 46.5073 28.4421 46.7567 28.4287C47.006 28.4153 47.2401 28.3053 47.4081 28.1224C47.5762 27.9396 47.6648 27.6986 47.6548 27.4516C47.6448 27.2046 47.5369 26.9714 47.3546 26.8024L44.6143 24.3368Z" fill="#A92539"/>
<path d="M47.5922 17.6727H45.4934C45.3637 17.6644 45.2337 17.6826 45.1113 17.726C44.989 17.7694 44.8769 17.8372 44.7821 17.9252C44.6873 18.0132 44.6117 18.1195 44.56 18.2376C44.5083 18.3556 44.4817 18.4829 44.4817 18.6116C44.4817 18.7402 44.5083 18.8675 44.56 18.9856C44.6117 19.1036 44.6873 19.21 44.7821 19.2979C44.8769 19.3859 44.989 19.4537 45.1113 19.4972C45.2337 19.5406 45.3637 19.5587 45.4934 19.5504H47.5922C47.7219 19.5587 47.8519 19.5406 47.9743 19.4972C48.0966 19.4537 48.2087 19.3859 48.3035 19.2979C48.3983 19.21 48.4739 19.1036 48.5256 18.9856C48.5773 18.8675 48.6039 18.7402 48.6039 18.6116C48.6039 18.4829 48.5773 18.3556 48.5256 18.2376C48.4739 18.1195 48.3983 18.0132 48.3035 17.9252C48.2087 17.8372 48.0966 17.7694 47.9743 17.726C47.8519 17.6826 47.7219 17.6644 47.5922 17.6727Z" fill="#A92539"/>
<path d="M6.83194 21.189C6.80927 21.131 6.78005 21.0758 6.74482 21.0243C6.67425 20.9231 6.58569 20.8355 6.48346 20.7656C6.4324 20.7316 6.378 20.7027 6.3211 20.6794C6.26288 20.6575 6.20337 20.6392 6.1429 20.6245C6.01996 20.601 5.89361 20.601 5.77066 20.6245C5.71019 20.6392 5.65068 20.6575 5.59246 20.6794C5.53556 20.7027 5.48117 20.7316 5.4301 20.7656C5.37784 20.8004 5.32881 20.8398 5.28358 20.8832C5.23992 20.9257 5.20138 20.9731 5.16874 21.0243C5.13352 21.0758 5.10429 21.131 5.08162 21.189C5.05667 21.2456 5.03808 21.3047 5.02618 21.3654C4.99982 21.4855 4.99982 21.6098 5.02618 21.7299C5.03921 21.7903 5.05777 21.8493 5.08162 21.9063C5.10515 21.9627 5.13434 22.0165 5.16874 22.067C5.20131 22.1196 5.23984 22.1682 5.28358 22.2121C5.32881 22.2555 5.37784 22.2949 5.4301 22.3297C5.48206 22.3623 5.53632 22.3911 5.59246 22.4159C5.65015 22.4383 5.7098 22.4554 5.77066 22.4669C5.89333 22.4931 6.02023 22.4931 6.1429 22.4669C6.20376 22.4554 6.26341 22.4383 6.3211 22.4159C6.37724 22.3911 6.43151 22.3623 6.48346 22.3297C6.53446 22.2948 6.58217 22.2555 6.62602 22.2121C6.66988 22.1673 6.70963 22.1188 6.74482 22.067C6.77923 22.0165 6.80841 21.9627 6.83194 21.9063C6.8558 21.8493 6.87435 21.7903 6.88738 21.7299C6.89342 21.6687 6.89342 21.607 6.88738 21.5457C6.89326 21.4857 6.89326 21.4253 6.88738 21.3654C6.87549 21.3047 6.85689 21.2456 6.83194 21.189Z" fill="#A92539"/>
</svg>
