<svg width="36" height="36" viewBox="0 0 36 36" fill="none" xmlns="http://www.w3.org/2000/svg">
<g clip-path="url(#clip0)">
<path d="M18 18.9955C18.6203 18.9955 19.125 19.5002 19.125 20.1205C19.125 20.4312 19.3769 20.683 19.6875 20.683C19.9981 20.683 20.25 20.4312 20.25 20.1205C20.25 19.0741 19.5318 18.1921 18.5625 17.9418V17.308C18.5625 16.9974 18.3106 16.7455 18 16.7455C17.6894 16.7455 17.4375 16.9974 17.4375 17.308V17.9418C16.4682 18.1922 15.75 19.0741 15.75 20.1205C15.75 21.3612 16.7593 22.3705 18 22.3705C18.6203 22.3705 19.125 22.8752 19.125 23.4955C19.125 24.1158 18.6203 24.6205 18 24.6205C17.3797 24.6205 16.875 24.1158 16.875 23.4955C16.875 23.1849 16.6231 22.933 16.3125 22.933C16.0019 22.933 15.75 23.1849 15.75 23.4955C15.75 24.542 16.4682 25.4239 17.4375 25.6743V26.308C17.4375 26.6187 17.6894 26.8705 18 26.8705C18.3106 26.8705 18.5625 26.6187 18.5625 26.308V25.6743C19.5318 25.4238 20.25 24.542 20.25 23.4955C20.25 22.2549 19.2407 21.2455 18 21.2455C17.3797 21.2455 16.875 20.7408 16.875 20.1205C16.875 19.5002 17.3797 18.9955 18 18.9955Z" fill="#A92539"/>
<path d="M18 14.4955C13.9679 14.4955 10.6875 17.7759 10.6875 21.808C10.6875 25.8402 13.9679 29.1205 18 29.1205C22.0321 29.1205 25.3125 25.8402 25.3125 21.808C25.3125 17.7759 22.0321 14.4955 18 14.4955ZM18 27.9955C14.5882 27.9955 11.8125 25.2198 11.8125 21.808C11.8125 18.3963 14.5882 15.6205 18 15.6205C21.4118 15.6205 24.1875 18.3963 24.1875 21.808C24.1875 25.2198 21.4118 27.9955 18 27.9955Z" fill="#A92539"/>
<path d="M34.2466 12.2456L33.887 9.3689C33.7706 8.43725 32.9174 7.77765 31.9792 7.90696L31.1649 8.0234L30.636 5.9079C30.4102 5.00404 29.4867 4.43844 28.5545 4.68925L1.60235 12.2478C0.711281 12.2923 0 13.0312 0 13.9331V29.6831C0 30.6135 0.757055 31.3706 1.6875 31.3706H34.3125C35.2429 31.3706 36 30.6135 36 29.6831V13.9331C36 13.0616 35.3253 12.2456 34.2466 12.2456ZM32.1356 9.02099C32.4477 8.97824 32.732 9.19846 32.7706 9.50847L33.1128 12.2457H9.59217L32.1356 9.02099ZM28.8527 5.77403C29.157 5.69232 29.4682 5.87521 29.5447 6.18079L30.0454 8.18357L10.0747 11.0402L28.8527 5.77403ZM34.875 29.6831C34.875 29.9932 34.6227 30.2456 34.3125 30.2456H1.6875C1.37735 30.2456 1.125 29.9932 1.125 29.6831V13.9331C1.125 13.6234 1.37672 13.3713 1.6863 13.3707C1.86448 13.3703 -1.11881 13.3706 34.3125 13.3706C34.6227 13.3706 34.875 13.6229 34.875 13.9331V29.6831Z" fill="#A92539"/>
<path d="M33.1875 16.183C32.5672 16.183 32.0625 15.6783 32.0625 15.058C32.0625 14.7474 31.8106 14.4955 31.5 14.4955H24.1875C23.8769 14.4955 23.625 14.7474 23.625 15.058C23.625 15.3687 23.8769 15.6205 24.1875 15.6205H31.0087C31.2126 16.4101 31.8355 17.0329 32.625 17.2368V26.3792C31.8355 26.5831 31.2126 27.206 31.0087 27.9955H24.1875C23.8769 27.9955 23.625 28.2473 23.625 28.558C23.625 28.8686 23.8769 29.1205 24.1875 29.1205H31.5C31.8106 29.1205 32.0625 28.8686 32.0625 28.558C32.0625 27.9377 32.5672 27.433 33.1875 27.433C33.4981 27.433 33.75 27.1811 33.75 26.8705V16.7455C33.75 16.4349 33.4981 16.183 33.1875 16.183Z" fill="#A92539"/>
<path d="M11.8125 27.9955H4.99127C4.78737 27.206 4.16447 26.5832 3.375 26.3792V17.2368C4.16454 17.0329 4.78737 16.41 4.99127 15.6205H11.8125C12.1231 15.6205 12.375 15.3687 12.375 15.058C12.375 14.7474 12.1231 14.4955 11.8125 14.4955H4.5C4.18936 14.4955 3.9375 14.7474 3.9375 15.058C3.9375 15.6783 3.4328 16.183 2.8125 16.183C2.50186 16.183 2.25 16.4349 2.25 16.7455V26.8705C2.25 27.1812 2.50186 27.433 2.8125 27.433C3.4328 27.433 3.9375 27.9377 3.9375 28.558C3.9375 28.8687 4.18936 29.1205 4.5 29.1205H11.8125C12.1231 29.1205 12.375 28.8687 12.375 28.558C12.375 28.2474 12.1231 27.9955 11.8125 27.9955Z" fill="#A92539"/>
<path d="M5.0625 21.808C5.0625 22.7384 5.81955 23.4955 6.75 23.4955C7.68045 23.4955 8.4375 22.7384 8.4375 21.808C8.4375 20.8776 7.68045 20.1205 6.75 20.1205C5.81955 20.1205 5.0625 20.8776 5.0625 21.808ZM7.3125 21.808C7.3125 22.1182 7.06015 22.3705 6.75 22.3705C6.43985 22.3705 6.1875 22.1182 6.1875 21.808C6.1875 21.4979 6.43985 21.2455 6.75 21.2455C7.06015 21.2455 7.3125 21.4979 7.3125 21.808Z" fill="#A92539"/>
<path d="M30.9375 21.808C30.9375 20.8776 30.1804 20.1205 29.25 20.1205C28.3196 20.1205 27.5625 20.8776 27.5625 21.808C27.5625 22.7384 28.3196 23.4955 29.25 23.4955C30.1804 23.4955 30.9375 22.7385 30.9375 21.808ZM28.6875 21.808C28.6875 21.4979 28.9399 21.2455 29.25 21.2455C29.5601 21.2455 29.8125 21.4979 29.8125 21.808C29.8125 22.1182 29.5601 22.3705 29.25 22.3705C28.9399 22.3705 28.6875 22.1182 28.6875 21.808Z" fill="#A92539"/>
</g>
<defs>
<clipPath id="clip0">
<rect width="36" height="36" fill="white"/>
</clipPath>
</defs>
</svg>
