<svg width="18" height="18" viewBox="0 0 18 18" fill="none" xmlns="http://www.w3.org/2000/svg">
<path d="M2.63803 2.63409C4.11072 1.1623 6.04816 0.246642 8.12025 0.0431165C10.1923 -0.160409 12.2709 0.360787 14.0018 1.51791C15.7327 2.67503 17.0089 4.3965 17.6129 6.38902C18.217 8.38154 18.1115 10.5219 17.3144 12.4453C16.5174 14.3688 15.0781 15.9564 13.2418 16.9377C11.4055 17.919 9.28573 18.2333 7.24369 17.827C5.20166 17.4206 3.36366 16.3189 2.04284 14.7094C0.722019 13.0999 8.2016e-05 11.0823 2.86102e-05 9.00024C-0.00296783 7.81739 0.228638 6.6457 0.681448 5.55296C1.13426 4.46022 1.79928 3.46813 2.63803 2.63409ZM13.4938 15.5557C13.3084 14.4996 12.7566 13.5427 11.9355 12.8531C11.1143 12.1636 10.0764 11.7856 9.00417 11.7856C7.93193 11.7856 6.894 12.1636 6.07288 12.8531C5.25175 13.5427 4.69998 14.4996 4.51458 15.5557C5.83571 16.4637 7.40111 16.9498 9.00417 16.9498C10.6072 16.9498 12.1726 16.4637 13.4938 15.5557ZM11.8669 7.87056C11.8669 7.30437 11.699 6.7509 11.3844 6.28013C11.0699 5.80937 10.6228 5.44245 10.0997 5.22578C9.57659 5.00911 9.001 4.95242 8.44569 5.06287C7.89039 5.17333 7.3803 5.44598 6.97995 5.84633C6.5796 6.24668 6.30695 6.75677 6.19649 7.31207C6.08604 7.86738 6.14273 8.44297 6.3594 8.96606C6.57607 9.48915 6.94298 9.93624 7.41375 10.2508C7.88452 10.5653 8.43799 10.7332 9.00417 10.7332C9.76324 10.7327 10.4911 10.4309 11.0278 9.89417C11.5645 9.35743 11.8663 8.62962 11.8669 7.87056ZM3.59503 14.8255C3.82609 14.0061 4.24038 13.2499 4.80659 12.6141C5.3728 11.9784 6.07613 11.4796 6.8634 11.1556C6.15509 10.6953 5.61452 10.0184 5.32231 9.22583C5.0301 8.43326 5.00191 7.56746 5.24194 6.75756C5.48197 5.94765 5.97736 5.23703 6.65423 4.73165C7.33111 4.22628 8.15321 3.95324 8.99793 3.95324C9.84266 3.95324 10.6648 4.22628 11.3416 4.73165C12.0185 5.23703 12.5139 5.94765 12.7539 6.75756C12.994 7.56746 12.9658 8.43326 12.6736 9.22583C12.3813 10.0184 11.8408 10.6953 11.1325 11.1556C11.9221 11.4781 12.6279 11.9761 13.1963 12.612C13.7648 13.2479 14.181 14.0048 14.4133 14.8255C15.5838 13.7386 16.3997 12.3243 16.7547 10.7669C17.1097 9.20956 16.9873 7.58137 16.4035 6.09459C15.8196 4.60781 14.8014 3.33139 13.4816 2.43172C12.1617 1.53205 10.6015 1.05086 9.00417 1.05086C7.40687 1.05086 5.8466 1.53205 4.52676 2.43172C3.20692 3.33139 2.18871 4.60781 1.60487 6.09459C1.02103 7.58137 0.898624 9.20956 1.25362 10.7669C1.60861 12.3243 2.42453 13.7386 3.59503 14.8255Z" fill="#A92539"/>
</svg>
