<svg width="16" height="16" viewBox="0 0 16 16" fill="none" xmlns="http://www.w3.org/2000/svg">
<g clip-path="url(#clip0)">
<path d="M15.8045 14.8628L11.2545 10.3128C12.1359 9.2242 12.6665 7.84087 12.6665 6.33423C12.6665 2.84226 9.82522 0.000946045 6.33325 0.000946045C2.84128 0.000946045 0 2.84223 0 6.3342C0 9.82616 2.84132 12.6675 6.33328 12.6675C7.83992 12.6675 9.22325 12.1368 10.3119 11.2555L14.8619 15.8054C14.9919 15.9354 15.1625 16.0008 15.3332 16.0008C15.5039 16.0008 15.6745 15.9354 15.8045 15.8054C16.0652 15.5448 16.0652 15.1235 15.8045 14.8628ZM6.33328 11.3341C3.57597 11.3341 1.33333 9.09151 1.33333 6.3342C1.33333 3.57688 3.57597 1.33425 6.33328 1.33425C9.0906 1.33425 11.3332 3.57688 11.3332 6.3342C11.3332 9.09151 9.09057 11.3341 6.33328 11.3341Z" fill="#A92539"/>
</g>
<defs>
<clipPath id="clip0">
<rect width="16" height="16" fill="white"/>
</clipPath>
</defs>
</svg>
