<svg width="17" height="17" viewBox="0 0 17 17" fill="none" xmlns="http://www.w3.org/2000/svg">
<g clip-path="url(#clip0)">
<path d="M8.5 0C3.8063 0 0 3.78451 0 8.45135C0 13.1182 3.8063 16.9027 8.5 16.9027C13.1937 16.9027 17 13.1182 17 8.45135C17 3.78451 13.1937 0 8.5 0ZM12.381 6.58947C12.3848 6.67265 12.3866 6.75621 12.3866 6.84016C12.3866 9.40345 10.4242 12.3593 6.83556 12.3594H6.83569H6.83556C5.73376 12.3594 4.70849 12.0383 3.84508 11.488C3.99773 11.506 4.15311 11.5149 4.31044 11.5149C5.22456 11.5149 6.0658 11.2049 6.73362 10.6845C5.87955 10.6688 5.15945 10.1079 4.91095 9.33716C5.02988 9.35986 5.15219 9.37224 5.27761 9.37224C5.45569 9.37224 5.62819 9.34838 5.79213 9.30389C4.89941 9.12619 4.22691 8.34174 4.22691 7.40242C4.22691 7.39365 4.22691 7.38578 4.22717 7.37766C4.49007 7.52299 4.79072 7.61042 5.11082 7.62022C4.58696 7.27268 4.24261 6.67858 4.24261 6.00555C4.24261 5.65014 4.33923 5.31717 4.50681 5.0305C5.46892 6.20427 6.90677 6.97621 8.52827 7.05732C8.49481 6.91521 8.47756 6.76717 8.47756 6.615C8.47756 5.54414 9.35135 4.67535 10.4288 4.67535C10.99 4.67535 11.4968 4.91122 11.8529 5.28829C12.2973 5.20111 12.7147 5.03966 13.0918 4.81746C12.9458 5.27023 12.6366 5.65014 12.2338 5.89039C12.6285 5.84345 13.0046 5.73938 13.3541 5.58489C13.0931 5.97395 12.7619 6.31569 12.381 6.58947Z" fill="#A92539"/>
</g>
<defs>
<clipPath id="clip0">
<rect width="17" height="16.9027" fill="white"/>
</clipPath>
</defs>
</svg>
