<svg width="17" height="17" viewBox="0 0 17 17" fill="none" xmlns="http://www.w3.org/2000/svg">
<g clip-path="url(#clip0)">
<path d="M8.5 0C3.8063 0 0 3.78451 0 8.45135C0 13.1182 3.8063 16.9027 8.5 16.9027C13.1937 16.9027 17 13.1182 17 8.45135C17 3.78451 13.1937 0 8.5 0ZM8.68015 13.372C8.68002 13.372 8.68028 13.372 8.68015 13.372H8.67808C7.8266 13.3716 6.98991 13.1593 6.24686 12.7565L3.55001 13.4597L4.27179 10.8393C3.82653 10.0725 3.59229 9.20253 3.59268 8.31131C3.59385 5.52325 5.87605 3.25501 8.68015 3.25501C10.041 3.25553 11.3184 3.78219 12.2788 4.7379C13.2394 5.69373 13.768 6.96422 13.7675 8.3153C13.7663 11.1035 11.4839 13.372 8.68015 13.372Z" fill="#A92539"/>
<path d="M8.68195 4.10913C6.34956 4.10913 4.4527 5.99436 4.45166 8.31172C4.4514 9.10584 4.675 9.8792 5.09821 10.5484L5.19873 10.7074L4.7715 12.2583L6.37187 11.841L6.52634 11.9321C7.17548 12.3151 7.9197 12.5177 8.67845 12.5179H8.68013C11.0107 12.5179 12.9076 10.6326 12.9086 8.31508C12.909 7.19199 12.4696 6.13608 11.6713 5.34171C10.873 4.54733 9.81124 4.10952 8.68195 4.10913ZM11.1691 10.1187C11.0631 10.4137 10.5553 10.6831 10.3111 10.7195C10.092 10.752 9.815 10.7655 9.51047 10.6695C9.32578 10.6112 9.08907 10.5334 8.78571 10.4033C7.51063 9.85599 6.67783 8.57983 6.61427 8.49549C6.55072 8.41115 6.09522 7.81034 6.09522 7.18838C6.09522 6.56654 6.42362 6.26079 6.54009 6.13441C6.65669 6.0079 6.79443 5.97631 6.87912 5.97631C6.96381 5.97631 7.04864 5.97708 7.1227 5.98069C7.20078 5.98456 7.30557 5.95116 7.40868 6.1976C7.51465 6.45061 7.76886 7.07244 7.80064 7.13563C7.83241 7.19895 7.85355 7.27271 7.81127 7.35705C7.76886 7.44139 7.62801 7.62335 7.49351 7.78919C7.43709 7.8587 7.36355 7.9206 7.43774 8.0471C7.5118 8.17348 7.76705 8.58731 8.14486 8.92234C8.63046 9.3528 9.04005 9.48614 9.16715 9.54946C9.29413 9.61265 9.36832 9.60207 9.44251 9.51786C9.51656 9.43353 9.76027 9.14892 9.84496 9.02241C9.92966 8.8959 10.0145 8.91705 10.131 8.95922C10.2476 9.00126 10.8724 9.30702 10.9996 9.37021C11.1267 9.43353 11.2114 9.46512 11.2431 9.51786C11.275 9.57061 11.275 9.82349 11.1691 10.1187Z" fill="#A92539"/>
</g>
<defs>
<clipPath id="clip0">
<rect width="17" height="16.9027" fill="white"/>
</clipPath>
</defs>
</svg>
