<svg width="18" height="18" viewBox="0 0 18 18" fill="none" xmlns="http://www.w3.org/2000/svg">
<path d="M13.1302 10.7327L13.1235 10.789C11.4742 9.96684 11.3017 9.85732 11.0887 10.1769C10.941 10.3981 10.5105 10.9 10.3807 11.0485C10.2495 11.1948 10.119 11.206 9.89623 11.1047C9.67123 10.9922 8.94898 10.7559 8.09398 9.99084C7.42798 9.3945 6.98098 8.66315 6.84898 8.43812C6.62923 8.05856 7.08898 8.00456 7.50748 7.21244C7.58248 7.05492 7.54423 6.93115 7.48873 6.81939C7.43248 6.70687 6.98473 5.60421 6.79723 5.16465C6.61723 4.72659 6.43198 4.78209 6.29323 4.78209C5.86123 4.74459 5.54548 4.75059 5.26723 5.04013C4.05673 6.37082 4.36198 7.74352 5.39773 9.20323C7.43323 11.8676 8.51773 12.3582 10.5007 13.0393C11.0362 13.2095 11.5245 13.1855 11.9107 13.13C12.3412 13.0618 13.236 12.5892 13.4227 12.0604C13.614 11.5316 13.614 11.0927 13.5577 10.9915C13.5022 10.8902 13.3552 10.834 13.1302 10.7327Z" fill="white"/>
<path d="M15.39 2.58703C9.62325 -2.98762 0.0795 1.05555 0.07575 8.91991C0.07575 10.4919 0.4875 12.0249 1.272 13.3786L0 18L4.75125 16.761C10.68 19.9635 17.997 15.711 18 8.92441C18 6.54246 17.07 4.30075 15.3787 2.61628L15.39 2.58703ZM16.5015 8.89966C16.497 14.6243 10.2127 18.1995 5.2425 15.2775L4.9725 15.1171L2.16 15.8483L2.91375 13.1146L2.7345 12.8333C-0.3585 7.90968 3.195 1.4748 9.054 1.4748C11.0445 1.4748 12.9128 2.25103 14.3197 3.65726C15.726 5.05148 16.5015 6.9197 16.5015 8.89966Z" fill="white"/>
</svg>
