<svg xmlns="http://www.w3.org/2000/svg" viewBox="0 0 329 329"><defs><style>.cls-1{fill:#4caf50;}.cls-2{fill:#fff;}</style></defs><g id="Camada_2" data-name="Camada 2"><g id="Camada_1-2" data-name="Camada 1"><circle class="cls-1" cx="164.5" cy="164.5" r="164.5"/><path class="cls-2" d="M203,174.55l-.06.47c-13.65-6.81-15.08-7.71-16.85-5.07-1.22,1.83-4.78,6-5.86,7.22s-2.16,1.3-4,.46a50.25,50.25,0,0,1-14.92-9.22A56.19,56.19,0,0,1,151,155.56c-1.82-3.14,2-3.59,5.45-10.15a3.41,3.41,0,0,0-.16-3.25c-.46-.93-4.17-10.06-5.72-13.7s-3-3.16-4.18-3.16c-3.57-.31-6.19-.26-8.49,2.13-10,11-7.49,22.38,1.08,34.46C155.8,184,164.78,188,181.2,193.65a25.79,25.79,0,0,0,11.67.75c3.56-.57,11-4.48,12.52-8.86s1.58-8,1.11-8.85-1.67-1.3-3.53-2.14Z"/><path class="cls-2" d="M221.67,107.14C173.93,61,94.92,94.46,94.89,159.56a73.46,73.46,0,0,0,9.91,36.92L94.26,234.74l39.34-10.26c49.08,26.51,109.66-8.69,109.68-64.88a73.22,73.22,0,0,0-21.7-52.22Zm9.21,52.26c0,47.39-52.07,77-93.21,52.8l-2.24-1.33-23.28,6,6.24-22.63L116.9,192c-25.6-40.76,3.81-94,52.32-94a61.7,61.7,0,0,1,61.66,61.47Z"/></g></g></svg>